<?xml version="1.0" encoding="UTF-8" standalone="no"?>
<!DOCTYPE svg PUBLIC "-//W3C//DTD SVG 1.1//EN"
 "http://www.w3.org/Graphics/SVG/1.1/DTD/svg11.dtd">
<!-- Generated by graphviz version 2.38.0 (20140413.2041)
 -->
<!-- Title: G Pages: 1 -->
<svg width="1258pt" height="950pt"
 viewBox="0.00 0.00 1258.00 950.00" xmlns="http://www.w3.org/2000/svg" xmlns:xlink="http://www.w3.org/1999/xlink">
<g id="graph0" class="graph" transform="scale(1 1) rotate(0) translate(4 946)">
<title>G</title>
<polygon fill="white" stroke="none" points="-4,4 -4,-946 1254,-946 1254,4 -4,4"/>
<text text-anchor="middle" x="625" y="-6.6" font-family="Times New Roman,serif" font-size="8.00">PhpDependencyAnalysis by Marco Muths (v0.5.3)</text>
<!-- Sunspikes\\Ratelimit\\Cache\\Adapter\\AbstractCacheAdapter -->
<g id="node1" class="node"><title>Sunspikes\\Ratelimit\\Cache\\Adapter\\AbstractCacheAdapter</title>
<path fill="#9999cc" stroke="black" d="M891,-942C891,-942 660,-942 660,-942 654,-942 648,-936 648,-930 648,-930 648,-918 648,-918 648,-912 654,-906 660,-906 660,-906 891,-906 891,-906 897,-906 903,-912 903,-918 903,-918 903,-930 903,-930 903,-936 897,-942 891,-942"/>
<text text-anchor="middle" x="775.5" y="-921.5" font-family="Times New Roman,serif" font-size="10.00" fill="#000033">Sunspikes\Ratelimit\Cache\Adapter\AbstractCacheAdapter</text>
</g>
<!-- Sunspikes\\Ratelimit\\Cache\\Exception\\ItemNotFoundException -->
<g id="node2" class="node"><title>Sunspikes\\Ratelimit\\Cache\\Exception\\ItemNotFoundException</title>
<path fill="#9999cc" stroke="black" d="M1238,-870C1238,-870 996,-870 996,-870 990,-870 984,-864 984,-858 984,-858 984,-846 984,-846 984,-840 990,-834 996,-834 996,-834 1238,-834 1238,-834 1244,-834 1250,-840 1250,-846 1250,-846 1250,-858 1250,-858 1250,-864 1244,-870 1238,-870"/>
<text text-anchor="middle" x="1117" y="-849.5" font-family="Times New Roman,serif" font-size="10.00" fill="#000033">Sunspikes\Ratelimit\Cache\Exception\ItemNotFoundException</text>
</g>
<!-- Sunspikes\\Ratelimit\\Cache\\Adapter\\AbstractCacheAdapter&#45;&gt;Sunspikes\\Ratelimit\\Cache\\Exception\\ItemNotFoundException -->
<g id="edge1" class="edge"><title>Sunspikes\\Ratelimit\\Cache\\Adapter\\AbstractCacheAdapter&#45;&gt;Sunspikes\\Ratelimit\\Cache\\Exception\\ItemNotFoundException</title>
<path fill="none" stroke="#999999" d="M891.566,-905.965C898.491,-904.679 905.344,-903.354 912,-902 955.416,-893.169 1003.57,-881.458 1042.19,-871.59"/>
<polygon fill="#999999" stroke="#999999" points="1043.01,-873.547 1048.3,-870.023 1041.97,-869.478 1043.01,-873.547"/>
</g>
<!-- Sunspikes\\Ratelimit\\Cache\\Adapter\\CacheAdapterInterface -->
<g id="node3" class="node"><title>Sunspikes\\Ratelimit\\Cache\\Adapter\\CacheAdapterInterface</title>
<path fill="#9999cc" stroke="black" d="M1232.5,-756C1232.5,-756 1001.5,-756 1001.5,-756 995.5,-756 989.5,-750 989.5,-744 989.5,-744 989.5,-732 989.5,-732 989.5,-726 995.5,-720 1001.5,-720 1001.5,-720 1232.5,-720 1232.5,-720 1238.5,-720 1244.5,-726 1244.5,-732 1244.5,-732 1244.5,-744 1244.5,-744 1244.5,-750 1238.5,-756 1232.5,-756"/>
<text text-anchor="middle" x="1117" y="-735.5" font-family="Times New Roman,serif" font-size="10.00" fill="#000033">Sunspikes\Ratelimit\Cache\Adapter\CacheAdapterInterface</text>
</g>
<!-- Sunspikes\\Ratelimit\\Cache\\Adapter\\DesarrollaCacheAdapter -->
<g id="node4" class="node"><title>Sunspikes\\Ratelimit\\Cache\\Adapter\\DesarrollaCacheAdapter</title>
<path fill="#9999cc" stroke="black" d="M553.5,-899C553.5,-899 317.5,-899 317.5,-899 311.5,-899 305.5,-893 305.5,-887 305.5,-887 305.5,-875 305.5,-875 305.5,-869 311.5,-863 317.5,-863 317.5,-863 553.5,-863 553.5,-863 559.5,-863 565.5,-869 565.5,-875 565.5,-875 565.5,-887 565.5,-887 565.5,-893 559.5,-899 553.5,-899"/>
<text text-anchor="middle" x="435.5" y="-878.5" font-family="Times New Roman,serif" font-size="10.00" fill="#000033">Sunspikes\Ratelimit\Cache\Adapter\DesarrollaCacheAdapter</text>
</g>
<!-- Desarrolla2\\Cache\\CacheInterface -->
<g id="node5" class="node"><title>Desarrolla2\\Cache\\CacheInterface</title>
<path fill="#9999cc" stroke="black" d="M839.5,-899C839.5,-899 711.5,-899 711.5,-899 705.5,-899 699.5,-893 699.5,-887 699.5,-887 699.5,-875 699.5,-875 699.5,-869 705.5,-863 711.5,-863 711.5,-863 839.5,-863 839.5,-863 845.5,-863 851.5,-869 851.5,-875 851.5,-875 851.5,-887 851.5,-887 851.5,-893 845.5,-899 839.5,-899"/>
<text text-anchor="middle" x="775.5" y="-878.5" font-family="Times New Roman,serif" font-size="10.00" fill="#000033">Desarrolla2\Cache\CacheInterface</text>
</g>
<!-- Sunspikes\\Ratelimit\\Cache\\Adapter\\DesarrollaCacheAdapter&#45;&gt;Desarrolla2\\Cache\\CacheInterface -->
<g id="edge2" class="edge"><title>Sunspikes\\Ratelimit\\Cache\\Adapter\\DesarrollaCacheAdapter&#45;&gt;Desarrolla2\\Cache\\CacheInterface</title>
<path fill="none" stroke="#999999" d="M565.73,-881C608.54,-881 654.96,-881 693.133,-881"/>
<polygon fill="#999999" stroke="#999999" points="693.187,-883.1 699.187,-881 693.187,-878.9 693.187,-883.1"/>
</g>
<!-- Sunspikes\\Ratelimit\\Cache\\Exception\\CacheException -->
<g id="node6" class="node"><title>Sunspikes\\Ratelimit\\Cache\\Exception\\CacheException</title>
<path fill="#9999cc" stroke="black" d="M220,-748C220,-748 12,-748 12,-748 6,-748 0,-742 0,-736 0,-736 0,-724 0,-724 0,-718 6,-712 12,-712 12,-712 220,-712 220,-712 226,-712 232,-718 232,-724 232,-724 232,-736 232,-736 232,-742 226,-748 220,-748"/>
<text text-anchor="middle" x="116" y="-727.5" font-family="Times New Roman,serif" font-size="10.00" fill="#000033">Sunspikes\Ratelimit\Cache\Exception\CacheException</text>
</g>
<!-- Sunspikes\\Ratelimit\\Cache\\Exception\\DriverNotFoundException -->
<g id="node7" class="node"><title>Sunspikes\\Ratelimit\\Cache\\Exception\\DriverNotFoundException</title>
<path fill="#9999cc" stroke="black" d="M900,-526C900,-526 651,-526 651,-526 645,-526 639,-520 639,-514 639,-514 639,-502 639,-502 639,-496 645,-490 651,-490 651,-490 900,-490 900,-490 906,-490 912,-496 912,-502 912,-502 912,-514 912,-514 912,-520 906,-526 900,-526"/>
<text text-anchor="middle" x="775.5" y="-505.5" font-family="Times New Roman,serif" font-size="10.00" fill="#000033">Sunspikes\Ratelimit\Cache\Exception\DriverNotFoundException</text>
</g>
<!-- Sunspikes\\Ratelimit\\Cache\\Exception\\InvalidConfigException -->
<g id="node8" class="node"><title>Sunspikes\\Ratelimit\\Cache\\Exception\\InvalidConfigException</title>
<path fill="#9999cc" stroke="black" d="M894.5,-483C894.5,-483 656.5,-483 656.5,-483 650.5,-483 644.5,-477 644.5,-471 644.5,-471 644.5,-459 644.5,-459 644.5,-453 650.5,-447 656.5,-447 656.5,-447 894.5,-447 894.5,-447 900.5,-447 906.5,-453 906.5,-459 906.5,-459 906.5,-471 906.5,-471 906.5,-477 900.5,-483 894.5,-483"/>
<text text-anchor="middle" x="775.5" y="-462.5" font-family="Times New Roman,serif" font-size="10.00" fill="#000033">Sunspikes\Ratelimit\Cache\Exception\InvalidConfigException</text>
</g>
<!-- Sunspikes\\Ratelimit\\Cache\\Factory\\DesarrollaCacheFactory -->
<g id="node9" class="node"><title>Sunspikes\\Ratelimit\\Cache\\Factory\\DesarrollaCacheFactory</title>
<path fill="#9999cc" stroke="black" d="M551.5,-354C551.5,-354 319.5,-354 319.5,-354 313.5,-354 307.5,-348 307.5,-342 307.5,-342 307.5,-330 307.5,-330 307.5,-324 313.5,-318 319.5,-318 319.5,-318 551.5,-318 551.5,-318 557.5,-318 563.5,-324 563.5,-330 563.5,-330 563.5,-342 563.5,-342 563.5,-348 557.5,-354 551.5,-354"/>
<text text-anchor="middle" x="435.5" y="-333.5" font-family="Times New Roman,serif" font-size="10.00" fill="#000033">Sunspikes\Ratelimit\Cache\Factory\DesarrollaCacheFactory</text>
</g>
<!-- Sunspikes\\Ratelimit\\Cache\\Factory\\DesarrollaCacheFactory&#45;&gt;Sunspikes\\Ratelimit\\Cache\\Exception\\DriverNotFoundException -->
<g id="edge8" class="edge"><title>Sunspikes\\Ratelimit\\Cache\\Factory\\DesarrollaCacheFactory&#45;&gt;Sunspikes\\Ratelimit\\Cache\\Exception\\DriverNotFoundException</title>
<path fill="none" stroke="#999999" d="M454.405,-354.071C487.572,-386.359 562.21,-453.601 639,-486 640.441,-486.608 641.897,-487.199 643.367,-487.774"/>
<polygon fill="#999999" stroke="#999999" points="642.743,-489.783 649.098,-489.912 644.211,-485.848 642.743,-489.783"/>
</g>
<!-- Sunspikes\\Ratelimit\\Cache\\Factory\\DesarrollaCacheFactory&#45;&gt;Sunspikes\\Ratelimit\\Cache\\Exception\\InvalidConfigException -->
<g id="edge5" class="edge"><title>Sunspikes\\Ratelimit\\Cache\\Factory\\DesarrollaCacheFactory&#45;&gt;Sunspikes\\Ratelimit\\Cache\\Exception\\InvalidConfigException</title>
<path fill="none" stroke="#999999" d="M463.707,-354.093C501.415,-378.28 572.461,-420.688 639,-443 641.221,-443.745 643.471,-444.465 645.744,-445.16"/>
<polygon fill="#999999" stroke="#999999" points="645.465,-447.267 651.814,-446.947 646.652,-443.238 645.465,-447.267"/>
</g>
<!-- Desarrolla2\\Cache\\Cache -->
<g id="node10" class="node"><title>Desarrolla2\\Cache\\Cache</title>
<path fill="#9999cc" stroke="black" d="M822,-440C822,-440 729,-440 729,-440 723,-440 717,-434 717,-428 717,-428 717,-416 717,-416 717,-410 723,-404 729,-404 729,-404 822,-404 822,-404 828,-404 834,-410 834,-416 834,-416 834,-428 834,-428 834,-434 828,-440 822,-440"/>
<text text-anchor="middle" x="775.5" y="-419.5" font-family="Times New Roman,serif" font-size="10.00" fill="#000033">Desarrolla2\Cache\Cache</text>
</g>
<!-- Sunspikes\\Ratelimit\\Cache\\Factory\\DesarrollaCacheFactory&#45;&gt;Desarrolla2\\Cache\\Cache -->
<g id="edge3" class="edge"><title>Sunspikes\\Ratelimit\\Cache\\Factory\\DesarrollaCacheFactory&#45;&gt;Desarrolla2\\Cache\\Cache</title>
<path fill="none" stroke="#999999" d="M486.694,-354.106C527.329,-368.217 586.272,-387.457 639,-400 662.199,-405.518 687.963,-410.084 710.743,-413.598"/>
<polygon fill="#999999" stroke="#999999" points="710.527,-415.69 716.775,-414.515 711.158,-411.537 710.527,-415.69"/>
</g>
<!-- is_null -->
<g id="node11" class="node"><title>is_null</title>
<path fill="#9999cc" stroke="black" d="M1132,-691C1132,-691 1102,-691 1102,-691 1096,-691 1090,-685 1090,-679 1090,-679 1090,-667 1090,-667 1090,-661 1096,-655 1102,-655 1102,-655 1132,-655 1132,-655 1138,-655 1144,-661 1144,-667 1144,-667 1144,-679 1144,-679 1144,-685 1138,-691 1132,-691"/>
<text text-anchor="middle" x="1117" y="-670.5" font-family="Times New Roman,serif" font-size="10.00" fill="#000033">is_null</text>
</g>
<!-- Sunspikes\\Ratelimit\\Cache\\Factory\\DesarrollaCacheFactory&#45;&gt;is_null -->
<g id="edge4" class="edge"><title>Sunspikes\\Ratelimit\\Cache\\Factory\\DesarrollaCacheFactory&#45;&gt;is_null</title>
<path fill="none" stroke="#999999" d="M449.101,-354.045C484.975,-404.826 588.329,-546.889 639,-572 693.451,-598.984 855.762,-564.97 912,-588 951.349,-604.114 945.566,-632.812 984,-651 1015.82,-666.059 1056.22,-670.999 1083.9,-672.522"/>
<polygon fill="#999999" stroke="#999999" points="1083.85,-674.623 1089.95,-672.812 1084.06,-670.428 1083.85,-674.623"/>
</g>
<!-- ucfirst -->
<g id="node12" class="node"><title>ucfirst</title>
<path fill="#9999cc" stroke="black" d="M790.5,-397C790.5,-397 760.5,-397 760.5,-397 754.5,-397 748.5,-391 748.5,-385 748.5,-385 748.5,-373 748.5,-373 748.5,-367 754.5,-361 760.5,-361 760.5,-361 790.5,-361 790.5,-361 796.5,-361 802.5,-367 802.5,-373 802.5,-373 802.5,-385 802.5,-385 802.5,-391 796.5,-397 790.5,-397"/>
<text text-anchor="middle" x="775.5" y="-376.5" font-family="Times New Roman,serif" font-size="10.00" fill="#000033">ucfirst</text>
</g>
<!-- Sunspikes\\Ratelimit\\Cache\\Factory\\DesarrollaCacheFactory&#45;&gt;ucfirst -->
<g id="edge6" class="edge"><title>Sunspikes\\Ratelimit\\Cache\\Factory\\DesarrollaCacheFactory&#45;&gt;ucfirst</title>
<path fill="none" stroke="#999999" d="M563.802,-352.195C628.237,-360.393 701.297,-369.687 742.24,-374.896"/>
<polygon fill="#999999" stroke="#999999" points="742.069,-376.991 748.286,-375.665 742.599,-372.825 742.069,-376.991"/>
</g>
<!-- method_exists -->
<g id="node13" class="node"><title>method_exists</title>
<path fill="#9999cc" stroke="black" d="M800.5,-354C800.5,-354 750.5,-354 750.5,-354 744.5,-354 738.5,-348 738.5,-342 738.5,-342 738.5,-330 738.5,-330 738.5,-324 744.5,-318 750.5,-318 750.5,-318 800.5,-318 800.5,-318 806.5,-318 812.5,-324 812.5,-330 812.5,-330 812.5,-342 812.5,-342 812.5,-348 806.5,-354 800.5,-354"/>
<text text-anchor="middle" x="775.5" y="-333.5" font-family="Times New Roman,serif" font-size="10.00" fill="#000033">method_exists</text>
</g>
<!-- Sunspikes\\Ratelimit\\Cache\\Factory\\DesarrollaCacheFactory&#45;&gt;method_exists -->
<g id="edge7" class="edge"><title>Sunspikes\\Ratelimit\\Cache\\Factory\\DesarrollaCacheFactory&#45;&gt;method_exists</title>
<path fill="none" stroke="#999999" d="M563.802,-336C623.375,-336 690.321,-336 732.441,-336"/>
<polygon fill="#999999" stroke="#999999" points="732.472,-338.1 738.472,-336 732.472,-333.9 732.472,-338.1"/>
</g>
<!-- Desarrolla2\\Cache\\Adapter\\NotCache -->
<g id="node14" class="node"><title>Desarrolla2\\Cache\\Adapter\\NotCache</title>
<path fill="#9999cc" stroke="black" d="M847.5,-311C847.5,-311 703.5,-311 703.5,-311 697.5,-311 691.5,-305 691.5,-299 691.5,-299 691.5,-287 691.5,-287 691.5,-281 697.5,-275 703.5,-275 703.5,-275 847.5,-275 847.5,-275 853.5,-275 859.5,-281 859.5,-287 859.5,-287 859.5,-299 859.5,-299 859.5,-305 853.5,-311 847.5,-311"/>
<text text-anchor="middle" x="775.5" y="-290.5" font-family="Times New Roman,serif" font-size="10.00" fill="#000033">Desarrolla2\Cache\Adapter\NotCache</text>
</g>
<!-- Sunspikes\\Ratelimit\\Cache\\Factory\\DesarrollaCacheFactory&#45;&gt;Desarrolla2\\Cache\\Adapter\\NotCache -->
<g id="edge9" class="edge"><title>Sunspikes\\Ratelimit\\Cache\\Factory\\DesarrollaCacheFactory&#45;&gt;Desarrolla2\\Cache\\Adapter\\NotCache</title>
<path fill="none" stroke="#999999" d="M563.802,-319.805C604.135,-314.674 647.848,-309.113 684.948,-304.393"/>
<polygon fill="#999999" stroke="#999999" points="685.632,-306.423 691.319,-303.582 685.102,-302.256 685.632,-306.423"/>
</g>
<!-- Desarrolla2\\Cache\\Adapter\\File -->
<g id="node15" class="node"><title>Desarrolla2\\Cache\\Adapter\\File</title>
<path fill="#9999cc" stroke="black" d="M835,-268C835,-268 716,-268 716,-268 710,-268 704,-262 704,-256 704,-256 704,-244 704,-244 704,-238 710,-232 716,-232 716,-232 835,-232 835,-232 841,-232 847,-238 847,-244 847,-244 847,-256 847,-256 847,-262 841,-268 835,-268"/>
<text text-anchor="middle" x="775.5" y="-247.5" font-family="Times New Roman,serif" font-size="10.00" fill="#000033">Desarrolla2\Cache\Adapter\File</text>
</g>
<!-- Sunspikes\\Ratelimit\\Cache\\Factory\\DesarrollaCacheFactory&#45;&gt;Desarrolla2\\Cache\\Adapter\\File -->
<g id="edge10" class="edge"><title>Sunspikes\\Ratelimit\\Cache\\Factory\\DesarrollaCacheFactory&#45;&gt;Desarrolla2\\Cache\\Adapter\\File</title>
<path fill="none" stroke="#999999" d="M486.694,-317.894C527.329,-303.783 586.272,-284.543 639,-272 657.911,-267.502 678.526,-263.636 697.839,-260.458"/>
<polygon fill="#999999" stroke="#999999" points="698.202,-262.526 703.788,-259.493 697.529,-258.381 698.202,-262.526"/>
</g>
<!-- Desarrolla2\\Cache\\Adapter\\Apc -->
<g id="node16" class="node"><title>Desarrolla2\\Cache\\Adapter\\Apc</title>
<path fill="#9999cc" stroke="black" d="M836.5,-225C836.5,-225 714.5,-225 714.5,-225 708.5,-225 702.5,-219 702.5,-213 702.5,-213 702.5,-201 702.5,-201 702.5,-195 708.5,-189 714.5,-189 714.5,-189 836.5,-189 836.5,-189 842.5,-189 848.5,-195 848.5,-201 848.5,-201 848.5,-213 848.5,-213 848.5,-219 842.5,-225 836.5,-225"/>
<text text-anchor="middle" x="775.5" y="-204.5" font-family="Times New Roman,serif" font-size="10.00" fill="#000033">Desarrolla2\Cache\Adapter\Apc</text>
</g>
<!-- Sunspikes\\Ratelimit\\Cache\\Factory\\DesarrollaCacheFactory&#45;&gt;Desarrolla2\\Cache\\Adapter\\Apc -->
<g id="edge11" class="edge"><title>Sunspikes\\Ratelimit\\Cache\\Factory\\DesarrollaCacheFactory&#45;&gt;Desarrolla2\\Cache\\Adapter\\Apc</title>
<path fill="none" stroke="#999999" d="M463.707,-317.907C501.415,-293.72 572.461,-251.312 639,-229 657.068,-222.942 677.068,-218.522 696.031,-215.307"/>
<polygon fill="#999999" stroke="#999999" points="696.836,-217.304 702.418,-214.263 696.158,-213.159 696.836,-217.304"/>
</g>
<!-- Desarrolla2\\Cache\\Adapter\\Memory -->
<g id="node17" class="node"><title>Desarrolla2\\Cache\\Adapter\\Memory</title>
<path fill="#9999cc" stroke="black" d="M844.5,-182C844.5,-182 706.5,-182 706.5,-182 700.5,-182 694.5,-176 694.5,-170 694.5,-170 694.5,-158 694.5,-158 694.5,-152 700.5,-146 706.5,-146 706.5,-146 844.5,-146 844.5,-146 850.5,-146 856.5,-152 856.5,-158 856.5,-158 856.5,-170 856.5,-170 856.5,-176 850.5,-182 844.5,-182"/>
<text text-anchor="middle" x="775.5" y="-161.5" font-family="Times New Roman,serif" font-size="10.00" fill="#000033">Desarrolla2\Cache\Adapter\Memory</text>
</g>
<!-- Sunspikes\\Ratelimit\\Cache\\Factory\\DesarrollaCacheFactory&#45;&gt;Desarrolla2\\Cache\\Adapter\\Memory -->
<g id="edge12" class="edge"><title>Sunspikes\\Ratelimit\\Cache\\Factory\\DesarrollaCacheFactory&#45;&gt;Desarrolla2\\Cache\\Adapter\\Memory</title>
<path fill="none" stroke="#999999" d="M454.405,-317.929C487.572,-285.641 562.21,-218.399 639,-186 654.352,-179.523 671.424,-174.943 688.133,-171.707"/>
<polygon fill="#999999" stroke="#999999" points="688.75,-173.728 694.269,-170.574 687.987,-169.598 688.75,-173.728"/>
</g>
<!-- Desarrolla2\\Cache\\Adapter\\Mongo -->
<g id="node18" class="node"><title>Desarrolla2\\Cache\\Adapter\\Mongo</title>
<path fill="#9999cc" stroke="black" d="M842.5,-139C842.5,-139 708.5,-139 708.5,-139 702.5,-139 696.5,-133 696.5,-127 696.5,-127 696.5,-115 696.5,-115 696.5,-109 702.5,-103 708.5,-103 708.5,-103 842.5,-103 842.5,-103 848.5,-103 854.5,-109 854.5,-115 854.5,-115 854.5,-127 854.5,-127 854.5,-133 848.5,-139 842.5,-139"/>
<text text-anchor="middle" x="775.5" y="-118.5" font-family="Times New Roman,serif" font-size="10.00" fill="#000033">Desarrolla2\Cache\Adapter\Mongo</text>
</g>
<!-- Sunspikes\\Ratelimit\\Cache\\Factory\\DesarrollaCacheFactory&#45;&gt;Desarrolla2\\Cache\\Adapter\\Mongo -->
<g id="edge13" class="edge"><title>Sunspikes\\Ratelimit\\Cache\\Factory\\DesarrollaCacheFactory&#45;&gt;Desarrolla2\\Cache\\Adapter\\Mongo</title>
<path fill="none" stroke="#999999" d="M449.274,-317.953C478.095,-278.775 552.45,-186.007 639,-143 654.819,-135.139 672.837,-129.986 690.455,-126.632"/>
<polygon fill="#999999" stroke="#999999" points="690.876,-128.69 696.41,-125.562 690.133,-124.556 690.876,-128.69"/>
</g>
<!-- Desarrolla2\\Cache\\Adapter\\MySQL -->
<g id="node19" class="node"><title>Desarrolla2\\Cache\\Adapter\\MySQL</title>
<path fill="#9999cc" stroke="black" d="M843.5,-96C843.5,-96 707.5,-96 707.5,-96 701.5,-96 695.5,-90 695.5,-84 695.5,-84 695.5,-72 695.5,-72 695.5,-66 701.5,-60 707.5,-60 707.5,-60 843.5,-60 843.5,-60 849.5,-60 855.5,-66 855.5,-72 855.5,-72 855.5,-84 855.5,-84 855.5,-90 849.5,-96 843.5,-96"/>
<text text-anchor="middle" x="775.5" y="-75.5" font-family="Times New Roman,serif" font-size="10.00" fill="#000033">Desarrolla2\Cache\Adapter\MySQL</text>
</g>
<!-- Sunspikes\\Ratelimit\\Cache\\Factory\\DesarrollaCacheFactory&#45;&gt;Desarrolla2\\Cache\\Adapter\\MySQL -->
<g id="edge14" class="edge"><title>Sunspikes\\Ratelimit\\Cache\\Factory\\DesarrollaCacheFactory&#45;&gt;Desarrolla2\\Cache\\Adapter\\MySQL</title>
<path fill="none" stroke="#999999" d="M446.098,-317.749C471.04,-272.334 542.715,-154.023 639,-100 654.312,-91.4088 672.033,-85.9403 689.508,-82.5088"/>
<polygon fill="#999999" stroke="#999999" points="689.9,-84.5721 695.421,-81.4216 689.141,-80.4413 689.9,-84.5721"/>
</g>
<!-- Desarrolla2\\Cache\\Adapter\\Redis -->
<g id="node20" class="node"><title>Desarrolla2\\Cache\\Adapter\\Redis</title>
<path fill="#9999cc" stroke="black" d="M839,-53C839,-53 712,-53 712,-53 706,-53 700,-47 700,-41 700,-41 700,-29 700,-29 700,-23 706,-17 712,-17 712,-17 839,-17 839,-17 845,-17 851,-23 851,-29 851,-29 851,-41 851,-41 851,-47 845,-53 839,-53"/>
<text text-anchor="middle" x="775.5" y="-32.5" font-family="Times New Roman,serif" font-size="10.00" fill="#000033">Desarrolla2\Cache\Adapter\Redis</text>
</g>
<!-- Sunspikes\\Ratelimit\\Cache\\Factory\\DesarrollaCacheFactory&#45;&gt;Desarrolla2\\Cache\\Adapter\\Redis -->
<g id="edge15" class="edge"><title>Sunspikes\\Ratelimit\\Cache\\Factory\\DesarrollaCacheFactory&#45;&gt;Desarrolla2\\Cache\\Adapter\\Redis</title>
<path fill="none" stroke="#999999" d="M443.7,-317.873C464.92,-267.043 532.487,-122.591 639,-57 655.227,-47.0076 674.536,-41.111 693.419,-37.7266"/>
<polygon fill="#999999" stroke="#999999" points="694.224,-39.7222 699.802,-36.6728 693.54,-35.5783 694.224,-39.7222"/>
</g>
<!-- Desarrolla2\\Cache\\Adapter\\MemCache -->
<g id="node21" class="node"><title>Desarrolla2\\Cache\\Adapter\\MemCache</title>
<path fill="#9999cc" stroke="black" d="M850,-569C850,-569 701,-569 701,-569 695,-569 689,-563 689,-557 689,-557 689,-545 689,-545 689,-539 695,-533 701,-533 701,-533 850,-533 850,-533 856,-533 862,-539 862,-545 862,-545 862,-557 862,-557 862,-563 856,-569 850,-569"/>
<text text-anchor="middle" x="775.5" y="-548.5" font-family="Times New Roman,serif" font-size="10.00" fill="#000033">Desarrolla2\Cache\Adapter\MemCache</text>
</g>
<!-- Sunspikes\\Ratelimit\\Cache\\Factory\\DesarrollaCacheFactory&#45;&gt;Desarrolla2\\Cache\\Adapter\\MemCache -->
<g id="edge16" class="edge"><title>Sunspikes\\Ratelimit\\Cache\\Factory\\DesarrollaCacheFactory&#45;&gt;Desarrolla2\\Cache\\Adapter\\MemCache</title>
<path fill="none" stroke="#999999" d="M449.274,-354.047C478.095,-393.225 552.45,-485.993 639,-529 652.566,-535.741 667.749,-540.491 682.909,-543.823"/>
<polygon fill="#999999" stroke="#999999" points="682.639,-545.911 688.941,-545.076 683.494,-541.799 682.639,-545.911"/>
</g>
<!-- Sunspikes\\Ratelimit\\Cache\\Factory\\FactoryInterface -->
<g id="node22" class="node"><title>Sunspikes\\Ratelimit\\Cache\\Factory\\FactoryInterface</title>
<path fill="#9999cc" stroke="black" d="M217,-791C217,-791 15,-791 15,-791 9,-791 3,-785 3,-779 3,-779 3,-767 3,-767 3,-761 9,-755 15,-755 15,-755 217,-755 217,-755 223,-755 229,-761 229,-767 229,-767 229,-779 229,-779 229,-785 223,-791 217,-791"/>
<text text-anchor="middle" x="116" y="-770.5" font-family="Times New Roman,serif" font-size="10.00" fill="#000033">Sunspikes\Ratelimit\Cache\Factory\FactoryInterface</text>
</g>
<!-- Sunspikes\\RateLimiter -->
<g id="node23" class="node"><title>Sunspikes\\RateLimiter</title>
<path fill="#9999cc" stroke="black" d="M157,-705C157,-705 75,-705 75,-705 69,-705 63,-699 63,-693 63,-693 63,-681 63,-681 63,-675 69,-669 75,-669 75,-669 157,-669 157,-669 163,-669 169,-675 169,-681 169,-681 169,-693 169,-693 169,-699 163,-705 157,-705"/>
<text text-anchor="middle" x="116" y="-684.5" font-family="Times New Roman,serif" font-size="10.00" fill="#000033">Sunspikes\RateLimiter</text>
</g>
<!-- Sunspikes\\RateLimiter&#45;&gt;Sunspikes\\Ratelimit\\Cache\\Adapter\\DesarrollaCacheAdapter -->
<g id="edge18" class="edge"><title>Sunspikes\\RateLimiter&#45;&gt;Sunspikes\\Ratelimit\\Cache\\Adapter\\DesarrollaCacheAdapter</title>
<path fill="none" stroke="#999999" d="M169.261,-686.994C190.559,-689.379 214.283,-695.359 232,-709 290.593,-754.114 244.914,-814.533 304,-859 304.229,-859.173 304.46,-859.344 304.691,-859.515"/>
<polygon fill="#999999" stroke="#999999" points="303.531,-861.265 309.667,-862.925 305.905,-857.801 303.531,-861.265"/>
</g>
<!-- Sunspikes\\RateLimiter&#45;&gt;Sunspikes\\Ratelimit\\Cache\\Factory\\DesarrollaCacheFactory -->
<g id="edge17" class="edge"><title>Sunspikes\\RateLimiter&#45;&gt;Sunspikes\\Ratelimit\\Cache\\Factory\\DesarrollaCacheFactory</title>
<path fill="none" stroke="#999999" d="M133.623,-668.623C187.203,-609.39 355.283,-423.575 414.005,-358.657"/>
<polygon fill="#999999" stroke="#999999" points="415.574,-360.054 418.041,-354.195 412.459,-357.236 415.574,-360.054"/>
</g>
<!-- InvalidArgumentException -->
<g id="node24" class="node"><title>InvalidArgumentException</title>
<path fill="#9999cc" stroke="black" d="M485.5,-813C485.5,-813 385.5,-813 385.5,-813 379.5,-813 373.5,-807 373.5,-801 373.5,-801 373.5,-789 373.5,-789 373.5,-783 379.5,-777 385.5,-777 385.5,-777 485.5,-777 485.5,-777 491.5,-777 497.5,-783 497.5,-789 497.5,-789 497.5,-801 497.5,-801 497.5,-807 491.5,-813 485.5,-813"/>
<text text-anchor="middle" x="435.5" y="-792.5" font-family="Times New Roman,serif" font-size="10.00" fill="#000033">InvalidArgumentException</text>
</g>
<!-- Sunspikes\\RateLimiter&#45;&gt;InvalidArgumentException -->
<g id="edge19" class="edge"><title>Sunspikes\\RateLimiter&#45;&gt;InvalidArgumentException</title>
<path fill="none" stroke="#999999" d="M169.271,-690.999C189.634,-694.067 212.672,-699.476 232,-709 270.405,-727.924 265.389,-754.5 304,-773 323.424,-782.307 346.122,-787.748 367.092,-790.906"/>
<polygon fill="#999999" stroke="#999999" points="367.011,-793.016 373.246,-791.776 367.599,-788.857 367.011,-793.016"/>
</g>
<!-- is_array -->
<g id="node25" class="node"><title>is_array</title>
<path fill="#9999cc" stroke="black" d="M450.5,-770C450.5,-770 420.5,-770 420.5,-770 414.5,-770 408.5,-764 408.5,-758 408.5,-758 408.5,-746 408.5,-746 408.5,-740 414.5,-734 420.5,-734 420.5,-734 450.5,-734 450.5,-734 456.5,-734 462.5,-740 462.5,-746 462.5,-746 462.5,-758 462.5,-758 462.5,-764 456.5,-770 450.5,-770"/>
<text text-anchor="middle" x="435.5" y="-749.5" font-family="Times New Roman,serif" font-size="10.00" fill="#000033">is_array</text>
</g>
<!-- Sunspikes\\RateLimiter&#45;&gt;is_array -->
<g id="edge20" class="edge"><title>Sunspikes\\RateLimiter&#45;&gt;is_array</title>
<path fill="none" stroke="#999999" d="M169.033,-695.874C188.834,-699.533 211.546,-704.072 232,-709 264.406,-716.807 271.51,-722.55 304,-730 337.172,-737.606 375.647,-743.776 402.183,-747.625"/>
<polygon fill="#999999" stroke="#999999" points="402.088,-749.733 408.325,-748.505 402.684,-745.575 402.088,-749.733"/>
</g>
<!-- Sunspikes\\Ratelimit\\Throttle\\Hydrator\\ArrayHydrator -->
<g id="node26" class="node"><title>Sunspikes\\Ratelimit\\Throttle\\Hydrator\\ArrayHydrator</title>
<path fill="#9999cc" stroke="black" d="M539.5,-555C539.5,-555 331.5,-555 331.5,-555 325.5,-555 319.5,-549 319.5,-543 319.5,-543 319.5,-531 319.5,-531 319.5,-525 325.5,-519 331.5,-519 331.5,-519 539.5,-519 539.5,-519 545.5,-519 551.5,-525 551.5,-531 551.5,-531 551.5,-543 551.5,-543 551.5,-549 545.5,-555 539.5,-555"/>
<text text-anchor="middle" x="435.5" y="-534.5" font-family="Times New Roman,serif" font-size="10.00" fill="#000033">Sunspikes\Ratelimit\Throttle\Hydrator\ArrayHydrator</text>
</g>
<!-- Sunspikes\\RateLimiter&#45;&gt;Sunspikes\\Ratelimit\\Throttle\\Hydrator\\ArrayHydrator -->
<g id="edge21" class="edge"><title>Sunspikes\\RateLimiter&#45;&gt;Sunspikes\\Ratelimit\\Throttle\\Hydrator\\ArrayHydrator</title>
<path fill="none" stroke="#999999" d="M136.861,-668.981C169.271,-640.661 236.689,-586.168 304,-559 307.129,-557.737 310.329,-556.546 313.581,-555.424"/>
<polygon fill="#999999" stroke="#999999" points="314.446,-557.35 319.487,-553.477 313.131,-553.361 314.446,-557.35"/>
</g>
<!-- is_string -->
<g id="node27" class="node"><title>is_string</title>
<path fill="#9999cc" stroke="black" d="M450.5,-684C450.5,-684 420.5,-684 420.5,-684 414.5,-684 408.5,-678 408.5,-672 408.5,-672 408.5,-660 408.5,-660 408.5,-654 414.5,-648 420.5,-648 420.5,-648 450.5,-648 450.5,-648 456.5,-648 462.5,-654 462.5,-660 462.5,-660 462.5,-672 462.5,-672 462.5,-678 456.5,-684 450.5,-684"/>
<text text-anchor="middle" x="435.5" y="-663.5" font-family="Times New Roman,serif" font-size="10.00" fill="#000033">is_string</text>
</g>
<!-- Sunspikes\\RateLimiter&#45;&gt;is_string -->
<g id="edge22" class="edge"><title>Sunspikes\\RateLimiter&#45;&gt;is_string</title>
<path fill="none" stroke="#999999" d="M169.073,-683.556C235.138,-679.186 347.079,-671.782 402.06,-668.146"/>
<polygon fill="#999999" stroke="#999999" points="402.309,-670.234 408.158,-667.742 402.032,-666.043 402.309,-670.234"/>
</g>
<!-- Sunspikes\\Ratelimit\\Throttle\\Hydrator\\StringHydrator -->
<g id="node28" class="node"><title>Sunspikes\\Ratelimit\\Throttle\\Hydrator\\StringHydrator</title>
<path fill="#9999cc" stroke="black" d="M540,-598C540,-598 331,-598 331,-598 325,-598 319,-592 319,-586 319,-586 319,-574 319,-574 319,-568 325,-562 331,-562 331,-562 540,-562 540,-562 546,-562 552,-568 552,-574 552,-574 552,-586 552,-586 552,-592 546,-598 540,-598"/>
<text text-anchor="middle" x="435.5" y="-577.5" font-family="Times New Roman,serif" font-size="10.00" fill="#000033">Sunspikes\Ratelimit\Throttle\Hydrator\StringHydrator</text>
</g>
<!-- Sunspikes\\RateLimiter&#45;&gt;Sunspikes\\Ratelimit\\Throttle\\Hydrator\\StringHydrator -->
<g id="edge23" class="edge"><title>Sunspikes\\RateLimiter&#45;&gt;Sunspikes\\Ratelimit\\Throttle\\Hydrator\\StringHydrator</title>
<path fill="none" stroke="#999999" d="M149.758,-668.938C186.313,-649.546 247.731,-619.21 304,-602 306.87,-601.122 309.787,-600.277 312.738,-599.462"/>
<polygon fill="#999999" stroke="#999999" points="313.585,-601.41 318.841,-597.835 312.503,-597.352 313.585,-601.41"/>
</g>
<!-- Sunspikes\\Ratelimit\\Throttle\\Factory\\ThrottlerFactory -->
<g id="node29" class="node"><title>Sunspikes\\Ratelimit\\Throttle\\Factory\\ThrottlerFactory</title>
<path fill="#9999cc" stroke="black" d="M540,-727C540,-727 331,-727 331,-727 325,-727 319,-721 319,-715 319,-715 319,-703 319,-703 319,-697 325,-691 331,-691 331,-691 540,-691 540,-691 546,-691 552,-697 552,-703 552,-703 552,-715 552,-715 552,-721 546,-727 540,-727"/>
<text text-anchor="middle" x="435.5" y="-706.5" font-family="Times New Roman,serif" font-size="10.00" fill="#000033">Sunspikes\Ratelimit\Throttle\Factory\ThrottlerFactory</text>
</g>
<!-- Sunspikes\\RateLimiter&#45;&gt;Sunspikes\\Ratelimit\\Throttle\\Factory\\ThrottlerFactory -->
<g id="edge24" class="edge"><title>Sunspikes\\RateLimiter&#45;&gt;Sunspikes\\Ratelimit\\Throttle\\Factory\\ThrottlerFactory</title>
<path fill="none" stroke="#999999" d="M169.073,-690.608C208.04,-693.308 262.967,-697.114 312.752,-700.564"/>
<polygon fill="#999999" stroke="#999999" points="312.666,-702.663 318.797,-700.983 312.956,-698.473 312.666,-702.663"/>
</g>
<!-- Sunspikes\\Ratelimit\\Throttle\\Entity\\Data -->
<g id="node30" class="node"><title>Sunspikes\\Ratelimit\\Throttle\\Entity\\Data</title>
<path fill="#9999cc" stroke="black" d="M853,-670C853,-670 698,-670 698,-670 692,-670 686,-664 686,-658 686,-658 686,-646 686,-646 686,-640 692,-634 698,-634 698,-634 853,-634 853,-634 859,-634 865,-640 865,-646 865,-646 865,-658 865,-658 865,-664 859,-670 853,-670"/>
<text text-anchor="middle" x="775.5" y="-649.5" font-family="Times New Roman,serif" font-size="10.00" fill="#000033">Sunspikes\Ratelimit\Throttle\Entity\Data</text>
</g>
<!-- Sunspikes\\Ratelimit\\Throttle\\Hydrator\\ArrayHydrator&#45;&gt;Sunspikes\\Ratelimit\\Throttle\\Entity\\Data -->
<g id="edge34" class="edge"><title>Sunspikes\\Ratelimit\\Throttle\\Hydrator\\ArrayHydrator&#45;&gt;Sunspikes\\Ratelimit\\Throttle\\Entity\\Data</title>
<path fill="none" stroke="#999999" d="M551.678,-552.27C556.955,-554.256 562.09,-556.489 567,-559 607.013,-579.462 598.925,-609.659 639,-630 651.645,-636.418 665.731,-641.041 679.906,-644.357"/>
<polygon fill="#999999" stroke="#999999" points="679.671,-646.455 685.983,-645.699 680.577,-642.354 679.671,-646.455"/>
</g>
<!-- implode -->
<g id="node35" class="node"><title>implode</title>
<path fill="#9999cc" stroke="black" d="M790.5,-627C790.5,-627 760.5,-627 760.5,-627 754.5,-627 748.5,-621 748.5,-615 748.5,-615 748.5,-603 748.5,-603 748.5,-597 754.5,-591 760.5,-591 760.5,-591 790.5,-591 790.5,-591 796.5,-591 802.5,-597 802.5,-603 802.5,-603 802.5,-615 802.5,-615 802.5,-621 796.5,-627 790.5,-627"/>
<text text-anchor="middle" x="775.5" y="-606.5" font-family="Times New Roman,serif" font-size="10.00" fill="#000033">implode</text>
</g>
<!-- Sunspikes\\Ratelimit\\Throttle\\Hydrator\\ArrayHydrator&#45;&gt;implode -->
<g id="edge33" class="edge"><title>Sunspikes\\Ratelimit\\Throttle\\Hydrator\\ArrayHydrator&#45;&gt;implode</title>
<path fill="none" stroke="#999999" d="M550.633,-555.006C556.186,-556.268 561.667,-557.6 567,-559 599.907,-567.64 606.129,-576.223 639,-585 673.871,-594.311 714.774,-600.991 742.445,-604.902"/>
<polygon fill="#999999" stroke="#999999" points="742.256,-606.996 748.488,-605.742 742.834,-602.836 742.256,-606.996"/>
</g>
<!-- Sunspikes\\Ratelimit\\Throttle\\Hydrator\\StringHydrator&#45;&gt;Sunspikes\\Ratelimit\\Throttle\\Entity\\Data -->
<g id="edge36" class="edge"><title>Sunspikes\\Ratelimit\\Throttle\\Hydrator\\StringHydrator&#45;&gt;Sunspikes\\Ratelimit\\Throttle\\Entity\\Data</title>
<path fill="none" stroke="#999999" d="M551.369,-598.01C556.673,-599.266 561.906,-600.596 567,-602 600.1,-611.123 605.872,-620.977 639,-630 652.078,-633.562 666.033,-636.627 679.83,-639.241"/>
<polygon fill="#999999" stroke="#999999" points="679.449,-641.306 685.731,-640.333 680.213,-637.176 679.449,-641.306"/>
</g>
<!-- Sunspikes\\Ratelimit\\Throttle\\Factory\\ThrottlerFactory&#45;&gt;Sunspikes\\Ratelimit\\Cache\\Adapter\\CacheAdapterInterface -->
<g id="edge31" class="edge"><title>Sunspikes\\Ratelimit\\Throttle\\Factory\\ThrottlerFactory&#45;&gt;Sunspikes\\Ratelimit\\Cache\\Adapter\\CacheAdapterInterface</title>
<path fill="none" stroke="#999999" d="M552.392,-708.177C648.738,-708.159 789.405,-709.672 912,-717 935.098,-718.381 959.617,-720.414 983.346,-722.679"/>
<polygon fill="#999999" stroke="#999999" points="983.186,-724.773 989.36,-723.26 983.59,-720.593 983.186,-724.773"/>
</g>
<!-- Sunspikes\\Ratelimit\\Throttle\\Factory\\ThrottlerFactory&#45;&gt;Sunspikes\\Ratelimit\\Throttle\\Entity\\Data -->
<g id="edge30" class="edge"><title>Sunspikes\\Ratelimit\\Throttle\\Factory\\ThrottlerFactory&#45;&gt;Sunspikes\\Ratelimit\\Throttle\\Entity\\Data</title>
<path fill="none" stroke="#999999" d="M543.327,-690.992C551.338,-689.641 559.297,-688.299 567,-687 603.864,-680.784 644.412,-673.945 679.808,-667.974"/>
<polygon fill="#999999" stroke="#999999" points="680.33,-670.016 685.897,-666.947 679.632,-665.874 680.33,-670.016"/>
</g>
<!-- Sunspikes\\Ratelimit\\Throttle\\Throttler\\CacheThrottler -->
<g id="node34" class="node"><title>Sunspikes\\Ratelimit\\Throttle\\Throttler\\CacheThrottler</title>
<path fill="#9999cc" stroke="black" d="M879.5,-756C879.5,-756 671.5,-756 671.5,-756 665.5,-756 659.5,-750 659.5,-744 659.5,-744 659.5,-732 659.5,-732 659.5,-726 665.5,-720 671.5,-720 671.5,-720 879.5,-720 879.5,-720 885.5,-720 891.5,-726 891.5,-732 891.5,-732 891.5,-744 891.5,-744 891.5,-750 885.5,-756 879.5,-756"/>
<text text-anchor="middle" x="775.5" y="-735.5" font-family="Times New Roman,serif" font-size="10.00" fill="#000033">Sunspikes\Ratelimit\Throttle\Throttler\CacheThrottler</text>
</g>
<!-- Sunspikes\\Ratelimit\\Throttle\\Factory\\ThrottlerFactory&#45;&gt;Sunspikes\\Ratelimit\\Throttle\\Throttler\\CacheThrottler -->
<g id="edge32" class="edge"><title>Sunspikes\\Ratelimit\\Throttle\\Factory\\ThrottlerFactory&#45;&gt;Sunspikes\\Ratelimit\\Throttle\\Throttler\\CacheThrottler</title>
<path fill="none" stroke="#999999" d="M552.348,-718.94C584.91,-721.733 620.404,-724.779 653.271,-727.599"/>
<polygon fill="#999999" stroke="#999999" points="653.219,-729.702 659.377,-728.123 653.578,-725.517 653.219,-729.702"/>
</g>
<!-- Sunspikes\\Ratelimit\\Throttle\\Entity\\Data&#45;&gt;is_null -->
<g id="edge25" class="edge"><title>Sunspikes\\Ratelimit\\Throttle\\Entity\\Data&#45;&gt;is_null</title>
<path fill="none" stroke="#999999" d="M865.256,-657.49C937.04,-661.93 1034.06,-667.932 1083.75,-671.005"/>
<polygon fill="#999999" stroke="#999999" points="1083.74,-673.108 1089.86,-671.383 1084,-668.916 1083.74,-673.108"/>
</g>
<!-- sha1 -->
<g id="node31" class="node"><title>sha1</title>
<path fill="#9999cc" stroke="black" d="M1132,-648C1132,-648 1102,-648 1102,-648 1096,-648 1090,-642 1090,-636 1090,-636 1090,-624 1090,-624 1090,-618 1096,-612 1102,-612 1102,-612 1132,-612 1132,-612 1138,-612 1144,-618 1144,-624 1144,-624 1144,-636 1144,-636 1144,-642 1138,-648 1132,-648"/>
<text text-anchor="middle" x="1117" y="-627.5" font-family="Times New Roman,serif" font-size="10.00" fill="#000033">sha1</text>
</g>
<!-- Sunspikes\\Ratelimit\\Throttle\\Entity\\Data&#45;&gt;sha1 -->
<g id="edge26" class="edge"><title>Sunspikes\\Ratelimit\\Throttle\\Entity\\Data&#45;&gt;sha1</title>
<path fill="none" stroke="#999999" d="M865.256,-646.248C937.04,-641.597 1034.06,-635.31 1083.75,-632.09"/>
<polygon fill="#999999" stroke="#999999" points="1084,-634.178 1089.86,-631.694 1083.73,-629.987 1084,-634.178"/>
</g>
<!-- Sunspikes\\Ratelimit\\Throttle\\Factory\\FactoryInterface -->
<g id="node32" class="node"><title>Sunspikes\\Ratelimit\\Throttle\\Factory\\FactoryInterface</title>
<path fill="#9999cc" stroke="black" d="M540,-856C540,-856 331,-856 331,-856 325,-856 319,-850 319,-844 319,-844 319,-832 319,-832 319,-826 325,-820 331,-820 331,-820 540,-820 540,-820 546,-820 552,-826 552,-832 552,-832 552,-844 552,-844 552,-850 546,-856 540,-856"/>
<text text-anchor="middle" x="435.5" y="-835.5" font-family="Times New Roman,serif" font-size="10.00" fill="#000033">Sunspikes\Ratelimit\Throttle\Factory\FactoryInterface</text>
</g>
<!-- Sunspikes\\Ratelimit\\Throttle\\Factory\\FactoryInterface&#45;&gt;Sunspikes\\Ratelimit\\Cache\\Adapter\\CacheAdapterInterface -->
<g id="edge28" class="edge"><title>Sunspikes\\Ratelimit\\Throttle\\Factory\\FactoryInterface&#45;&gt;Sunspikes\\Ratelimit\\Cache\\Adapter\\CacheAdapterInterface</title>
<path fill="none" stroke="#999999" d="M552.153,-820.98C672.861,-803.215 861.693,-775.426 987.115,-756.968"/>
<polygon fill="#999999" stroke="#999999" points="987.782,-758.992 993.412,-756.041 987.17,-754.837 987.782,-758.992"/>
</g>
<!-- Sunspikes\\Ratelimit\\Throttle\\Factory\\FactoryInterface&#45;&gt;Sunspikes\\Ratelimit\\Throttle\\Entity\\Data -->
<g id="edge27" class="edge"><title>Sunspikes\\Ratelimit\\Throttle\\Factory\\FactoryInterface&#45;&gt;Sunspikes\\Ratelimit\\Throttle\\Entity\\Data</title>
<path fill="none" stroke="#999999" d="M552.241,-823.725C557.369,-821.476 562.319,-818.915 567,-816 613.491,-787.053 596.902,-751.03 639,-716 661.311,-697.435 689.909,-682.896 715.078,-672.401"/>
<polygon fill="#999999" stroke="#999999" points="715.968,-674.305 720.725,-670.089 714.377,-670.419 715.968,-674.305"/>
</g>
<!-- Sunspikes\\Ratelimit\\Throttle\\Throttler\\ThrottlerInterface -->
<g id="node33" class="node"><title>Sunspikes\\Ratelimit\\Throttle\\Throttler\\ThrottlerInterface</title>
<path fill="#9999cc" stroke="black" d="M884.5,-856C884.5,-856 666.5,-856 666.5,-856 660.5,-856 654.5,-850 654.5,-844 654.5,-844 654.5,-832 654.5,-832 654.5,-826 660.5,-820 666.5,-820 666.5,-820 884.5,-820 884.5,-820 890.5,-820 896.5,-826 896.5,-832 896.5,-832 896.5,-844 896.5,-844 896.5,-850 890.5,-856 884.5,-856"/>
<text text-anchor="middle" x="775.5" y="-835.5" font-family="Times New Roman,serif" font-size="10.00" fill="#000033">Sunspikes\Ratelimit\Throttle\Throttler\ThrottlerInterface</text>
</g>
<!-- Sunspikes\\Ratelimit\\Throttle\\Factory\\FactoryInterface&#45;&gt;Sunspikes\\Ratelimit\\Throttle\\Throttler\\ThrottlerInterface -->
<g id="edge29" class="edge"><title>Sunspikes\\Ratelimit\\Throttle\\Factory\\FactoryInterface&#45;&gt;Sunspikes\\Ratelimit\\Throttle\\Throttler\\ThrottlerInterface</title>
<path fill="none" stroke="#999999" d="M552.348,-838C583.252,-838 616.797,-838 648.231,-838"/>
<polygon fill="#999999" stroke="#999999" points="648.489,-840.1 654.489,-838 648.489,-835.9 648.489,-840.1"/>
</g>
<!-- Sunspikes\\Ratelimit\\Throttle\\Throttler\\CacheThrottler&#45;&gt;Sunspikes\\Ratelimit\\Cache\\Exception\\ItemNotFoundException -->
<g id="edge39" class="edge"><title>Sunspikes\\Ratelimit\\Throttle\\Throttler\\CacheThrottler&#45;&gt;Sunspikes\\Ratelimit\\Cache\\Exception\\ItemNotFoundException</title>
<path fill="none" stroke="#999999" d="M830.295,-756.064C891.788,-776.712 992.17,-810.42 1056.11,-831.888"/>
<polygon fill="#999999" stroke="#999999" points="1055.82,-834.008 1062.18,-833.927 1057.16,-830.026 1055.82,-834.008"/>
</g>
<!-- Sunspikes\\Ratelimit\\Throttle\\Throttler\\CacheThrottler&#45;&gt;Sunspikes\\Ratelimit\\Cache\\Adapter\\CacheAdapterInterface -->
<g id="edge37" class="edge"><title>Sunspikes\\Ratelimit\\Throttle\\Throttler\\CacheThrottler&#45;&gt;Sunspikes\\Ratelimit\\Cache\\Adapter\\CacheAdapterInterface</title>
<path fill="none" stroke="#999999" d="M891.913,-738C921.288,-738 953.09,-738 983.253,-738"/>
<polygon fill="#999999" stroke="#999999" points="983.263,-740.1 989.263,-738 983.263,-735.9 983.263,-740.1"/>
</g>
<!-- Sunspikes\\Ratelimit\\Throttle\\Throttler\\CacheThrottler&#45;&gt;is_null -->
<g id="edge38" class="edge"><title>Sunspikes\\Ratelimit\\Throttle\\Throttler\\CacheThrottler&#45;&gt;is_null</title>
<path fill="none" stroke="#999999" d="M870.619,-719.98C941.942,-706.325 1035.66,-688.382 1084.03,-679.121"/>
<polygon fill="#999999" stroke="#999999" points="1084.49,-681.172 1089.98,-677.981 1083.7,-677.047 1084.49,-681.172"/>
</g>
<!-- Sunspikes\\Ratelimit\\Throttle\\Hydrator\\DataHydratorInterface -->
<g id="node36" class="node"><title>Sunspikes\\Ratelimit\\Throttle\\Hydrator\\DataHydratorInterface</title>
<path fill="#9999cc" stroke="black" d="M555,-641C555,-641 316,-641 316,-641 310,-641 304,-635 304,-629 304,-629 304,-617 304,-617 304,-611 310,-605 316,-605 316,-605 555,-605 555,-605 561,-605 567,-611 567,-617 567,-617 567,-629 567,-629 567,-635 561,-641 555,-641"/>
<text text-anchor="middle" x="435.5" y="-620.5" font-family="Times New Roman,serif" font-size="10.00" fill="#000033">Sunspikes\Ratelimit\Throttle\Hydrator\DataHydratorInterface</text>
</g>
<!-- Sunspikes\\Ratelimit\\Throttle\\Hydrator\\DataHydratorInterface&#45;&gt;Sunspikes\\Ratelimit\\Throttle\\Entity\\Data -->
<g id="edge35" class="edge"><title>Sunspikes\\Ratelimit\\Throttle\\Hydrator\\DataHydratorInterface&#45;&gt;Sunspikes\\Ratelimit\\Throttle\\Entity\\Data</title>
<path fill="none" stroke="#999999" d="M567.18,-634.212C604.76,-637.436 645.009,-640.89 679.951,-643.888"/>
<polygon fill="#999999" stroke="#999999" points="679.803,-645.983 685.96,-644.403 680.162,-641.798 679.803,-645.983"/>
</g>
</g>
</svg>
