<?xml version="1.0" encoding="UTF-8" standalone="no"?>
<!DOCTYPE svg PUBLIC "-//W3C//DTD SVG 1.1//EN"
 "http://www.w3.org/Graphics/SVG/1.1/DTD/svg11.dtd">
<!-- Generated by graphviz version 2.38.0 (20140413.2041)
 -->
<!-- Title: G Pages: 1 -->
<svg width="1558pt" height="945pt"
 viewBox="0.00 0.00 1558.00 945.00" xmlns="http://www.w3.org/2000/svg" xmlns:xlink="http://www.w3.org/1999/xlink">
<g id="graph0" class="graph" transform="scale(1 1) rotate(0) translate(4 941)">
<title>G</title>
<polygon fill="white" stroke="none" points="-4,4 -4,-941 1554,-941 1554,4 -4,4"/>
<text text-anchor="middle" x="775" y="-6.6" font-family="Times New Roman,serif" font-size="8.00">PhpDependencyAnalysis by Marco Muths (v0.5.3)</text>
<!-- Sunspikes\\Ratelimit\\Cache\\Adapter\\AbstractCacheAdapter -->
<g id="node1" class="node"><title>Sunspikes\\Ratelimit\\Cache\\Adapter\\AbstractCacheAdapter</title>
<path fill="#9999cc" stroke="black" d="M757,-662C757,-662 526,-662 526,-662 520,-662 514,-656 514,-650 514,-650 514,-638 514,-638 514,-632 520,-626 526,-626 526,-626 757,-626 757,-626 763,-626 769,-632 769,-638 769,-638 769,-650 769,-650 769,-656 763,-662 757,-662"/>
<text text-anchor="middle" x="641.5" y="-641.5" font-family="Times New Roman,serif" font-size="10.00" fill="#000033">Sunspikes\Ratelimit\Cache\Adapter\AbstractCacheAdapter</text>
</g>
<!-- Sunspikes\\Ratelimit\\Cache\\Adapter\\CacheAdapterInterface -->
<g id="node2" class="node"><title>Sunspikes\\Ratelimit\\Cache\\Adapter\\CacheAdapterInterface</title>
<path fill="#9999cc" stroke="black" d="M1097,-771C1097,-771 866,-771 866,-771 860,-771 854,-765 854,-759 854,-759 854,-747 854,-747 854,-741 860,-735 866,-735 866,-735 1097,-735 1097,-735 1103,-735 1109,-741 1109,-747 1109,-747 1109,-759 1109,-759 1109,-765 1103,-771 1097,-771"/>
<text text-anchor="middle" x="981.5" y="-750.5" font-family="Times New Roman,serif" font-size="10.00" fill="#000033">Sunspikes\Ratelimit\Cache\Adapter\CacheAdapterInterface</text>
</g>
<!-- Sunspikes\\Ratelimit\\Cache\\Adapter\\AbstractCacheAdapter&#45;&gt;Sunspikes\\Ratelimit\\Cache\\Adapter\\CacheAdapterInterface -->
<g id="edge1" class="edge"><title>Sunspikes\\Ratelimit\\Cache\\Adapter\\AbstractCacheAdapter&#45;&gt;Sunspikes\\Ratelimit\\Cache\\Adapter\\CacheAdapterInterface</title>
<path fill="none" stroke="#999999" stroke-dasharray="5,2" d="M764.11,-662.054C767.135,-663.285 770.105,-664.599 773,-666 811.807,-684.778 806.137,-712.339 845,-731 846.088,-731.522 847.185,-732.032 848.292,-732.531"/>
<polygon fill="#999999" stroke="#999999" points="847.556,-734.5 853.898,-734.926 849.206,-730.638 847.556,-734.5"/>
</g>
<!-- Sunspikes\\Ratelimit\\Cache\\Exception\\ItemNotFoundException -->
<g id="node3" class="node"><title>Sunspikes\\Ratelimit\\Cache\\Exception\\ItemNotFoundException</title>
<path fill="#9999cc" stroke="black" d="M1102.5,-670C1102.5,-670 860.5,-670 860.5,-670 854.5,-670 848.5,-664 848.5,-658 848.5,-658 848.5,-646 848.5,-646 848.5,-640 854.5,-634 860.5,-634 860.5,-634 1102.5,-634 1102.5,-634 1108.5,-634 1114.5,-640 1114.5,-646 1114.5,-646 1114.5,-658 1114.5,-658 1114.5,-664 1108.5,-670 1102.5,-670"/>
<text text-anchor="middle" x="981.5" y="-649.5" font-family="Times New Roman,serif" font-size="10.00" fill="#000033">Sunspikes\Ratelimit\Cache\Exception\ItemNotFoundException</text>
</g>
<!-- Sunspikes\\Ratelimit\\Cache\\Adapter\\AbstractCacheAdapter&#45;&gt;Sunspikes\\Ratelimit\\Cache\\Exception\\ItemNotFoundException -->
<g id="edge2" class="edge"><title>Sunspikes\\Ratelimit\\Cache\\Adapter\\AbstractCacheAdapter&#45;&gt;Sunspikes\\Ratelimit\\Cache\\Exception\\ItemNotFoundException</title>
<path fill="none" stroke="#999999" d="M769.32,-647.002C793.151,-647.566 818.178,-648.158 842.334,-648.73"/>
<polygon fill="#999999" stroke="#999999" points="842.407,-650.832 848.455,-648.875 842.507,-646.633 842.407,-650.832"/>
</g>
<!-- Sunspikes\\Ratelimit\\Cache\\Exception\\CacheException -->
<g id="node6" class="node"><title>Sunspikes\\Ratelimit\\Cache\\Exception\\CacheException</title>
<path fill="#9999cc" stroke="black" d="M1410,-397C1410,-397 1202,-397 1202,-397 1196,-397 1190,-391 1190,-385 1190,-385 1190,-373 1190,-373 1190,-367 1196,-361 1202,-361 1202,-361 1410,-361 1410,-361 1416,-361 1422,-367 1422,-373 1422,-373 1422,-385 1422,-385 1422,-391 1416,-397 1410,-397"/>
<text text-anchor="middle" x="1306" y="-376.5" font-family="Times New Roman,serif" font-size="10.00" fill="#000033">Sunspikes\Ratelimit\Cache\Exception\CacheException</text>
</g>
<!-- Sunspikes\\Ratelimit\\Cache\\Exception\\ItemNotFoundException&#45;&gt;Sunspikes\\Ratelimit\\Cache\\Exception\\CacheException -->
<g id="edge8" class="edge"><title>Sunspikes\\Ratelimit\\Cache\\Exception\\ItemNotFoundException&#45;&gt;Sunspikes\\Ratelimit\\Cache\\Exception\\CacheException</title>
<path fill="none" stroke="#999999" stroke-dasharray="5,2" d="M1078.75,-633.95C1092.56,-629.062 1106.1,-622.861 1118,-615 1203.3,-558.667 1267.4,-450.691 1292.91,-402.839"/>
<polygon fill="#999999" stroke="#999999" points="1294.89,-403.595 1295.83,-397.309 1291.17,-401.635 1294.89,-403.595"/>
</g>
<!-- Sunspikes\\Ratelimit\\Cache\\Adapter\\DesarrollaCacheAdapter -->
<g id="node4" class="node"><title>Sunspikes\\Ratelimit\\Cache\\Adapter\\DesarrollaCacheAdapter</title>
<path fill="#9999cc" stroke="black" d="M426,-720C426,-720 190,-720 190,-720 184,-720 178,-714 178,-708 178,-708 178,-696 178,-696 178,-690 184,-684 190,-684 190,-684 426,-684 426,-684 432,-684 438,-690 438,-696 438,-696 438,-708 438,-708 438,-714 432,-720 426,-720"/>
<text text-anchor="middle" x="308" y="-699.5" font-family="Times New Roman,serif" font-size="10.00" fill="#000033">Sunspikes\Ratelimit\Cache\Adapter\DesarrollaCacheAdapter</text>
</g>
<!-- Sunspikes\\Ratelimit\\Cache\\Adapter\\DesarrollaCacheAdapter&#45;&gt;Sunspikes\\Ratelimit\\Cache\\Adapter\\AbstractCacheAdapter -->
<g id="edge3" class="edge"><title>Sunspikes\\Ratelimit\\Cache\\Adapter\\DesarrollaCacheAdapter&#45;&gt;Sunspikes\\Ratelimit\\Cache\\Adapter\\AbstractCacheAdapter</title>
<path fill="none" stroke="#999999" stroke-dasharray="5,2" d="M408.389,-683.992C440.775,-678.179 476.906,-671.753 510,-666 515.486,-665.046 521.102,-664.076 526.776,-663.101"/>
<polygon fill="#999999" stroke="#999999" points="527.393,-665.126 532.951,-662.041 526.683,-660.986 527.393,-665.126"/>
</g>
<!-- Desarrolla2\\Cache\\CacheInterface -->
<g id="node5" class="node"><title>Desarrolla2\\Cache\\CacheInterface</title>
<path fill="#9999cc" stroke="black" d="M705.5,-705C705.5,-705 577.5,-705 577.5,-705 571.5,-705 565.5,-699 565.5,-693 565.5,-693 565.5,-681 565.5,-681 565.5,-675 571.5,-669 577.5,-669 577.5,-669 705.5,-669 705.5,-669 711.5,-669 717.5,-675 717.5,-681 717.5,-681 717.5,-693 717.5,-693 717.5,-699 711.5,-705 705.5,-705"/>
<text text-anchor="middle" x="641.5" y="-684.5" font-family="Times New Roman,serif" font-size="10.00" fill="#000033">Desarrolla2\Cache\CacheInterface</text>
</g>
<!-- Sunspikes\\Ratelimit\\Cache\\Adapter\\DesarrollaCacheAdapter&#45;&gt;Desarrolla2\\Cache\\CacheInterface -->
<g id="edge4" class="edge"><title>Sunspikes\\Ratelimit\\Cache\\Adapter\\DesarrollaCacheAdapter&#45;&gt;Desarrolla2\\Cache\\CacheInterface</title>
<path fill="none" stroke="#999999" d="M438.116,-696.158C478.845,-694.315 522.681,-692.331 559.107,-690.683"/>
<polygon fill="#999999" stroke="#999999" points="559.453,-692.77 565.352,-690.4 559.263,-688.574 559.453,-692.77"/>
</g>
<!-- Exception -->
<g id="node7" class="node"><title>Exception</title>
<path fill="#9999cc" stroke="black" d="M1538,-397C1538,-397 1506,-397 1506,-397 1500,-397 1494,-391 1494,-385 1494,-385 1494,-373 1494,-373 1494,-367 1500,-361 1506,-361 1506,-361 1538,-361 1538,-361 1544,-361 1550,-367 1550,-373 1550,-373 1550,-385 1550,-385 1550,-391 1544,-397 1538,-397"/>
<text text-anchor="middle" x="1522" y="-376.5" font-family="Times New Roman,serif" font-size="10.00" fill="#000033">Exception</text>
</g>
<!-- Sunspikes\\Ratelimit\\Cache\\Exception\\CacheException&#45;&gt;Exception -->
<g id="edge5" class="edge"><title>Sunspikes\\Ratelimit\\Cache\\Exception\\CacheException&#45;&gt;Exception</title>
<path fill="none" stroke="#999999" stroke-dasharray="5,2" d="M1422.14,-379C1446.11,-379 1469.53,-379 1487.55,-379"/>
<polygon fill="#999999" stroke="#999999" points="1487.94,-381.1 1493.94,-379 1487.94,-376.9 1487.94,-381.1"/>
</g>
<!-- Sunspikes\\Ratelimit\\Cache\\Exception\\DriverNotFoundException -->
<g id="node8" class="node"><title>Sunspikes\\Ratelimit\\Cache\\Exception\\DriverNotFoundException</title>
<path fill="#9999cc" stroke="black" d="M1106,-397C1106,-397 857,-397 857,-397 851,-397 845,-391 845,-385 845,-385 845,-373 845,-373 845,-367 851,-361 857,-361 857,-361 1106,-361 1106,-361 1112,-361 1118,-367 1118,-373 1118,-373 1118,-385 1118,-385 1118,-391 1112,-397 1106,-397"/>
<text text-anchor="middle" x="981.5" y="-376.5" font-family="Times New Roman,serif" font-size="10.00" fill="#000033">Sunspikes\Ratelimit\Cache\Exception\DriverNotFoundException</text>
</g>
<!-- Sunspikes\\Ratelimit\\Cache\\Exception\\DriverNotFoundException&#45;&gt;Sunspikes\\Ratelimit\\Cache\\Exception\\CacheException -->
<g id="edge6" class="edge"><title>Sunspikes\\Ratelimit\\Cache\\Exception\\DriverNotFoundException&#45;&gt;Sunspikes\\Ratelimit\\Cache\\Exception\\CacheException</title>
<path fill="none" stroke="#999999" stroke-dasharray="5,2" d="M1118.33,-379C1140.13,-379 1162.56,-379 1183.97,-379"/>
<polygon fill="#999999" stroke="#999999" points="1183.98,-381.1 1189.98,-379 1183.98,-376.9 1183.98,-381.1"/>
</g>
<!-- Sunspikes\\Ratelimit\\Cache\\Exception\\InvalidConfigException -->
<g id="node9" class="node"><title>Sunspikes\\Ratelimit\\Cache\\Exception\\InvalidConfigException</title>
<path fill="#9999cc" stroke="black" d="M1100.5,-354C1100.5,-354 862.5,-354 862.5,-354 856.5,-354 850.5,-348 850.5,-342 850.5,-342 850.5,-330 850.5,-330 850.5,-324 856.5,-318 862.5,-318 862.5,-318 1100.5,-318 1100.5,-318 1106.5,-318 1112.5,-324 1112.5,-330 1112.5,-330 1112.5,-342 1112.5,-342 1112.5,-348 1106.5,-354 1100.5,-354"/>
<text text-anchor="middle" x="981.5" y="-333.5" font-family="Times New Roman,serif" font-size="10.00" fill="#000033">Sunspikes\Ratelimit\Cache\Exception\InvalidConfigException</text>
</g>
<!-- Sunspikes\\Ratelimit\\Cache\\Exception\\InvalidConfigException&#45;&gt;Sunspikes\\Ratelimit\\Cache\\Exception\\CacheException -->
<g id="edge7" class="edge"><title>Sunspikes\\Ratelimit\\Cache\\Exception\\InvalidConfigException&#45;&gt;Sunspikes\\Ratelimit\\Cache\\Exception\\CacheException</title>
<path fill="none" stroke="#999999" stroke-dasharray="5,2" d="M1112.74,-353.366C1136.17,-356.49 1160.51,-359.735 1183.67,-362.823"/>
<polygon fill="#999999" stroke="#999999" points="1183.63,-364.936 1189.85,-363.647 1184.18,-360.773 1183.63,-364.936"/>
</g>
<!-- Sunspikes\\Ratelimit\\Cache\\Factory\\DesarrollaCacheFactory -->
<g id="node10" class="node"><title>Sunspikes\\Ratelimit\\Cache\\Factory\\DesarrollaCacheFactory</title>
<path fill="#9999cc" stroke="black" d="M757.5,-375C757.5,-375 525.5,-375 525.5,-375 519.5,-375 513.5,-369 513.5,-363 513.5,-363 513.5,-351 513.5,-351 513.5,-345 519.5,-339 525.5,-339 525.5,-339 757.5,-339 757.5,-339 763.5,-339 769.5,-345 769.5,-351 769.5,-351 769.5,-363 769.5,-363 769.5,-369 763.5,-375 757.5,-375"/>
<text text-anchor="middle" x="641.5" y="-354.5" font-family="Times New Roman,serif" font-size="10.00" fill="#000033">Sunspikes\Ratelimit\Cache\Factory\DesarrollaCacheFactory</text>
</g>
<!-- Sunspikes\\Ratelimit\\Cache\\Factory\\DesarrollaCacheFactory&#45;&gt;Sunspikes\\Ratelimit\\Cache\\Exception\\DriverNotFoundException -->
<g id="edge15" class="edge"><title>Sunspikes\\Ratelimit\\Cache\\Factory\\DesarrollaCacheFactory&#45;&gt;Sunspikes\\Ratelimit\\Cache\\Exception\\DriverNotFoundException</title>
<path fill="none" stroke="#999999" d="M769.802,-365.286C792.305,-366.751 815.861,-368.284 838.733,-369.773"/>
<polygon fill="#999999" stroke="#999999" points="838.724,-371.876 844.847,-370.171 838.997,-367.685 838.724,-371.876"/>
</g>
<!-- Sunspikes\\Ratelimit\\Cache\\Factory\\DesarrollaCacheFactory&#45;&gt;Sunspikes\\Ratelimit\\Cache\\Exception\\InvalidConfigException -->
<g id="edge12" class="edge"><title>Sunspikes\\Ratelimit\\Cache\\Factory\\DesarrollaCacheFactory&#45;&gt;Sunspikes\\Ratelimit\\Cache\\Exception\\InvalidConfigException</title>
<path fill="none" stroke="#999999" d="M769.802,-349.091C794.04,-347.585 819.499,-346.003 844.01,-344.48"/>
<polygon fill="#999999" stroke="#999999" points="844.361,-346.562 850.219,-344.094 844.101,-342.371 844.361,-346.562"/>
</g>
<!-- Sunspikes\\Ratelimit\\Cache\\Factory\\FactoryInterface -->
<g id="node11" class="node"><title>Sunspikes\\Ratelimit\\Cache\\Factory\\FactoryInterface</title>
<path fill="#9999cc" stroke="black" d="M1082.5,-311C1082.5,-311 880.5,-311 880.5,-311 874.5,-311 868.5,-305 868.5,-299 868.5,-299 868.5,-287 868.5,-287 868.5,-281 874.5,-275 880.5,-275 880.5,-275 1082.5,-275 1082.5,-275 1088.5,-275 1094.5,-281 1094.5,-287 1094.5,-287 1094.5,-299 1094.5,-299 1094.5,-305 1088.5,-311 1082.5,-311"/>
<text text-anchor="middle" x="981.5" y="-290.5" font-family="Times New Roman,serif" font-size="10.00" fill="#000033">Sunspikes\Ratelimit\Cache\Factory\FactoryInterface</text>
</g>
<!-- Sunspikes\\Ratelimit\\Cache\\Factory\\DesarrollaCacheFactory&#45;&gt;Sunspikes\\Ratelimit\\Cache\\Factory\\FactoryInterface -->
<g id="edge9" class="edge"><title>Sunspikes\\Ratelimit\\Cache\\Factory\\DesarrollaCacheFactory&#45;&gt;Sunspikes\\Ratelimit\\Cache\\Factory\\FactoryInterface</title>
<path fill="none" stroke="#999999" stroke-dasharray="5,2" d="M725.591,-338.915C762.144,-331.18 805.633,-322.275 845,-315 850.712,-313.944 856.565,-312.89 862.481,-311.847"/>
<polygon fill="#999999" stroke="#999999" points="862.866,-313.912 868.413,-310.808 862.141,-309.775 862.866,-313.912"/>
</g>
<!-- Desarrolla2\\Cache\\Cache -->
<g id="node12" class="node"><title>Desarrolla2\\Cache\\Cache</title>
<path fill="#9999cc" stroke="black" d="M1028,-268C1028,-268 935,-268 935,-268 929,-268 923,-262 923,-256 923,-256 923,-244 923,-244 923,-238 929,-232 935,-232 935,-232 1028,-232 1028,-232 1034,-232 1040,-238 1040,-244 1040,-244 1040,-256 1040,-256 1040,-262 1034,-268 1028,-268"/>
<text text-anchor="middle" x="981.5" y="-247.5" font-family="Times New Roman,serif" font-size="10.00" fill="#000033">Desarrolla2\Cache\Cache</text>
</g>
<!-- Sunspikes\\Ratelimit\\Cache\\Factory\\DesarrollaCacheFactory&#45;&gt;Desarrolla2\\Cache\\Cache -->
<g id="edge10" class="edge"><title>Sunspikes\\Ratelimit\\Cache\\Factory\\DesarrollaCacheFactory&#45;&gt;Desarrolla2\\Cache\\Cache</title>
<path fill="none" stroke="#999999" d="M678.147,-338.986C717.883,-319.636 784.525,-289.337 845,-272 868.028,-265.398 893.863,-260.589 916.749,-257.183"/>
<polygon fill="#999999" stroke="#999999" points="917.174,-259.243 922.81,-256.303 916.571,-255.087 917.174,-259.243"/>
</g>
<!-- is_null -->
<g id="node13" class="node"><title>is_null</title>
<path fill="#9999cc" stroke="black" d="M1321,-699C1321,-699 1291,-699 1291,-699 1285,-699 1279,-693 1279,-687 1279,-687 1279,-675 1279,-675 1279,-669 1285,-663 1291,-663 1291,-663 1321,-663 1321,-663 1327,-663 1333,-669 1333,-675 1333,-675 1333,-687 1333,-687 1333,-693 1327,-699 1321,-699"/>
<text text-anchor="middle" x="1306" y="-678.5" font-family="Times New Roman,serif" font-size="10.00" fill="#000033">is_null</text>
</g>
<!-- Sunspikes\\Ratelimit\\Cache\\Factory\\DesarrollaCacheFactory&#45;&gt;is_null -->
<g id="edge11" class="edge"><title>Sunspikes\\Ratelimit\\Cache\\Factory\\DesarrollaCacheFactory&#45;&gt;is_null</title>
<path fill="none" stroke="#999999" d="M650.119,-375.02C671.963,-424.094 740.053,-560.105 845,-615 898.849,-643.167 1058,-621.324 1118,-631 1173.2,-639.902 1235.63,-658.352 1272.58,-670.179"/>
<polygon fill="#999999" stroke="#999999" points="1272.38,-672.32 1278.74,-672.162 1273.67,-668.322 1272.38,-672.32"/>
</g>
<!-- ucfirst -->
<g id="node14" class="node"><title>ucfirst</title>
<path fill="#9999cc" stroke="black" d="M996.5,-225C996.5,-225 966.5,-225 966.5,-225 960.5,-225 954.5,-219 954.5,-213 954.5,-213 954.5,-201 954.5,-201 954.5,-195 960.5,-189 966.5,-189 966.5,-189 996.5,-189 996.5,-189 1002.5,-189 1008.5,-195 1008.5,-201 1008.5,-201 1008.5,-213 1008.5,-213 1008.5,-219 1002.5,-225 996.5,-225"/>
<text text-anchor="middle" x="981.5" y="-204.5" font-family="Times New Roman,serif" font-size="10.00" fill="#000033">ucfirst</text>
</g>
<!-- Sunspikes\\Ratelimit\\Cache\\Factory\\DesarrollaCacheFactory&#45;&gt;ucfirst -->
<g id="edge13" class="edge"><title>Sunspikes\\Ratelimit\\Cache\\Factory\\DesarrollaCacheFactory&#45;&gt;ucfirst</title>
<path fill="none" stroke="#999999" d="M664.274,-338.988C699.738,-310.678 773.247,-256.198 845,-229 878.874,-216.16 920.293,-210.811 948.355,-208.585"/>
<polygon fill="#999999" stroke="#999999" points="948.655,-210.669 954.483,-208.132 948.345,-206.48 948.655,-210.669"/>
</g>
<!-- method_exists -->
<g id="node15" class="node"><title>method_exists</title>
<path fill="#9999cc" stroke="black" d="M1006.5,-182C1006.5,-182 956.5,-182 956.5,-182 950.5,-182 944.5,-176 944.5,-170 944.5,-170 944.5,-158 944.5,-158 944.5,-152 950.5,-146 956.5,-146 956.5,-146 1006.5,-146 1006.5,-146 1012.5,-146 1018.5,-152 1018.5,-158 1018.5,-158 1018.5,-170 1018.5,-170 1018.5,-176 1012.5,-182 1006.5,-182"/>
<text text-anchor="middle" x="981.5" y="-161.5" font-family="Times New Roman,serif" font-size="10.00" fill="#000033">method_exists</text>
</g>
<!-- Sunspikes\\Ratelimit\\Cache\\Factory\\DesarrollaCacheFactory&#45;&gt;method_exists -->
<g id="edge14" class="edge"><title>Sunspikes\\Ratelimit\\Cache\\Factory\\DesarrollaCacheFactory&#45;&gt;method_exists</title>
<path fill="none" stroke="#999999" d="M657.628,-338.887C688.658,-303.086 763.482,-223.495 845,-186 874.389,-172.482 910.706,-167.114 938.342,-165.054"/>
<polygon fill="#999999" stroke="#999999" points="938.611,-167.141 944.456,-164.641 938.328,-162.95 938.611,-167.141"/>
</g>
<!-- Desarrolla2\\Cache\\Adapter\\NotCache -->
<g id="node16" class="node"><title>Desarrolla2\\Cache\\Adapter\\NotCache</title>
<path fill="#9999cc" stroke="black" d="M1053.5,-139C1053.5,-139 909.5,-139 909.5,-139 903.5,-139 897.5,-133 897.5,-127 897.5,-127 897.5,-115 897.5,-115 897.5,-109 903.5,-103 909.5,-103 909.5,-103 1053.5,-103 1053.5,-103 1059.5,-103 1065.5,-109 1065.5,-115 1065.5,-115 1065.5,-127 1065.5,-127 1065.5,-133 1059.5,-139 1053.5,-139"/>
<text text-anchor="middle" x="981.5" y="-118.5" font-family="Times New Roman,serif" font-size="10.00" fill="#000033">Desarrolla2\Cache\Adapter\NotCache</text>
</g>
<!-- Sunspikes\\Ratelimit\\Cache\\Factory\\DesarrollaCacheFactory&#45;&gt;Desarrolla2\\Cache\\Adapter\\NotCache -->
<g id="edge16" class="edge"><title>Sunspikes\\Ratelimit\\Cache\\Factory\\DesarrollaCacheFactory&#45;&gt;Desarrolla2\\Cache\\Adapter\\NotCache</title>
<path fill="none" stroke="#999999" d="M653.541,-338.906C680.398,-296.639 753.689,-191.351 845,-143 859.256,-135.451 875.446,-130.356 891.551,-126.945"/>
<polygon fill="#999999" stroke="#999999" points="892.004,-128.996 897.477,-125.763 891.182,-124.877 892.004,-128.996"/>
</g>
<!-- Desarrolla2\\Cache\\Adapter\\File -->
<g id="node17" class="node"><title>Desarrolla2\\Cache\\Adapter\\File</title>
<path fill="#9999cc" stroke="black" d="M1041,-96C1041,-96 922,-96 922,-96 916,-96 910,-90 910,-84 910,-84 910,-72 910,-72 910,-66 916,-60 922,-60 922,-60 1041,-60 1041,-60 1047,-60 1053,-66 1053,-72 1053,-72 1053,-84 1053,-84 1053,-90 1047,-96 1041,-96"/>
<text text-anchor="middle" x="981.5" y="-75.5" font-family="Times New Roman,serif" font-size="10.00" fill="#000033">Desarrolla2\Cache\Adapter\File</text>
</g>
<!-- Sunspikes\\Ratelimit\\Cache\\Factory\\DesarrollaCacheFactory&#45;&gt;Desarrolla2\\Cache\\Adapter\\File -->
<g id="edge17" class="edge"><title>Sunspikes\\Ratelimit\\Cache\\Factory\\DesarrollaCacheFactory&#45;&gt;Desarrolla2\\Cache\\Adapter\\File</title>
<path fill="none" stroke="#999999" d="M650.78,-338.916C673.813,-290.874 743.678,-159.667 845,-100 862.663,-89.5985 883.753,-83.703 903.972,-80.4597"/>
<polygon fill="#999999" stroke="#999999" points="904.304,-82.5336 909.931,-79.575 903.687,-78.3791 904.304,-82.5336"/>
</g>
<!-- Desarrolla2\\Cache\\Adapter\\Apc -->
<g id="node18" class="node"><title>Desarrolla2\\Cache\\Adapter\\Apc</title>
<path fill="#9999cc" stroke="black" d="M1042.5,-53C1042.5,-53 920.5,-53 920.5,-53 914.5,-53 908.5,-47 908.5,-41 908.5,-41 908.5,-29 908.5,-29 908.5,-23 914.5,-17 920.5,-17 920.5,-17 1042.5,-17 1042.5,-17 1048.5,-17 1054.5,-23 1054.5,-29 1054.5,-29 1054.5,-41 1054.5,-41 1054.5,-47 1048.5,-53 1042.5,-53"/>
<text text-anchor="middle" x="981.5" y="-32.5" font-family="Times New Roman,serif" font-size="10.00" fill="#000033">Desarrolla2\Cache\Adapter\Apc</text>
</g>
<!-- Sunspikes\\Ratelimit\\Cache\\Factory\\DesarrollaCacheFactory&#45;&gt;Desarrolla2\\Cache\\Adapter\\Apc -->
<g id="edge18" class="edge"><title>Sunspikes\\Ratelimit\\Cache\\Factory\\DesarrollaCacheFactory&#45;&gt;Desarrolla2\\Cache\\Adapter\\Apc</title>
<path fill="none" stroke="#999999" d="M648.856,-338.692C668.475,-285.17 733.567,-128.268 845,-57 861.921,-46.1777 882.388,-40.0968 902.23,-36.8083"/>
<polygon fill="#999999" stroke="#999999" points="902.748,-38.8538 908.364,-35.8752 902.116,-34.7016 902.748,-38.8538"/>
</g>
<!-- Desarrolla2\\Cache\\Adapter\\Memory -->
<g id="node19" class="node"><title>Desarrolla2\\Cache\\Adapter\\Memory</title>
<path fill="#9999cc" stroke="black" d="M1050.5,-612C1050.5,-612 912.5,-612 912.5,-612 906.5,-612 900.5,-606 900.5,-600 900.5,-600 900.5,-588 900.5,-588 900.5,-582 906.5,-576 912.5,-576 912.5,-576 1050.5,-576 1050.5,-576 1056.5,-576 1062.5,-582 1062.5,-588 1062.5,-588 1062.5,-600 1062.5,-600 1062.5,-606 1056.5,-612 1050.5,-612"/>
<text text-anchor="middle" x="981.5" y="-591.5" font-family="Times New Roman,serif" font-size="10.00" fill="#000033">Desarrolla2\Cache\Adapter\Memory</text>
</g>
<!-- Sunspikes\\Ratelimit\\Cache\\Factory\\DesarrollaCacheFactory&#45;&gt;Desarrolla2\\Cache\\Adapter\\Memory -->
<g id="edge19" class="edge"><title>Sunspikes\\Ratelimit\\Cache\\Factory\\DesarrollaCacheFactory&#45;&gt;Desarrolla2\\Cache\\Adapter\\Memory</title>
<path fill="none" stroke="#999999" d="M653.518,-375.179C680.326,-417.644 753.52,-523.424 845,-572 859.997,-579.964 877.143,-585.199 894.079,-588.607"/>
<polygon fill="#999999" stroke="#999999" points="894.019,-590.733 900.304,-589.782 894.798,-586.605 894.019,-590.733"/>
</g>
<!-- Desarrolla2\\Cache\\Adapter\\Mongo -->
<g id="node20" class="node"><title>Desarrolla2\\Cache\\Adapter\\Mongo</title>
<path fill="#9999cc" stroke="black" d="M1048.5,-569C1048.5,-569 914.5,-569 914.5,-569 908.5,-569 902.5,-563 902.5,-557 902.5,-557 902.5,-545 902.5,-545 902.5,-539 908.5,-533 914.5,-533 914.5,-533 1048.5,-533 1048.5,-533 1054.5,-533 1060.5,-539 1060.5,-545 1060.5,-545 1060.5,-557 1060.5,-557 1060.5,-563 1054.5,-569 1048.5,-569"/>
<text text-anchor="middle" x="981.5" y="-548.5" font-family="Times New Roman,serif" font-size="10.00" fill="#000033">Desarrolla2\Cache\Adapter\Mongo</text>
</g>
<!-- Sunspikes\\Ratelimit\\Cache\\Factory\\DesarrollaCacheFactory&#45;&gt;Desarrolla2\\Cache\\Adapter\\Mongo -->
<g id="edge20" class="edge"><title>Sunspikes\\Ratelimit\\Cache\\Factory\\DesarrollaCacheFactory&#45;&gt;Desarrolla2\\Cache\\Adapter\\Mongo</title>
<path fill="none" stroke="#999999" d="M657.603,-375.221C688.589,-411.235 763.337,-491.296 845,-529 860.941,-536.36 878.928,-541.306 896.465,-544.617"/>
<polygon fill="#999999" stroke="#999999" points="896.115,-546.688 902.391,-545.679 896.855,-542.554 896.115,-546.688"/>
</g>
<!-- Desarrolla2\\Cache\\Adapter\\MySQL -->
<g id="node21" class="node"><title>Desarrolla2\\Cache\\Adapter\\MySQL</title>
<path fill="#9999cc" stroke="black" d="M1049.5,-526C1049.5,-526 913.5,-526 913.5,-526 907.5,-526 901.5,-520 901.5,-514 901.5,-514 901.5,-502 901.5,-502 901.5,-496 907.5,-490 913.5,-490 913.5,-490 1049.5,-490 1049.5,-490 1055.5,-490 1061.5,-496 1061.5,-502 1061.5,-502 1061.5,-514 1061.5,-514 1061.5,-520 1055.5,-526 1049.5,-526"/>
<text text-anchor="middle" x="981.5" y="-505.5" font-family="Times New Roman,serif" font-size="10.00" fill="#000033">Desarrolla2\Cache\Adapter\MySQL</text>
</g>
<!-- Sunspikes\\Ratelimit\\Cache\\Factory\\DesarrollaCacheFactory&#45;&gt;Desarrolla2\\Cache\\Adapter\\MySQL -->
<g id="edge21" class="edge"><title>Sunspikes\\Ratelimit\\Cache\\Factory\\DesarrollaCacheFactory&#45;&gt;Desarrolla2\\Cache\\Adapter\\MySQL</title>
<path fill="none" stroke="#999999" d="M664.247,-375.159C699.675,-403.698 773.135,-458.614 845,-486 860.768,-492.009 878.18,-496.377 895.119,-499.552"/>
<polygon fill="#999999" stroke="#999999" points="895.057,-501.674 901.334,-500.668 895.8,-497.54 895.057,-501.674"/>
</g>
<!-- Desarrolla2\\Cache\\Adapter\\Redis -->
<g id="node22" class="node"><title>Desarrolla2\\Cache\\Adapter\\Redis</title>
<path fill="#9999cc" stroke="black" d="M1045,-483C1045,-483 918,-483 918,-483 912,-483 906,-477 906,-471 906,-471 906,-459 906,-459 906,-453 912,-447 918,-447 918,-447 1045,-447 1045,-447 1051,-447 1057,-453 1057,-459 1057,-459 1057,-471 1057,-471 1057,-477 1051,-483 1045,-483"/>
<text text-anchor="middle" x="981.5" y="-462.5" font-family="Times New Roman,serif" font-size="10.00" fill="#000033">Desarrolla2\Cache\Adapter\Redis</text>
</g>
<!-- Sunspikes\\Ratelimit\\Cache\\Factory\\DesarrollaCacheFactory&#45;&gt;Desarrolla2\\Cache\\Adapter\\Redis -->
<g id="edge22" class="edge"><title>Sunspikes\\Ratelimit\\Cache\\Factory\\DesarrollaCacheFactory&#45;&gt;Desarrolla2\\Cache\\Adapter\\Redis</title>
<path fill="none" stroke="#999999" d="M677.76,-375.065C717.429,-394.651 784.271,-425.453 845,-443 862.485,-448.052 881.596,-452.048 899.807,-455.168"/>
<polygon fill="#999999" stroke="#999999" points="899.681,-457.276 905.945,-456.193 900.372,-453.133 899.681,-457.276"/>
</g>
<!-- Desarrolla2\\Cache\\Adapter\\MemCache -->
<g id="node23" class="node"><title>Desarrolla2\\Cache\\Adapter\\MemCache</title>
<path fill="#9999cc" stroke="black" d="M1056,-440C1056,-440 907,-440 907,-440 901,-440 895,-434 895,-428 895,-428 895,-416 895,-416 895,-410 901,-404 907,-404 907,-404 1056,-404 1056,-404 1062,-404 1068,-410 1068,-416 1068,-416 1068,-428 1068,-428 1068,-434 1062,-440 1056,-440"/>
<text text-anchor="middle" x="981.5" y="-419.5" font-family="Times New Roman,serif" font-size="10.00" fill="#000033">Desarrolla2\Cache\Adapter\MemCache</text>
</g>
<!-- Sunspikes\\Ratelimit\\Cache\\Factory\\DesarrollaCacheFactory&#45;&gt;Desarrolla2\\Cache\\Adapter\\MemCache -->
<g id="edge23" class="edge"><title>Sunspikes\\Ratelimit\\Cache\\Factory\\DesarrollaCacheFactory&#45;&gt;Desarrolla2\\Cache\\Adapter\\MemCache</title>
<path fill="none" stroke="#999999" d="M723.123,-375.053C760.167,-383.108 804.728,-392.459 845,-400 859.041,-402.629 873.934,-405.233 888.512,-407.679"/>
<polygon fill="#999999" stroke="#999999" points="888.473,-409.802 894.736,-408.718 889.164,-405.659 888.473,-409.802"/>
</g>
<!-- Sunspikes\\RateLimiter -->
<g id="node24" class="node"><title>Sunspikes\\RateLimiter</title>
<path fill="#9999cc" stroke="black" d="M94,-705C94,-705 12,-705 12,-705 6,-705 0,-699 0,-693 0,-693 0,-681 0,-681 0,-675 6,-669 12,-669 12,-669 94,-669 94,-669 100,-669 106,-675 106,-681 106,-681 106,-693 106,-693 106,-699 100,-705 94,-705"/>
<text text-anchor="middle" x="53" y="-684.5" font-family="Times New Roman,serif" font-size="10.00" fill="#000033">Sunspikes\RateLimiter</text>
</g>
<!-- Sunspikes\\RateLimiter&#45;&gt;Sunspikes\\Ratelimit\\Cache\\Adapter\\DesarrollaCacheAdapter -->
<g id="edge25" class="edge"><title>Sunspikes\\RateLimiter&#45;&gt;Sunspikes\\Ratelimit\\Cache\\Adapter\\DesarrollaCacheAdapter</title>
<path fill="none" stroke="#999999" d="M106.115,-690.09C125.436,-691.235 148.346,-692.594 171.66,-693.976"/>
<polygon fill="#999999" stroke="#999999" points="171.803,-696.088 177.917,-694.347 172.052,-691.895 171.803,-696.088"/>
</g>
<!-- Sunspikes\\RateLimiter&#45;&gt;Sunspikes\\Ratelimit\\Cache\\Factory\\DesarrollaCacheFactory -->
<g id="edge24" class="edge"><title>Sunspikes\\RateLimiter&#45;&gt;Sunspikes\\Ratelimit\\Cache\\Factory\\DesarrollaCacheFactory</title>
<path fill="none" stroke="#999999" d="M106.013,-684.319C210.105,-678.914 434.448,-667.049 438,-665 551.616,-599.463 613.107,-441.438 633.11,-381.031"/>
<polygon fill="#999999" stroke="#999999" points="635.161,-381.516 635.025,-375.161 631.168,-380.214 635.161,-381.516"/>
</g>
<!-- InvalidArgumentException -->
<g id="node25" class="node"><title>InvalidArgumentException</title>
<path fill="#9999cc" stroke="black" d="M358,-662C358,-662 258,-662 258,-662 252,-662 246,-656 246,-650 246,-650 246,-638 246,-638 246,-632 252,-626 258,-626 258,-626 358,-626 358,-626 364,-626 370,-632 370,-638 370,-638 370,-650 370,-650 370,-656 364,-662 358,-662"/>
<text text-anchor="middle" x="308" y="-641.5" font-family="Times New Roman,serif" font-size="10.00" fill="#000033">InvalidArgumentException</text>
</g>
<!-- Sunspikes\\RateLimiter&#45;&gt;InvalidArgumentException -->
<g id="edge26" class="edge"><title>Sunspikes\\RateLimiter&#45;&gt;InvalidArgumentException</title>
<path fill="none" stroke="#999999" d="M106.115,-678.143C144.719,-671.581 197.658,-662.584 239.5,-655.472"/>
<polygon fill="#999999" stroke="#999999" points="240.026,-657.513 245.589,-654.437 239.322,-653.373 240.026,-657.513"/>
</g>
<!-- is_array -->
<g id="node26" class="node"><title>is_array</title>
<path fill="#9999cc" stroke="black" d="M323,-619C323,-619 293,-619 293,-619 287,-619 281,-613 281,-607 281,-607 281,-595 281,-595 281,-589 287,-583 293,-583 293,-583 323,-583 323,-583 329,-583 335,-589 335,-595 335,-595 335,-607 335,-607 335,-613 329,-619 323,-619"/>
<text text-anchor="middle" x="308" y="-598.5" font-family="Times New Roman,serif" font-size="10.00" fill="#000033">is_array</text>
</g>
<!-- Sunspikes\\RateLimiter&#45;&gt;is_array -->
<g id="edge27" class="edge"><title>Sunspikes\\RateLimiter&#45;&gt;is_array</title>
<path fill="none" stroke="#999999" d="M82.9374,-668.804C107.376,-654.25 143.766,-634.447 178,-623 209.916,-612.328 248.086,-606.64 274.588,-603.742"/>
<polygon fill="#999999" stroke="#999999" points="274.98,-605.813 280.728,-603.098 274.541,-601.636 274.98,-605.813"/>
</g>
<!-- Sunspikes\\Ratelimit\\Throttle\\Hydrator\\ArrayHydrator -->
<g id="node27" class="node"><title>Sunspikes\\Ratelimit\\Throttle\\Hydrator\\ArrayHydrator</title>
<path fill="#9999cc" stroke="black" d="M412,-900C412,-900 204,-900 204,-900 198,-900 192,-894 192,-888 192,-888 192,-876 192,-876 192,-870 198,-864 204,-864 204,-864 412,-864 412,-864 418,-864 424,-870 424,-876 424,-876 424,-888 424,-888 424,-894 418,-900 412,-900"/>
<text text-anchor="middle" x="308" y="-879.5" font-family="Times New Roman,serif" font-size="10.00" fill="#000033">Sunspikes\Ratelimit\Throttle\Hydrator\ArrayHydrator</text>
</g>
<!-- Sunspikes\\RateLimiter&#45;&gt;Sunspikes\\Ratelimit\\Throttle\\Hydrator\\ArrayHydrator -->
<g id="edge28" class="edge"><title>Sunspikes\\RateLimiter&#45;&gt;Sunspikes\\Ratelimit\\Throttle\\Hydrator\\ArrayHydrator</title>
<path fill="none" stroke="#999999" d="M62.1202,-705.081C78.6371,-739.672 119.594,-815.135 178,-853 182.809,-856.118 187.908,-858.903 193.193,-861.392"/>
<polygon fill="#999999" stroke="#999999" points="192.661,-863.454 198.996,-863.977 194.37,-859.617 192.661,-863.454"/>
</g>
<!-- is_string -->
<g id="node28" class="node"><title>is_string</title>
<path fill="#9999cc" stroke="black" d="M323,-576C323,-576 293,-576 293,-576 287,-576 281,-570 281,-564 281,-564 281,-552 281,-552 281,-546 287,-540 293,-540 293,-540 323,-540 323,-540 329,-540 335,-546 335,-552 335,-552 335,-564 335,-564 335,-570 329,-576 323,-576"/>
<text text-anchor="middle" x="308" y="-555.5" font-family="Times New Roman,serif" font-size="10.00" fill="#000033">is_string</text>
</g>
<!-- Sunspikes\\RateLimiter&#45;&gt;is_string -->
<g id="edge29" class="edge"><title>Sunspikes\\RateLimiter&#45;&gt;is_string</title>
<path fill="none" stroke="#999999" d="M69.1311,-668.85C90.6244,-644.393 132.474,-601.457 178,-580 208.727,-565.518 247.564,-560.448 274.558,-558.736"/>
<polygon fill="#999999" stroke="#999999" points="274.938,-560.818 280.811,-558.386 274.703,-556.625 274.938,-560.818"/>
</g>
<!-- Sunspikes\\Ratelimit\\Throttle\\Hydrator\\StringHydrator -->
<g id="node29" class="node"><title>Sunspikes\\Ratelimit\\Throttle\\Hydrator\\StringHydrator</title>
<path fill="#9999cc" stroke="black" d="M412.5,-850C412.5,-850 203.5,-850 203.5,-850 197.5,-850 191.5,-844 191.5,-838 191.5,-838 191.5,-826 191.5,-826 191.5,-820 197.5,-814 203.5,-814 203.5,-814 412.5,-814 412.5,-814 418.5,-814 424.5,-820 424.5,-826 424.5,-826 424.5,-838 424.5,-838 424.5,-844 418.5,-850 412.5,-850"/>
<text text-anchor="middle" x="308" y="-829.5" font-family="Times New Roman,serif" font-size="10.00" fill="#000033">Sunspikes\Ratelimit\Throttle\Hydrator\StringHydrator</text>
</g>
<!-- Sunspikes\\RateLimiter&#45;&gt;Sunspikes\\Ratelimit\\Throttle\\Hydrator\\StringHydrator -->
<g id="edge30" class="edge"><title>Sunspikes\\RateLimiter&#45;&gt;Sunspikes\\Ratelimit\\Throttle\\Hydrator\\StringHydrator</title>
<path fill="none" stroke="#999999" d="M74.7734,-705.267C98.5012,-725.472 139.087,-758.063 178,-780 199.912,-792.353 225.352,-803.263 247.82,-811.859"/>
<polygon fill="#999999" stroke="#999999" points="247.109,-813.835 253.464,-813.994 248.595,-809.907 247.109,-813.835"/>
</g>
<!-- Sunspikes\\Ratelimit\\Throttle\\Factory\\ThrottlerFactory -->
<g id="node30" class="node"><title>Sunspikes\\Ratelimit\\Throttle\\Factory\\ThrottlerFactory</title>
<path fill="#9999cc" stroke="black" d="M412.5,-777C412.5,-777 203.5,-777 203.5,-777 197.5,-777 191.5,-771 191.5,-765 191.5,-765 191.5,-753 191.5,-753 191.5,-747 197.5,-741 203.5,-741 203.5,-741 412.5,-741 412.5,-741 418.5,-741 424.5,-747 424.5,-753 424.5,-753 424.5,-765 424.5,-765 424.5,-771 418.5,-777 412.5,-777"/>
<text text-anchor="middle" x="308" y="-756.5" font-family="Times New Roman,serif" font-size="10.00" fill="#000033">Sunspikes\Ratelimit\Throttle\Factory\ThrottlerFactory</text>
</g>
<!-- Sunspikes\\RateLimiter&#45;&gt;Sunspikes\\Ratelimit\\Throttle\\Factory\\ThrottlerFactory -->
<g id="edge31" class="edge"><title>Sunspikes\\RateLimiter&#45;&gt;Sunspikes\\Ratelimit\\Throttle\\Factory\\ThrottlerFactory</title>
<path fill="none" stroke="#999999" d="M106.154,-702.272C128.293,-708.721 154.392,-716.279 178,-723 196.746,-728.337 217.048,-734.039 235.876,-739.294"/>
<polygon fill="#999999" stroke="#999999" points="235.325,-741.321 241.668,-740.91 236.453,-737.275 235.325,-741.321"/>
</g>
<!-- Sunspikes\\Ratelimit\\Throttle\\Entity\\Data -->
<g id="node31" class="node"><title>Sunspikes\\Ratelimit\\Throttle\\Entity\\Data</title>
<path fill="#9999cc" stroke="black" d="M1059,-857C1059,-857 904,-857 904,-857 898,-857 892,-851 892,-845 892,-845 892,-833 892,-833 892,-827 898,-821 904,-821 904,-821 1059,-821 1059,-821 1065,-821 1071,-827 1071,-833 1071,-833 1071,-845 1071,-845 1071,-851 1065,-857 1059,-857"/>
<text text-anchor="middle" x="981.5" y="-836.5" font-family="Times New Roman,serif" font-size="10.00" fill="#000033">Sunspikes\Ratelimit\Throttle\Entity\Data</text>
</g>
<!-- Sunspikes\\Ratelimit\\Throttle\\Hydrator\\ArrayHydrator&#45;&gt;Sunspikes\\Ratelimit\\Throttle\\Entity\\Data -->
<g id="edge43" class="edge"><title>Sunspikes\\Ratelimit\\Throttle\\Hydrator\\ArrayHydrator&#45;&gt;Sunspikes\\Ratelimit\\Throttle\\Entity\\Data</title>
<path fill="none" stroke="#999999" d="M424.22,-888.511C518.31,-892.266 654.6,-894.139 773,-882 817.293,-877.459 866.082,-867.601 905.217,-858.468"/>
<polygon fill="#999999" stroke="#999999" points="906.054,-860.429 911.413,-857.01 905.091,-856.341 906.054,-860.429"/>
</g>
<!-- Sunspikes\\Ratelimit\\Throttle\\Hydrator\\DataHydratorInterface -->
<g id="node36" class="node"><title>Sunspikes\\Ratelimit\\Throttle\\Hydrator\\DataHydratorInterface</title>
<path fill="#9999cc" stroke="black" d="M761,-879C761,-879 522,-879 522,-879 516,-879 510,-873 510,-867 510,-867 510,-855 510,-855 510,-849 516,-843 522,-843 522,-843 761,-843 761,-843 767,-843 773,-849 773,-855 773,-855 773,-867 773,-867 773,-873 767,-879 761,-879"/>
<text text-anchor="middle" x="641.5" y="-858.5" font-family="Times New Roman,serif" font-size="10.00" fill="#000033">Sunspikes\Ratelimit\Throttle\Hydrator\DataHydratorInterface</text>
</g>
<!-- Sunspikes\\Ratelimit\\Throttle\\Hydrator\\ArrayHydrator&#45;&gt;Sunspikes\\Ratelimit\\Throttle\\Hydrator\\DataHydratorInterface -->
<g id="edge41" class="edge"><title>Sunspikes\\Ratelimit\\Throttle\\Hydrator\\ArrayHydrator&#45;&gt;Sunspikes\\Ratelimit\\Throttle\\Hydrator\\DataHydratorInterface</title>
<path fill="none" stroke="#999999" stroke-dasharray="5,2" d="M424.012,-874.714C449.743,-873.084 477.278,-871.34 503.791,-869.66"/>
<polygon fill="#999999" stroke="#999999" points="503.932,-871.756 509.787,-869.28 503.667,-867.564 503.932,-871.756"/>
</g>
<!-- implode -->
<g id="node37" class="node"><title>implode</title>
<path fill="#9999cc" stroke="black" d="M656.5,-937C656.5,-937 626.5,-937 626.5,-937 620.5,-937 614.5,-931 614.5,-925 614.5,-925 614.5,-913 614.5,-913 614.5,-907 620.5,-901 626.5,-901 626.5,-901 656.5,-901 656.5,-901 662.5,-901 668.5,-907 668.5,-913 668.5,-913 668.5,-925 668.5,-925 668.5,-931 662.5,-937 656.5,-937"/>
<text text-anchor="middle" x="641.5" y="-916.5" font-family="Times New Roman,serif" font-size="10.00" fill="#000033">implode</text>
</g>
<!-- Sunspikes\\Ratelimit\\Throttle\\Hydrator\\ArrayHydrator&#45;&gt;implode -->
<g id="edge42" class="edge"><title>Sunspikes\\Ratelimit\\Throttle\\Hydrator\\ArrayHydrator&#45;&gt;implode</title>
<path fill="none" stroke="#999999" d="M424.012,-894.837C489.247,-902.118 566.086,-910.694 608.433,-915.421"/>
<polygon fill="#999999" stroke="#999999" points="608.229,-917.511 614.425,-916.09 608.695,-913.337 608.229,-917.511"/>
</g>
<!-- Sunspikes\\Ratelimit\\Throttle\\Hydrator\\StringHydrator&#45;&gt;Sunspikes\\Ratelimit\\Throttle\\Entity\\Data -->
<g id="edge46" class="edge"><title>Sunspikes\\Ratelimit\\Throttle\\Hydrator\\StringHydrator&#45;&gt;Sunspikes\\Ratelimit\\Throttle\\Entity\\Data</title>
<path fill="none" stroke="#999999" d="M424.817,-833.207C555.242,-834.567 764.726,-836.751 885.787,-838.013"/>
<polygon fill="#999999" stroke="#999999" points="885.82,-840.113 891.842,-838.076 885.864,-835.913 885.82,-840.113"/>
</g>
<!-- Sunspikes\\Ratelimit\\Throttle\\Hydrator\\StringHydrator&#45;&gt;Sunspikes\\Ratelimit\\Throttle\\Hydrator\\DataHydratorInterface -->
<g id="edge45" class="edge"><title>Sunspikes\\Ratelimit\\Throttle\\Hydrator\\StringHydrator&#45;&gt;Sunspikes\\Ratelimit\\Throttle\\Hydrator\\DataHydratorInterface</title>
<path fill="none" stroke="#999999" stroke-dasharray="5,2" d="M424.943,-842.143C450.352,-844.366 477.483,-846.739 503.625,-849.026"/>
<polygon fill="#999999" stroke="#999999" points="503.731,-851.143 509.891,-849.574 504.097,-846.959 503.731,-851.143"/>
</g>
<!-- Sunspikes\\Ratelimit\\Throttle\\Factory\\ThrottlerFactory&#45;&gt;Sunspikes\\Ratelimit\\Cache\\Adapter\\CacheAdapterInterface -->
<g id="edge39" class="edge"><title>Sunspikes\\Ratelimit\\Throttle\\Factory\\ThrottlerFactory&#45;&gt;Sunspikes\\Ratelimit\\Cache\\Adapter\\CacheAdapterInterface</title>
<path fill="none" stroke="#999999" d="M424.817,-757.965C542.42,-756.914 724.304,-755.289 847.681,-754.187"/>
<polygon fill="#999999" stroke="#999999" points="847.898,-756.285 853.879,-754.131 847.86,-752.085 847.898,-756.285"/>
</g>
<!-- Sunspikes\\Ratelimit\\Throttle\\Factory\\ThrottlerFactory&#45;&gt;Sunspikes\\Ratelimit\\Throttle\\Entity\\Data -->
<g id="edge38" class="edge"><title>Sunspikes\\Ratelimit\\Throttle\\Factory\\ThrottlerFactory&#45;&gt;Sunspikes\\Ratelimit\\Throttle\\Entity\\Data</title>
<path fill="none" stroke="#999999" d="M369.553,-777.092C409.149,-788.168 462.205,-801.593 510,-809 639.207,-829.023 790.363,-835.738 885.767,-837.958"/>
<polygon fill="#999999" stroke="#999999" points="885.924,-840.062 891.97,-838.098 886.019,-835.863 885.924,-840.062"/>
</g>
<!-- Sunspikes\\Ratelimit\\Throttle\\Factory\\FactoryInterface -->
<g id="node33" class="node"><title>Sunspikes\\Ratelimit\\Throttle\\Factory\\FactoryInterface</title>
<path fill="#9999cc" stroke="black" d="M746,-806C746,-806 537,-806 537,-806 531,-806 525,-800 525,-794 525,-794 525,-782 525,-782 525,-776 531,-770 537,-770 537,-770 746,-770 746,-770 752,-770 758,-776 758,-782 758,-782 758,-794 758,-794 758,-800 752,-806 746,-806"/>
<text text-anchor="middle" x="641.5" y="-785.5" font-family="Times New Roman,serif" font-size="10.00" fill="#000033">Sunspikes\Ratelimit\Throttle\Factory\FactoryInterface</text>
</g>
<!-- Sunspikes\\Ratelimit\\Throttle\\Factory\\ThrottlerFactory&#45;&gt;Sunspikes\\Ratelimit\\Throttle\\Factory\\FactoryInterface -->
<g id="edge37" class="edge"><title>Sunspikes\\Ratelimit\\Throttle\\Factory\\ThrottlerFactory&#45;&gt;Sunspikes\\Ratelimit\\Throttle\\Factory\\FactoryInterface</title>
<path fill="none" stroke="#999999" stroke-dasharray="5,2" d="M424.943,-769.143C455.312,-771.8 488.141,-774.671 518.801,-777.354"/>
<polygon fill="#999999" stroke="#999999" points="518.743,-779.456 524.903,-777.887 519.109,-775.272 518.743,-779.456"/>
</g>
<!-- Sunspikes\\Ratelimit\\Throttle\\Throttler\\CacheThrottler -->
<g id="node35" class="node"><title>Sunspikes\\Ratelimit\\Throttle\\Throttler\\CacheThrottler</title>
<path fill="#9999cc" stroke="black" d="M745.5,-748C745.5,-748 537.5,-748 537.5,-748 531.5,-748 525.5,-742 525.5,-736 525.5,-736 525.5,-724 525.5,-724 525.5,-718 531.5,-712 537.5,-712 537.5,-712 745.5,-712 745.5,-712 751.5,-712 757.5,-718 757.5,-724 757.5,-724 757.5,-736 757.5,-736 757.5,-742 751.5,-748 745.5,-748"/>
<text text-anchor="middle" x="641.5" y="-727.5" font-family="Times New Roman,serif" font-size="10.00" fill="#000033">Sunspikes\Ratelimit\Throttle\Throttler\CacheThrottler</text>
</g>
<!-- Sunspikes\\Ratelimit\\Throttle\\Factory\\ThrottlerFactory&#45;&gt;Sunspikes\\Ratelimit\\Throttle\\Throttler\\CacheThrottler -->
<g id="edge40" class="edge"><title>Sunspikes\\Ratelimit\\Throttle\\Factory\\ThrottlerFactory&#45;&gt;Sunspikes\\Ratelimit\\Throttle\\Throttler\\CacheThrottler</title>
<path fill="none" stroke="#999999" d="M424.943,-748.857C455.487,-746.185 488.519,-743.295 519.331,-740.6"/>
<polygon fill="#999999" stroke="#999999" points="519.668,-742.679 525.462,-740.064 519.302,-738.495 519.668,-742.679"/>
</g>
<!-- Sunspikes\\Ratelimit\\Throttle\\Entity\\Data&#45;&gt;is_null -->
<g id="edge32" class="edge"><title>Sunspikes\\Ratelimit\\Throttle\\Entity\\Data&#45;&gt;is_null</title>
<path fill="none" stroke="#999999" d="M1071.27,-830.705C1087.2,-827.511 1103.37,-823.097 1118,-817 1184.04,-789.475 1248.77,-734.354 1282,-703.405"/>
<polygon fill="#999999" stroke="#999999" points="1283.73,-704.658 1286.67,-699.02 1280.86,-701.596 1283.73,-704.658"/>
</g>
<!-- sha1 -->
<g id="node32" class="node"><title>sha1</title>
<path fill="#9999cc" stroke="black" d="M1321,-857C1321,-857 1291,-857 1291,-857 1285,-857 1279,-851 1279,-845 1279,-845 1279,-833 1279,-833 1279,-827 1285,-821 1291,-821 1291,-821 1321,-821 1321,-821 1327,-821 1333,-827 1333,-833 1333,-833 1333,-845 1333,-845 1333,-851 1327,-857 1321,-857"/>
<text text-anchor="middle" x="1306" y="-836.5" font-family="Times New Roman,serif" font-size="10.00" fill="#000033">sha1</text>
</g>
<!-- Sunspikes\\Ratelimit\\Throttle\\Entity\\Data&#45;&gt;sha1 -->
<g id="edge33" class="edge"><title>Sunspikes\\Ratelimit\\Throttle\\Entity\\Data&#45;&gt;sha1</title>
<path fill="none" stroke="#999999" d="M1071.05,-839C1137.97,-839 1226.02,-839 1272.7,-839"/>
<polygon fill="#999999" stroke="#999999" points="1272.73,-841.1 1278.73,-839 1272.73,-836.9 1272.73,-841.1"/>
</g>
<!-- Sunspikes\\Ratelimit\\Throttle\\Factory\\FactoryInterface&#45;&gt;Sunspikes\\Ratelimit\\Cache\\Adapter\\CacheAdapterInterface -->
<g id="edge35" class="edge"><title>Sunspikes\\Ratelimit\\Throttle\\Factory\\FactoryInterface&#45;&gt;Sunspikes\\Ratelimit\\Cache\\Adapter\\CacheAdapterInterface</title>
<path fill="none" stroke="#999999" d="M758.348,-776.004C787.072,-773.03 818.077,-769.819 847.548,-766.767"/>
<polygon fill="#999999" stroke="#999999" points="848.06,-768.825 853.812,-766.119 847.628,-764.648 848.06,-768.825"/>
</g>
<!-- Sunspikes\\Ratelimit\\Throttle\\Factory\\FactoryInterface&#45;&gt;Sunspikes\\Ratelimit\\Throttle\\Entity\\Data -->
<g id="edge34" class="edge"><title>Sunspikes\\Ratelimit\\Throttle\\Factory\\FactoryInterface&#45;&gt;Sunspikes\\Ratelimit\\Throttle\\Entity\\Data</title>
<path fill="none" stroke="#999999" d="M758.348,-805.48C799.797,-811.734 845.995,-818.705 885.481,-824.663"/>
<polygon fill="#999999" stroke="#999999" points="885.513,-826.791 891.759,-825.61 886.139,-822.638 885.513,-826.791"/>
</g>
<!-- Sunspikes\\Ratelimit\\Throttle\\Throttler\\ThrottlerInterface -->
<g id="node34" class="node"><title>Sunspikes\\Ratelimit\\Throttle\\Throttler\\ThrottlerInterface</title>
<path fill="#9999cc" stroke="black" d="M1090.5,-814C1090.5,-814 872.5,-814 872.5,-814 866.5,-814 860.5,-808 860.5,-802 860.5,-802 860.5,-790 860.5,-790 860.5,-784 866.5,-778 872.5,-778 872.5,-778 1090.5,-778 1090.5,-778 1096.5,-778 1102.5,-784 1102.5,-790 1102.5,-790 1102.5,-802 1102.5,-802 1102.5,-808 1096.5,-814 1090.5,-814"/>
<text text-anchor="middle" x="981.5" y="-793.5" font-family="Times New Roman,serif" font-size="10.00" fill="#000033">Sunspikes\Ratelimit\Throttle\Throttler\ThrottlerInterface</text>
</g>
<!-- Sunspikes\\Ratelimit\\Throttle\\Factory\\FactoryInterface&#45;&gt;Sunspikes\\Ratelimit\\Throttle\\Throttler\\ThrottlerInterface -->
<g id="edge36" class="edge"><title>Sunspikes\\Ratelimit\\Throttle\\Factory\\FactoryInterface&#45;&gt;Sunspikes\\Ratelimit\\Throttle\\Throttler\\ThrottlerInterface</title>
<path fill="none" stroke="#999999" d="M758.348,-790.742C789.252,-791.473 822.797,-792.267 854.231,-793.011"/>
<polygon fill="#999999" stroke="#999999" points="854.441,-795.117 860.489,-793.159 854.54,-790.918 854.441,-795.117"/>
</g>
<!-- Sunspikes\\Ratelimit\\Throttle\\Throttler\\CacheThrottler&#45;&gt;Sunspikes\\Ratelimit\\Cache\\Adapter\\CacheAdapterInterface -->
<g id="edge49" class="edge"><title>Sunspikes\\Ratelimit\\Throttle\\Throttler\\CacheThrottler&#45;&gt;Sunspikes\\Ratelimit\\Cache\\Adapter\\CacheAdapterInterface</title>
<path fill="none" stroke="#999999" d="M757.875,-737.851C786.71,-739.813 817.868,-741.933 847.48,-743.948"/>
<polygon fill="#999999" stroke="#999999" points="847.646,-746.064 853.775,-744.377 847.931,-741.874 847.646,-746.064"/>
</g>
<!-- Sunspikes\\Ratelimit\\Throttle\\Throttler\\CacheThrottler&#45;&gt;Sunspikes\\Ratelimit\\Cache\\Exception\\ItemNotFoundException -->
<g id="edge51" class="edge"><title>Sunspikes\\Ratelimit\\Throttle\\Throttler\\CacheThrottler&#45;&gt;Sunspikes\\Ratelimit\\Cache\\Exception\\ItemNotFoundException</title>
<path fill="none" stroke="#999999" d="M757.799,-712.202C762.962,-710.89 768.05,-709.491 773,-708 806.53,-697.899 811.513,-686.24 845,-676 850.201,-674.41 855.549,-672.912 860.976,-671.504"/>
<polygon fill="#999999" stroke="#999999" points="861.589,-673.515 866.892,-670.011 860.561,-669.443 861.589,-673.515"/>
</g>
<!-- Sunspikes\\Ratelimit\\Throttle\\Throttler\\CacheThrottler&#45;&gt;is_null -->
<g id="edge50" class="edge"><title>Sunspikes\\Ratelimit\\Throttle\\Throttler\\CacheThrottler&#45;&gt;is_null</title>
<path fill="none" stroke="#999999" d="M753.694,-711.961C760.237,-710.68 766.711,-709.357 773,-708 805.351,-701.02 812.218,-693.543 845,-689 1004.29,-666.926 1197.56,-674.625 1272.83,-678.919"/>
<polygon fill="#999999" stroke="#999999" points="1272.78,-681.02 1278.89,-679.273 1273.03,-676.827 1272.78,-681.02"/>
</g>
<!-- Sunspikes\\Ratelimit\\Throttle\\Throttler\\CacheThrottler&#45;&gt;Sunspikes\\Ratelimit\\Throttle\\Throttler\\ThrottlerInterface -->
<g id="edge47" class="edge"><title>Sunspikes\\Ratelimit\\Throttle\\Throttler\\CacheThrottler&#45;&gt;Sunspikes\\Ratelimit\\Throttle\\Throttler\\ThrottlerInterface</title>
<path fill="none" stroke="#999999" stroke-dasharray="5,2" d="M721.159,-748.107C758.577,-756.459 803.998,-766.223 845,-774 850.049,-774.958 855.208,-775.91 860.424,-776.851"/>
<polygon fill="#999999" stroke="#999999" points="860.294,-778.961 866.57,-777.951 861.034,-774.827 860.294,-778.961"/>
</g>
<!-- Countable -->
<g id="node38" class="node"><title>Countable</title>
<path fill="#9999cc" stroke="black" d="M998.5,-728C998.5,-728 964.5,-728 964.5,-728 958.5,-728 952.5,-722 952.5,-716 952.5,-716 952.5,-704 952.5,-704 952.5,-698 958.5,-692 964.5,-692 964.5,-692 998.5,-692 998.5,-692 1004.5,-692 1010.5,-698 1010.5,-704 1010.5,-704 1010.5,-716 1010.5,-716 1010.5,-722 1004.5,-728 998.5,-728"/>
<text text-anchor="middle" x="981.5" y="-707.5" font-family="Times New Roman,serif" font-size="10.00" fill="#000033">Countable</text>
</g>
<!-- Sunspikes\\Ratelimit\\Throttle\\Throttler\\CacheThrottler&#45;&gt;Countable -->
<g id="edge48" class="edge"><title>Sunspikes\\Ratelimit\\Throttle\\Throttler\\CacheThrottler&#45;&gt;Countable</title>
<path fill="none" stroke="#999999" stroke-dasharray="5,2" d="M757.875,-723.173C823.86,-719.269 902.012,-714.644 945.967,-712.043"/>
<polygon fill="#999999" stroke="#999999" points="946.333,-714.126 952.198,-711.675 946.084,-709.933 946.333,-714.126"/>
</g>
<!-- Sunspikes\\Ratelimit\\Throttle\\Hydrator\\DataHydratorInterface&#45;&gt;Sunspikes\\Ratelimit\\Throttle\\Entity\\Data -->
<g id="edge44" class="edge"><title>Sunspikes\\Ratelimit\\Throttle\\Hydrator\\DataHydratorInterface&#45;&gt;Sunspikes\\Ratelimit\\Throttle\\Entity\\Data</title>
<path fill="none" stroke="#999999" d="M773.18,-852.494C810.76,-850.048 851.009,-847.428 885.951,-845.154"/>
<polygon fill="#999999" stroke="#999999" points="886.109,-847.248 891.96,-844.763 885.836,-843.057 886.109,-847.248"/>
</g>
</g>
</svg>
