<?xml version="1.0" encoding="UTF-8" standalone="no"?>
<!DOCTYPE svg PUBLIC "-//W3C//DTD SVG 1.1//EN"
 "http://www.w3.org/Graphics/SVG/1.1/DTD/svg11.dtd">
<!-- Generated by graphviz version 2.38.0 (20140413.2041)
 -->
<!-- Title: G Pages: 1 -->
<svg width="1595pt" height="1331pt"
 viewBox="0.00 0.00 1595.00 1331.00" xmlns="http://www.w3.org/2000/svg" xmlns:xlink="http://www.w3.org/1999/xlink">
<g id="graph0" class="graph" transform="scale(1 1) rotate(0) translate(4 1327)">
<title>G</title>
<polygon fill="white" stroke="none" points="-4,4 -4,-1327 1591,-1327 1591,4 -4,4"/>
<text text-anchor="middle" x="793.5" y="-6.6" font-family="Times New Roman,serif" font-size="8.00">PhpDependencyAnalysis by Marco Muths (v0.5.3)</text>
<g id="clust1" class="cluster"><title>cluster_0</title>
<path fill="#ccccff" stroke="#000033" d="M210,-985C210,-985 1439,-985 1439,-985 1445,-985 1451,-991 1451,-997 1451,-997 1451,-1220 1451,-1220 1451,-1226 1445,-1232 1439,-1232 1439,-1232 210,-1232 210,-1232 204,-1232 198,-1226 198,-1220 198,-1220 198,-997 198,-997 198,-991 204,-985 210,-985"/>
<text text-anchor="middle" x="280.5" y="-1216.8" font-family="Times New Roman,serif" font-size="14.00" fill="#000033">Sunspikes\Ratelimit\Cache</text>
</g>
<g id="clust2" class="cluster"><title>cluster_1</title>
<path fill="#ccccff" stroke="#000033" d="M1519,-1071C1519,-1071 1568,-1071 1568,-1071 1574,-1071 1580,-1077 1580,-1083 1580,-1083 1580,-1134 1580,-1134 1580,-1140 1574,-1146 1568,-1146 1568,-1146 1519,-1146 1519,-1146 1513,-1146 1507,-1140 1507,-1134 1507,-1134 1507,-1083 1507,-1083 1507,-1077 1513,-1071 1519,-1071"/>
<text text-anchor="middle" x="1543.5" y="-1130.8" font-family="Times New Roman,serif" font-size="14.00" fill="#000033">Exception</text>
</g>
<g id="clust3" class="cluster"><title>cluster_2</title>
<path fill="#ccccff" stroke="#000033" d="M936,-1240C936,-1240 1070,-1240 1070,-1240 1076,-1240 1082,-1246 1082,-1252 1082,-1252 1082,-1303 1082,-1303 1082,-1309 1076,-1315 1070,-1315 1070,-1315 936,-1315 936,-1315 930,-1315 924,-1309 924,-1303 924,-1303 924,-1252 924,-1252 924,-1246 930,-1240 936,-1240"/>
<text text-anchor="middle" x="1003" y="-1299.8" font-family="Times New Roman,serif" font-size="14.00" fill="#000033">Desarrolla2\Cache\Cache</text>
</g>
<g id="clust4" class="cluster"><title>cluster_3</title>
<path fill="#ccccff" stroke="#000033" d="M1304,-270C1304,-270 1350,-270 1350,-270 1356,-270 1362,-276 1362,-282 1362,-282 1362,-333 1362,-333 1362,-339 1356,-345 1350,-345 1350,-345 1304,-345 1304,-345 1298,-345 1292,-339 1292,-333 1292,-333 1292,-282 1292,-282 1292,-276 1298,-270 1304,-270"/>
<text text-anchor="middle" x="1318.5" y="-329.8" font-family="Times New Roman,serif" font-size="14.00" fill="#000033">is_null</text>
</g>
<g id="clust5" class="cluster"><title>cluster_4</title>
<path fill="#ccccff" stroke="#000033" d="M979.5,-895C979.5,-895 1025.5,-895 1025.5,-895 1031.5,-895 1037.5,-901 1037.5,-907 1037.5,-907 1037.5,-958 1037.5,-958 1037.5,-964 1031.5,-970 1025.5,-970 1025.5,-970 979.5,-970 979.5,-970 973.5,-970 967.5,-964 967.5,-958 967.5,-958 967.5,-907 967.5,-907 967.5,-901 973.5,-895 979.5,-895"/>
<text text-anchor="middle" x="993.5" y="-954.8" font-family="Times New Roman,serif" font-size="14.00" fill="#000033">ucfirst</text>
</g>
<g id="clust6" class="cluster"><title>cluster_5</title>
<path fill="#ccccff" stroke="#000033" d="M965.5,-812C965.5,-812 1039.5,-812 1039.5,-812 1045.5,-812 1051.5,-818 1051.5,-824 1051.5,-824 1051.5,-875 1051.5,-875 1051.5,-881 1045.5,-887 1039.5,-887 1039.5,-887 965.5,-887 965.5,-887 959.5,-887 953.5,-881 953.5,-875 953.5,-875 953.5,-824 953.5,-824 953.5,-818 959.5,-812 965.5,-812"/>
<text text-anchor="middle" x="1002.5" y="-871.8" font-family="Times New Roman,serif" font-size="14.00" fill="#000033">method_exists</text>
</g>
<g id="clust7" class="cluster"><title>cluster_6</title>
<path fill="#ccccff" stroke="#000033" d="M920,-428C920,-428 1085,-428 1085,-428 1091,-428 1097,-434 1097,-440 1097,-440 1097,-792 1097,-792 1097,-798 1091,-804 1085,-804 1085,-804 920,-804 920,-804 914,-804 908,-798 908,-792 908,-792 908,-440 908,-440 908,-434 914,-428 920,-428"/>
<text text-anchor="middle" x="991.5" y="-788.8" font-family="Times New Roman,serif" font-size="14.00" fill="#000033">Desarrolla2\Cache\Adapter</text>
</g>
<g id="clust8" class="cluster"><title>cluster_7</title>
<path fill="#ccccff" stroke="#000033" d="M12,-373C12,-373 130,-373 130,-373 136,-373 142,-379 142,-385 142,-385 142,-436 142,-436 142,-442 136,-448 130,-448 130,-448 12,-448 12,-448 6,-448 0,-442 0,-436 0,-436 0,-385 0,-385 0,-379 6,-373 12,-373"/>
<text text-anchor="middle" x="71" y="-432.8" font-family="Times New Roman,serif" font-size="14.00" fill="#000033">Sunspikes\RateLimiter</text>
</g>
<g id="clust9" class="cluster"><title>cluster_8</title>
<path fill="#ccccff" stroke="#000033" d="M266,-511C266,-511 407,-511 407,-511 413,-511 419,-517 419,-523 419,-523 419,-574 419,-574 419,-580 413,-586 407,-586 407,-586 266,-586 266,-586 260,-586 254,-580 254,-574 254,-574 254,-523 254,-523 254,-517 260,-511 266,-511"/>
<text text-anchor="middle" x="336.5" y="-570.8" font-family="Times New Roman,serif" font-size="14.00" fill="#000033">InvalidArgumentException</text>
</g>
<g id="clust10" class="cluster"><title>cluster_9</title>
<path fill="#ccccff" stroke="#000033" d="M313,-428C313,-428 359,-428 359,-428 365,-428 371,-434 371,-440 371,-440 371,-491 371,-491 371,-497 365,-503 359,-503 359,-503 313,-503 313,-503 307,-503 301,-497 301,-491 301,-491 301,-440 301,-440 301,-434 307,-428 313,-428"/>
<text text-anchor="middle" x="331.5" y="-487.8" font-family="Times New Roman,serif" font-size="14.00" fill="#000033">is_array</text>
</g>
<g id="clust11" class="cluster"><title>cluster_10</title>
<path fill="#ccccff" stroke="#000033" d="M223.5,-207C223.5,-207 1130,-207 1130,-207 1136,-207 1142,-213 1142,-219 1142,-219 1142,-408 1142,-408 1142,-414 1136,-420 1130,-420 1130,-420 223.5,-420 223.5,-420 217.5,-420 211.5,-414 211.5,-408 211.5,-408 211.5,-219 211.5,-219 211.5,-213 217.5,-207 223.5,-207"/>
<text text-anchor="middle" x="298.5" y="-404.8" font-family="Times New Roman,serif" font-size="14.00" fill="#000033">Sunspikes\Ratelimit\Throttle</text>
</g>
<g id="clust12" class="cluster"><title>cluster_11</title>
<path fill="#ccccff" stroke="#000033" d="M313,-124C313,-124 359,-124 359,-124 365,-124 371,-130 371,-136 371,-136 371,-187 371,-187 371,-193 365,-199 359,-199 359,-199 313,-199 313,-199 307,-199 301,-193 301,-187 301,-187 301,-136 301,-136 301,-130 307,-124 313,-124"/>
<text text-anchor="middle" x="333" y="-183.8" font-family="Times New Roman,serif" font-size="14.00" fill="#000033">is_string</text>
</g>
<g id="clust13" class="cluster"><title>cluster_12</title>
<path fill="#ccccff" stroke="#000033" d="M1304,-353C1304,-353 1350,-353 1350,-353 1356,-353 1362,-359 1362,-365 1362,-365 1362,-416 1362,-416 1362,-422 1356,-428 1350,-428 1350,-428 1304,-428 1304,-428 1298,-428 1292,-422 1292,-416 1292,-416 1292,-365 1292,-365 1292,-359 1298,-353 1304,-353"/>
<text text-anchor="middle" x="1313" y="-412.8" font-family="Times New Roman,serif" font-size="14.00" fill="#000033">sha1</text>
</g>
<g id="clust14" class="cluster"><title>cluster_13</title>
<path fill="#ccccff" stroke="#000033" d="M979.5,-124C979.5,-124 1025.5,-124 1025.5,-124 1031.5,-124 1037.5,-130 1037.5,-136 1037.5,-136 1037.5,-187 1037.5,-187 1037.5,-193 1031.5,-199 1025.5,-199 1025.5,-199 979.5,-199 979.5,-199 973.5,-199 967.5,-193 967.5,-187 967.5,-187 967.5,-136 967.5,-136 967.5,-130 973.5,-124 979.5,-124"/>
<text text-anchor="middle" x="998.5" y="-183.8" font-family="Times New Roman,serif" font-size="14.00" fill="#000033">implode</text>
</g>
<g id="clust15" class="cluster"><title>cluster_14</title>
<path fill="#ccccff" stroke="#000033" d="M977.5,-25C977.5,-25 1027.5,-25 1027.5,-25 1033.5,-25 1039.5,-31 1039.5,-37 1039.5,-37 1039.5,-88 1039.5,-88 1039.5,-94 1033.5,-100 1027.5,-100 1027.5,-100 977.5,-100 977.5,-100 971.5,-100 965.5,-94 965.5,-88 965.5,-88 965.5,-37 965.5,-37 965.5,-31 971.5,-25 977.5,-25"/>
<text text-anchor="middle" x="1002.5" y="-84.8" font-family="Times New Roman,serif" font-size="14.00" fill="#000033">Countable</text>
</g>
<!-- Sunspikes\\Ratelimit\\Cache\\Adapter\\AbstractCacheAdapter -->
<g id="node1" class="node"><title>Sunspikes\\Ratelimit\\Cache\\Adapter\\AbstractCacheAdapter</title>
<path fill="#9999cc" stroke="black" d="M781.5,-1029C781.5,-1029 550.5,-1029 550.5,-1029 544.5,-1029 538.5,-1023 538.5,-1017 538.5,-1017 538.5,-1005 538.5,-1005 538.5,-999 544.5,-993 550.5,-993 550.5,-993 781.5,-993 781.5,-993 787.5,-993 793.5,-999 793.5,-1005 793.5,-1005 793.5,-1017 793.5,-1017 793.5,-1023 787.5,-1029 781.5,-1029"/>
<text text-anchor="middle" x="666" y="-1008.5" font-family="Times New Roman,serif" font-size="10.00" fill="#000033">Sunspikes\Ratelimit\Cache\Adapter\AbstractCacheAdapter</text>
</g>
<!-- Sunspikes\\Ratelimit\\Cache\\Adapter\\CacheAdapterInterface -->
<g id="node2" class="node"><title>Sunspikes\\Ratelimit\\Cache\\Adapter\\CacheAdapterInterface</title>
<path fill="#9999cc" stroke="black" d="M1118,-1029C1118,-1029 887,-1029 887,-1029 881,-1029 875,-1023 875,-1017 875,-1017 875,-1005 875,-1005 875,-999 881,-993 887,-993 887,-993 1118,-993 1118,-993 1124,-993 1130,-999 1130,-1005 1130,-1005 1130,-1017 1130,-1017 1130,-1023 1124,-1029 1118,-1029"/>
<text text-anchor="middle" x="1002.5" y="-1008.5" font-family="Times New Roman,serif" font-size="10.00" fill="#000033">Sunspikes\Ratelimit\Cache\Adapter\CacheAdapterInterface</text>
</g>
<!-- Sunspikes\\Ratelimit\\Cache\\Adapter\\AbstractCacheAdapter&#45;&gt;Sunspikes\\Ratelimit\\Cache\\Adapter\\CacheAdapterInterface -->
<g id="edge1" class="edge"><title>Sunspikes\\Ratelimit\\Cache\\Adapter\\AbstractCacheAdapter&#45;&gt;Sunspikes\\Ratelimit\\Cache\\Adapter\\CacheAdapterInterface</title>
<path fill="none" stroke="#999999" stroke-dasharray="5,2" d="M793.937,-1011C818.387,-1011 844.058,-1011 868.689,-1011"/>
<polygon fill="#999999" stroke="#999999" points="868.927,-1013.1 874.927,-1011 868.927,-1008.9 868.927,-1013.1"/>
</g>
<!-- Sunspikes\\Ratelimit\\Cache\\Exception\\ItemNotFoundException -->
<g id="node3" class="node"><title>Sunspikes\\Ratelimit\\Cache\\Exception\\ItemNotFoundException</title>
<path fill="#9999cc" stroke="black" d="M1123.5,-1072C1123.5,-1072 881.5,-1072 881.5,-1072 875.5,-1072 869.5,-1066 869.5,-1060 869.5,-1060 869.5,-1048 869.5,-1048 869.5,-1042 875.5,-1036 881.5,-1036 881.5,-1036 1123.5,-1036 1123.5,-1036 1129.5,-1036 1135.5,-1042 1135.5,-1048 1135.5,-1048 1135.5,-1060 1135.5,-1060 1135.5,-1066 1129.5,-1072 1123.5,-1072"/>
<text text-anchor="middle" x="1002.5" y="-1051.5" font-family="Times New Roman,serif" font-size="10.00" fill="#000033">Sunspikes\Ratelimit\Cache\Exception\ItemNotFoundException</text>
</g>
<!-- Sunspikes\\Ratelimit\\Cache\\Adapter\\AbstractCacheAdapter&#45;&gt;Sunspikes\\Ratelimit\\Cache\\Exception\\ItemNotFoundException -->
<g id="edge2" class="edge"><title>Sunspikes\\Ratelimit\\Cache\\Adapter\\AbstractCacheAdapter&#45;&gt;Sunspikes\\Ratelimit\\Cache\\Exception\\ItemNotFoundException</title>
<path fill="none" stroke="#999999" d="M793.937,-1027.32C816.586,-1030.23 840.285,-1033.28 863.232,-1036.23"/>
<polygon fill="#999999" stroke="#999999" points="863.146,-1038.33 869.365,-1037.01 863.682,-1034.17 863.146,-1038.33"/>
</g>
<!-- Sunspikes\\Ratelimit\\Cache\\Exception\\CacheException -->
<g id="node5" class="node"><title>Sunspikes\\Ratelimit\\Cache\\Exception\\CacheException</title>
<path fill="#9999cc" stroke="black" d="M1431,-1115C1431,-1115 1223,-1115 1223,-1115 1217,-1115 1211,-1109 1211,-1103 1211,-1103 1211,-1091 1211,-1091 1211,-1085 1217,-1079 1223,-1079 1223,-1079 1431,-1079 1431,-1079 1437,-1079 1443,-1085 1443,-1091 1443,-1091 1443,-1103 1443,-1103 1443,-1109 1437,-1115 1431,-1115"/>
<text text-anchor="middle" x="1327" y="-1094.5" font-family="Times New Roman,serif" font-size="10.00" fill="#000033">Sunspikes\Ratelimit\Cache\Exception\CacheException</text>
</g>
<!-- Sunspikes\\Ratelimit\\Cache\\Exception\\ItemNotFoundException&#45;&gt;Sunspikes\\Ratelimit\\Cache\\Exception\\CacheException -->
<g id="edge7" class="edge"><title>Sunspikes\\Ratelimit\\Cache\\Exception\\ItemNotFoundException&#45;&gt;Sunspikes\\Ratelimit\\Cache\\Exception\\CacheException</title>
<path fill="none" stroke="#999999" stroke-dasharray="5,2" d="M1135.6,-1071.61C1158.52,-1074.67 1182.24,-1077.83 1204.85,-1080.85"/>
<polygon fill="#999999" stroke="#999999" points="1204.66,-1082.94 1210.88,-1081.65 1205.21,-1078.78 1204.66,-1082.94"/>
</g>
<!-- Sunspikes\\Ratelimit\\Cache\\Adapter\\DesarrollaCacheAdapter -->
<g id="node4" class="node"><title>Sunspikes\\Ratelimit\\Cache\\Adapter\\DesarrollaCacheAdapter</title>
<path fill="#9999cc" stroke="black" d="M454,-1029C454,-1029 218,-1029 218,-1029 212,-1029 206,-1023 206,-1017 206,-1017 206,-1005 206,-1005 206,-999 212,-993 218,-993 218,-993 454,-993 454,-993 460,-993 466,-999 466,-1005 466,-1005 466,-1017 466,-1017 466,-1023 460,-1029 454,-1029"/>
<text text-anchor="middle" x="336" y="-1008.5" font-family="Times New Roman,serif" font-size="10.00" fill="#000033">Sunspikes\Ratelimit\Cache\Adapter\DesarrollaCacheAdapter</text>
</g>
<!-- Sunspikes\\Ratelimit\\Cache\\Adapter\\DesarrollaCacheAdapter&#45;&gt;Sunspikes\\Ratelimit\\Cache\\Adapter\\AbstractCacheAdapter -->
<g id="edge3" class="edge"><title>Sunspikes\\Ratelimit\\Cache\\Adapter\\DesarrollaCacheAdapter&#45;&gt;Sunspikes\\Ratelimit\\Cache\\Adapter\\AbstractCacheAdapter</title>
<path fill="none" stroke="#999999" stroke-dasharray="5,2" d="M466.163,-1011C487.876,-1011 510.442,-1011 532.243,-1011"/>
<polygon fill="#999999" stroke="#999999" points="532.37,-1013.1 538.37,-1011 532.37,-1008.9 532.37,-1013.1"/>
</g>
<!-- Exception -->
<g id="node10" class="node"><title>Exception</title>
<path fill="#9999cc" stroke="black" d="M1559,-1115C1559,-1115 1527,-1115 1527,-1115 1521,-1115 1515,-1109 1515,-1103 1515,-1103 1515,-1091 1515,-1091 1515,-1085 1521,-1079 1527,-1079 1527,-1079 1559,-1079 1559,-1079 1565,-1079 1571,-1085 1571,-1091 1571,-1091 1571,-1103 1571,-1103 1571,-1109 1565,-1115 1559,-1115"/>
<text text-anchor="middle" x="1543" y="-1094.5" font-family="Times New Roman,serif" font-size="10.00" fill="#000033">Exception</text>
</g>
<!-- Sunspikes\\Ratelimit\\Cache\\Exception\\CacheException&#45;&gt;Exception -->
<g id="edge4" class="edge"><title>Sunspikes\\Ratelimit\\Cache\\Exception\\CacheException&#45;&gt;Exception</title>
<path fill="none" stroke="#999999" stroke-dasharray="5,2" d="M1443.14,-1097C1467.11,-1097 1490.53,-1097 1508.55,-1097"/>
<polygon fill="#999999" stroke="#999999" points="1508.94,-1099.1 1514.94,-1097 1508.94,-1094.9 1508.94,-1099.1"/>
</g>
<!-- Sunspikes\\Ratelimit\\Cache\\Exception\\DriverNotFoundException -->
<g id="node6" class="node"><title>Sunspikes\\Ratelimit\\Cache\\Exception\\DriverNotFoundException</title>
<path fill="#9999cc" stroke="black" d="M1127,-1115C1127,-1115 878,-1115 878,-1115 872,-1115 866,-1109 866,-1103 866,-1103 866,-1091 866,-1091 866,-1085 872,-1079 878,-1079 878,-1079 1127,-1079 1127,-1079 1133,-1079 1139,-1085 1139,-1091 1139,-1091 1139,-1103 1139,-1103 1139,-1109 1133,-1115 1127,-1115"/>
<text text-anchor="middle" x="1002.5" y="-1094.5" font-family="Times New Roman,serif" font-size="10.00" fill="#000033">Sunspikes\Ratelimit\Cache\Exception\DriverNotFoundException</text>
</g>
<!-- Sunspikes\\Ratelimit\\Cache\\Exception\\DriverNotFoundException&#45;&gt;Sunspikes\\Ratelimit\\Cache\\Exception\\CacheException -->
<g id="edge5" class="edge"><title>Sunspikes\\Ratelimit\\Cache\\Exception\\DriverNotFoundException&#45;&gt;Sunspikes\\Ratelimit\\Cache\\Exception\\CacheException</title>
<path fill="none" stroke="#999999" stroke-dasharray="5,2" d="M1139.33,-1097C1161.13,-1097 1183.56,-1097 1204.97,-1097"/>
<polygon fill="#999999" stroke="#999999" points="1204.98,-1099.1 1210.98,-1097 1204.98,-1094.9 1204.98,-1099.1"/>
</g>
<!-- Sunspikes\\Ratelimit\\Cache\\Exception\\InvalidConfigException -->
<g id="node7" class="node"><title>Sunspikes\\Ratelimit\\Cache\\Exception\\InvalidConfigException</title>
<path fill="#9999cc" stroke="black" d="M1121.5,-1201C1121.5,-1201 883.5,-1201 883.5,-1201 877.5,-1201 871.5,-1195 871.5,-1189 871.5,-1189 871.5,-1177 871.5,-1177 871.5,-1171 877.5,-1165 883.5,-1165 883.5,-1165 1121.5,-1165 1121.5,-1165 1127.5,-1165 1133.5,-1171 1133.5,-1177 1133.5,-1177 1133.5,-1189 1133.5,-1189 1133.5,-1195 1127.5,-1201 1121.5,-1201"/>
<text text-anchor="middle" x="1002.5" y="-1180.5" font-family="Times New Roman,serif" font-size="10.00" fill="#000033">Sunspikes\Ratelimit\Cache\Exception\InvalidConfigException</text>
</g>
<!-- Sunspikes\\Ratelimit\\Cache\\Exception\\InvalidConfigException&#45;&gt;Sunspikes\\Ratelimit\\Cache\\Exception\\CacheException -->
<g id="edge6" class="edge"><title>Sunspikes\\Ratelimit\\Cache\\Exception\\InvalidConfigException&#45;&gt;Sunspikes\\Ratelimit\\Cache\\Exception\\CacheException</title>
<path fill="none" stroke="#999999" stroke-dasharray="5,2" d="M1124.98,-1164.97C1130.75,-1163.72 1136.45,-1162.39 1142,-1161 1188.08,-1149.42 1239,-1131.28 1275.57,-1117.26"/>
<polygon fill="#999999" stroke="#999999" points="1276.46,-1119.17 1281.31,-1115.05 1274.95,-1115.25 1276.46,-1119.17"/>
</g>
<!-- Sunspikes\\Ratelimit\\Cache\\Factory\\DesarrollaCacheFactory -->
<g id="node8" class="node"><title>Sunspikes\\Ratelimit\\Cache\\Factory\\DesarrollaCacheFactory</title>
<path fill="#9999cc" stroke="black" d="M782,-1158C782,-1158 550,-1158 550,-1158 544,-1158 538,-1152 538,-1146 538,-1146 538,-1134 538,-1134 538,-1128 544,-1122 550,-1122 550,-1122 782,-1122 782,-1122 788,-1122 794,-1128 794,-1134 794,-1134 794,-1146 794,-1146 794,-1152 788,-1158 782,-1158"/>
<text text-anchor="middle" x="666" y="-1137.5" font-family="Times New Roman,serif" font-size="10.00" fill="#000033">Sunspikes\Ratelimit\Cache\Factory\DesarrollaCacheFactory</text>
</g>
<!-- Sunspikes\\Ratelimit\\Cache\\Factory\\DesarrollaCacheFactory&#45;&gt;Sunspikes\\Ratelimit\\Cache\\Exception\\DriverNotFoundException -->
<g id="edge14" class="edge"><title>Sunspikes\\Ratelimit\\Cache\\Factory\\DesarrollaCacheFactory&#45;&gt;Sunspikes\\Ratelimit\\Cache\\Exception\\DriverNotFoundException</title>
<path fill="none" stroke="#999999" d="M794.414,-1123.62C815.763,-1120.88 838.03,-1118.01 859.713,-1115.23"/>
<polygon fill="#999999" stroke="#999999" points="860.129,-1117.29 865.812,-1114.44 859.594,-1113.12 860.129,-1117.29"/>
</g>
<!-- Sunspikes\\Ratelimit\\Cache\\Factory\\DesarrollaCacheFactory&#45;&gt;Sunspikes\\Ratelimit\\Cache\\Exception\\InvalidConfigException -->
<g id="edge11" class="edge"><title>Sunspikes\\Ratelimit\\Cache\\Factory\\DesarrollaCacheFactory&#45;&gt;Sunspikes\\Ratelimit\\Cache\\Exception\\InvalidConfigException</title>
<path fill="none" stroke="#999999" d="M794.414,-1156.38C817.549,-1159.35 841.763,-1162.47 865.142,-1165.47"/>
<polygon fill="#999999" stroke="#999999" points="865.17,-1167.59 871.389,-1166.27 865.706,-1163.43 865.17,-1167.59"/>
</g>
<!-- Sunspikes\\Ratelimit\\Cache\\Factory\\FactoryInterface -->
<g id="node9" class="node"><title>Sunspikes\\Ratelimit\\Cache\\Factory\\FactoryInterface</title>
<path fill="#9999cc" stroke="black" d="M1103.5,-1158C1103.5,-1158 901.5,-1158 901.5,-1158 895.5,-1158 889.5,-1152 889.5,-1146 889.5,-1146 889.5,-1134 889.5,-1134 889.5,-1128 895.5,-1122 901.5,-1122 901.5,-1122 1103.5,-1122 1103.5,-1122 1109.5,-1122 1115.5,-1128 1115.5,-1134 1115.5,-1134 1115.5,-1146 1115.5,-1146 1115.5,-1152 1109.5,-1158 1103.5,-1158"/>
<text text-anchor="middle" x="1002.5" y="-1137.5" font-family="Times New Roman,serif" font-size="10.00" fill="#000033">Sunspikes\Ratelimit\Cache\Factory\FactoryInterface</text>
</g>
<!-- Sunspikes\\Ratelimit\\Cache\\Factory\\DesarrollaCacheFactory&#45;&gt;Sunspikes\\Ratelimit\\Cache\\Factory\\FactoryInterface -->
<g id="edge8" class="edge"><title>Sunspikes\\Ratelimit\\Cache\\Factory\\DesarrollaCacheFactory&#45;&gt;Sunspikes\\Ratelimit\\Cache\\Factory\\FactoryInterface</title>
<path fill="none" stroke="#999999" stroke-dasharray="5,2" d="M794.414,-1140C823.631,-1140 854.569,-1140 883.374,-1140"/>
<polygon fill="#999999" stroke="#999999" points="883.487,-1142.1 889.487,-1140 883.487,-1137.9 883.487,-1142.1"/>
</g>
<!-- Desarrolla2\\Cache\\Cache -->
<g id="node11" class="node"><title>Desarrolla2\\Cache\\Cache</title>
<path fill="#9999cc" stroke="black" d="M1049,-1284C1049,-1284 956,-1284 956,-1284 950,-1284 944,-1278 944,-1272 944,-1272 944,-1260 944,-1260 944,-1254 950,-1248 956,-1248 956,-1248 1049,-1248 1049,-1248 1055,-1248 1061,-1254 1061,-1260 1061,-1260 1061,-1272 1061,-1272 1061,-1278 1055,-1284 1049,-1284"/>
<text text-anchor="middle" x="1002.5" y="-1263.5" font-family="Times New Roman,serif" font-size="10.00" fill="#000033">Desarrolla2\Cache\Cache</text>
</g>
<!-- Sunspikes\\Ratelimit\\Cache\\Factory\\DesarrollaCacheFactory&#45;&gt;Desarrolla2\\Cache\\Cache -->
<g id="edge9" class="edge"><title>Sunspikes\\Ratelimit\\Cache\\Factory\\DesarrollaCacheFactory&#45;&gt;Desarrolla2\\Cache\\Cache</title>
<path fill="none" stroke="#999999" d="M700.299,-1158.06C739.142,-1178.54 805.738,-1211.82 866,-1233 888.96,-1241.07 914.78,-1247.89 937.674,-1253.2"/>
<polygon fill="#999999" stroke="#999999" points="937.42,-1255.3 943.737,-1254.59 938.356,-1251.2 937.42,-1255.3"/>
</g>
<!-- is_null -->
<g id="node12" class="node"><title>is_null</title>
<path fill="#9999cc" stroke="black" d="M1342,-314C1342,-314 1312,-314 1312,-314 1306,-314 1300,-308 1300,-302 1300,-302 1300,-290 1300,-290 1300,-284 1306,-278 1312,-278 1312,-278 1342,-278 1342,-278 1348,-278 1354,-284 1354,-290 1354,-290 1354,-302 1354,-302 1354,-308 1348,-314 1342,-314"/>
<text text-anchor="middle" x="1327" y="-293.5" font-family="Times New Roman,serif" font-size="10.00" fill="#000033">is_null</text>
</g>
<!-- Sunspikes\\Ratelimit\\Cache\\Factory\\DesarrollaCacheFactory&#45;&gt;is_null -->
<g id="edge10" class="edge"><title>Sunspikes\\Ratelimit\\Cache\\Factory\\DesarrollaCacheFactory&#45;&gt;is_null</title>
<path fill="none" stroke="#999999" d="M687.799,-1121.87C730.243,-1085.29 826.178,-1004.87 866,-990 894.798,-979.248 1119.81,-992.272 1142,-971 1241.92,-875.222 1131.22,-465.101 1211,-352 1230.4,-324.501 1267.13,-309.935 1293.87,-302.627"/>
<polygon fill="#999999" stroke="#999999" points="1294.48,-304.638 1299.76,-301.091 1293.42,-300.575 1294.48,-304.638"/>
</g>
<!-- ucfirst -->
<g id="node13" class="node"><title>ucfirst</title>
<path fill="#9999cc" stroke="black" d="M1017.5,-939C1017.5,-939 987.5,-939 987.5,-939 981.5,-939 975.5,-933 975.5,-927 975.5,-927 975.5,-915 975.5,-915 975.5,-909 981.5,-903 987.5,-903 987.5,-903 1017.5,-903 1017.5,-903 1023.5,-903 1029.5,-909 1029.5,-915 1029.5,-915 1029.5,-927 1029.5,-927 1029.5,-933 1023.5,-939 1017.5,-939"/>
<text text-anchor="middle" x="1002.5" y="-918.5" font-family="Times New Roman,serif" font-size="10.00" fill="#000033">ucfirst</text>
</g>
<!-- Sunspikes\\Ratelimit\\Cache\\Factory\\DesarrollaCacheFactory&#45;&gt;ucfirst -->
<g id="edge12" class="edge"><title>Sunspikes\\Ratelimit\\Cache\\Factory\\DesarrollaCacheFactory&#45;&gt;ucfirst</title>
<path fill="none" stroke="#999999" d="M688.295,-1121.96C735.602,-1081.97 846.79,-988.492 866,-977 899.445,-956.993 941.353,-940.886 969.638,-931.171"/>
<polygon fill="#999999" stroke="#999999" points="970.452,-933.113 975.459,-929.196 969.102,-929.135 970.452,-933.113"/>
</g>
<!-- method_exists -->
<g id="node14" class="node"><title>method_exists</title>
<path fill="#9999cc" stroke="black" d="M1027.5,-856C1027.5,-856 977.5,-856 977.5,-856 971.5,-856 965.5,-850 965.5,-844 965.5,-844 965.5,-832 965.5,-832 965.5,-826 971.5,-820 977.5,-820 977.5,-820 1027.5,-820 1027.5,-820 1033.5,-820 1039.5,-826 1039.5,-832 1039.5,-832 1039.5,-844 1039.5,-844 1039.5,-850 1033.5,-856 1027.5,-856"/>
<text text-anchor="middle" x="1002.5" y="-835.5" font-family="Times New Roman,serif" font-size="10.00" fill="#000033">method_exists</text>
</g>
<!-- Sunspikes\\Ratelimit\\Cache\\Factory\\DesarrollaCacheFactory&#45;&gt;method_exists -->
<g id="edge13" class="edge"><title>Sunspikes\\Ratelimit\\Cache\\Factory\\DesarrollaCacheFactory&#45;&gt;method_exists</title>
<path fill="none" stroke="#999999" d="M693.965,-1121.83C721.666,-1102.16 764.756,-1068.65 794,-1032 837.148,-977.926 814.956,-940.693 866,-894 892.214,-870.021 930.121,-855.543 959.179,-847.334"/>
<polygon fill="#999999" stroke="#999999" points="960.005,-849.285 965.238,-845.676 958.896,-845.234 960.005,-849.285"/>
</g>
<!-- Desarrolla2\\Cache\\Adapter\\NotCache -->
<g id="node15" class="node"><title>Desarrolla2\\Cache\\Adapter\\NotCache</title>
<path fill="#9999cc" stroke="black" d="M1074.5,-515C1074.5,-515 930.5,-515 930.5,-515 924.5,-515 918.5,-509 918.5,-503 918.5,-503 918.5,-491 918.5,-491 918.5,-485 924.5,-479 930.5,-479 930.5,-479 1074.5,-479 1074.5,-479 1080.5,-479 1086.5,-485 1086.5,-491 1086.5,-491 1086.5,-503 1086.5,-503 1086.5,-509 1080.5,-515 1074.5,-515"/>
<text text-anchor="middle" x="1002.5" y="-494.5" font-family="Times New Roman,serif" font-size="10.00" fill="#000033">Desarrolla2\Cache\Adapter\NotCache</text>
</g>
<!-- Sunspikes\\Ratelimit\\Cache\\Factory\\DesarrollaCacheFactory&#45;&gt;Desarrolla2\\Cache\\Adapter\\NotCache -->
<g id="edge15" class="edge"><title>Sunspikes\\Ratelimit\\Cache\\Factory\\DesarrollaCacheFactory&#45;&gt;Desarrolla2\\Cache\\Adapter\\NotCache</title>
<path fill="none" stroke="#999999" d="M699.466,-1121.9C729.299,-1103.42 772.105,-1071.82 794,-1032 904.937,-830.255 704.96,-683.543 866,-519 878.431,-506.299 895.117,-499.131 912.524,-495.349"/>
<polygon fill="#999999" stroke="#999999" points="912.963,-497.403 918.45,-494.194 912.159,-493.281 912.963,-497.403"/>
</g>
<!-- Desarrolla2\\Cache\\Adapter\\File -->
<g id="node16" class="node"><title>Desarrolla2\\Cache\\Adapter\\File</title>
<path fill="#9999cc" stroke="black" d="M1062,-472C1062,-472 943,-472 943,-472 937,-472 931,-466 931,-460 931,-460 931,-448 931,-448 931,-442 937,-436 943,-436 943,-436 1062,-436 1062,-436 1068,-436 1074,-442 1074,-448 1074,-448 1074,-460 1074,-460 1074,-466 1068,-472 1062,-472"/>
<text text-anchor="middle" x="1002.5" y="-451.5" font-family="Times New Roman,serif" font-size="10.00" fill="#000033">Desarrolla2\Cache\Adapter\File</text>
</g>
<!-- Sunspikes\\Ratelimit\\Cache\\Factory\\DesarrollaCacheFactory&#45;&gt;Desarrolla2\\Cache\\Adapter\\File -->
<g id="edge16" class="edge"><title>Sunspikes\\Ratelimit\\Cache\\Factory\\DesarrollaCacheFactory&#45;&gt;Desarrolla2\\Cache\\Adapter\\File</title>
<path fill="none" stroke="#999999" d="M699.561,-1121.95C729.463,-1103.51 772.317,-1071.93 794,-1032 912.897,-813.022 692.664,-655.005 866,-476 881.23,-460.272 902.977,-452.999 924.604,-450.138"/>
<polygon fill="#999999" stroke="#999999" points="924.971,-452.21 930.695,-449.445 924.496,-448.037 924.971,-452.21"/>
</g>
<!-- Desarrolla2\\Cache\\Adapter\\Apc -->
<g id="node17" class="node"><title>Desarrolla2\\Cache\\Adapter\\Apc</title>
<path fill="#9999cc" stroke="black" d="M1063.5,-773C1063.5,-773 941.5,-773 941.5,-773 935.5,-773 929.5,-767 929.5,-761 929.5,-761 929.5,-749 929.5,-749 929.5,-743 935.5,-737 941.5,-737 941.5,-737 1063.5,-737 1063.5,-737 1069.5,-737 1075.5,-743 1075.5,-749 1075.5,-749 1075.5,-761 1075.5,-761 1075.5,-767 1069.5,-773 1063.5,-773"/>
<text text-anchor="middle" x="1002.5" y="-752.5" font-family="Times New Roman,serif" font-size="10.00" fill="#000033">Desarrolla2\Cache\Adapter\Apc</text>
</g>
<!-- Sunspikes\\Ratelimit\\Cache\\Factory\\DesarrollaCacheFactory&#45;&gt;Desarrolla2\\Cache\\Adapter\\Apc -->
<g id="edge17" class="edge"><title>Sunspikes\\Ratelimit\\Cache\\Factory\\DesarrollaCacheFactory&#45;&gt;Desarrolla2\\Cache\\Adapter\\Apc</title>
<path fill="none" stroke="#999999" d="M696.576,-1121.88C725.322,-1102.83 768.296,-1070.35 794,-1032 851.518,-946.19 795.818,-886.803 866,-811 881.478,-794.283 902.695,-782.41 923.747,-774.037"/>
<polygon fill="#999999" stroke="#999999" points="924.533,-775.985 929.383,-771.876 923.029,-772.064 924.533,-775.985"/>
</g>
<!-- Desarrolla2\\Cache\\Adapter\\Memory -->
<g id="node18" class="node"><title>Desarrolla2\\Cache\\Adapter\\Memory</title>
<path fill="#9999cc" stroke="black" d="M1071.5,-730C1071.5,-730 933.5,-730 933.5,-730 927.5,-730 921.5,-724 921.5,-718 921.5,-718 921.5,-706 921.5,-706 921.5,-700 927.5,-694 933.5,-694 933.5,-694 1071.5,-694 1071.5,-694 1077.5,-694 1083.5,-700 1083.5,-706 1083.5,-706 1083.5,-718 1083.5,-718 1083.5,-724 1077.5,-730 1071.5,-730"/>
<text text-anchor="middle" x="1002.5" y="-709.5" font-family="Times New Roman,serif" font-size="10.00" fill="#000033">Desarrolla2\Cache\Adapter\Memory</text>
</g>
<!-- Sunspikes\\Ratelimit\\Cache\\Factory\\DesarrollaCacheFactory&#45;&gt;Desarrolla2\\Cache\\Adapter\\Memory -->
<g id="edge18" class="edge"><title>Sunspikes\\Ratelimit\\Cache\\Factory\\DesarrollaCacheFactory&#45;&gt;Desarrolla2\\Cache\\Adapter\\Memory</title>
<path fill="none" stroke="#999999" d="M697.772,-1121.94C727.005,-1103.16 769.96,-1071.07 794,-1032 865.401,-915.951 766.057,-826.612 866,-734 879.507,-721.484 897.204,-714.519 915.331,-710.894"/>
<polygon fill="#999999" stroke="#999999" points="915.954,-712.916 921.49,-709.79 915.213,-708.782 915.954,-712.916"/>
</g>
<!-- Desarrolla2\\Cache\\Adapter\\Mongo -->
<g id="node19" class="node"><title>Desarrolla2\\Cache\\Adapter\\Mongo</title>
<path fill="#9999cc" stroke="black" d="M1069.5,-687C1069.5,-687 935.5,-687 935.5,-687 929.5,-687 923.5,-681 923.5,-675 923.5,-675 923.5,-663 923.5,-663 923.5,-657 929.5,-651 935.5,-651 935.5,-651 1069.5,-651 1069.5,-651 1075.5,-651 1081.5,-657 1081.5,-663 1081.5,-663 1081.5,-675 1081.5,-675 1081.5,-681 1075.5,-687 1069.5,-687"/>
<text text-anchor="middle" x="1002.5" y="-666.5" font-family="Times New Roman,serif" font-size="10.00" fill="#000033">Desarrolla2\Cache\Adapter\Mongo</text>
</g>
<!-- Sunspikes\\Ratelimit\\Cache\\Factory\\DesarrollaCacheFactory&#45;&gt;Desarrolla2\\Cache\\Adapter\\Mongo -->
<g id="edge19" class="edge"><title>Sunspikes\\Ratelimit\\Cache\\Factory\\DesarrollaCacheFactory&#45;&gt;Desarrolla2\\Cache\\Adapter\\Mongo</title>
<path fill="none" stroke="#999999" d="M698.298,-1121.91C727.71,-1103.22 770.603,-1071.29 794,-1032 873.25,-898.912 753.921,-797.918 866,-691 879.789,-677.846 898.183,-670.763 916.961,-667.242"/>
<polygon fill="#999999" stroke="#999999" points="917.764,-669.237 923.338,-666.181 917.074,-665.094 917.764,-669.237"/>
</g>
<!-- Desarrolla2\\Cache\\Adapter\\MySQL -->
<g id="node20" class="node"><title>Desarrolla2\\Cache\\Adapter\\MySQL</title>
<path fill="#9999cc" stroke="black" d="M1070.5,-644C1070.5,-644 934.5,-644 934.5,-644 928.5,-644 922.5,-638 922.5,-632 922.5,-632 922.5,-620 922.5,-620 922.5,-614 928.5,-608 934.5,-608 934.5,-608 1070.5,-608 1070.5,-608 1076.5,-608 1082.5,-614 1082.5,-620 1082.5,-620 1082.5,-632 1082.5,-632 1082.5,-638 1076.5,-644 1070.5,-644"/>
<text text-anchor="middle" x="1002.5" y="-623.5" font-family="Times New Roman,serif" font-size="10.00" fill="#000033">Desarrolla2\Cache\Adapter\MySQL</text>
</g>
<!-- Sunspikes\\Ratelimit\\Cache\\Factory\\DesarrollaCacheFactory&#45;&gt;Desarrolla2\\Cache\\Adapter\\MySQL -->
<g id="edge20" class="edge"><title>Sunspikes\\Ratelimit\\Cache\\Factory\\DesarrollaCacheFactory&#45;&gt;Desarrolla2\\Cache\\Adapter\\MySQL</title>
<path fill="none" stroke="#999999" d="M698.777,-1121.85C728.325,-1103.22 771.124,-1071.43 794,-1032 881.138,-881.806 741.729,-769.276 866,-648 879.485,-634.84 897.565,-627.71 916.115,-624.141"/>
<polygon fill="#999999" stroke="#999999" points="916.858,-626.145 922.418,-623.064 916.15,-622.005 916.858,-626.145"/>
</g>
<!-- Desarrolla2\\Cache\\Adapter\\Redis -->
<g id="node21" class="node"><title>Desarrolla2\\Cache\\Adapter\\Redis</title>
<path fill="#9999cc" stroke="black" d="M1066,-601C1066,-601 939,-601 939,-601 933,-601 927,-595 927,-589 927,-589 927,-577 927,-577 927,-571 933,-565 939,-565 939,-565 1066,-565 1066,-565 1072,-565 1078,-571 1078,-577 1078,-577 1078,-589 1078,-589 1078,-595 1072,-601 1066,-601"/>
<text text-anchor="middle" x="1002.5" y="-580.5" font-family="Times New Roman,serif" font-size="10.00" fill="#000033">Desarrolla2\Cache\Adapter\Redis</text>
</g>
<!-- Sunspikes\\Ratelimit\\Cache\\Factory\\DesarrollaCacheFactory&#45;&gt;Desarrolla2\\Cache\\Adapter\\Redis -->
<g id="edge21" class="edge"><title>Sunspikes\\Ratelimit\\Cache\\Factory\\DesarrollaCacheFactory&#45;&gt;Desarrolla2\\Cache\\Adapter\\Redis</title>
<path fill="none" stroke="#999999" d="M698.937,-1121.94C728.603,-1103.38 771.486,-1071.64 794,-1032 889.053,-864.654 729.499,-740.672 866,-605 880.538,-590.55 900.603,-583.326 920.839,-580.104"/>
<polygon fill="#999999" stroke="#999999" points="921.182,-582.177 926.832,-579.264 920.598,-578.017 921.182,-582.177"/>
</g>
<!-- Desarrolla2\\Cache\\Adapter\\MemCache -->
<g id="node22" class="node"><title>Desarrolla2\\Cache\\Adapter\\MemCache</title>
<path fill="#9999cc" stroke="black" d="M1077,-558C1077,-558 928,-558 928,-558 922,-558 916,-552 916,-546 916,-546 916,-534 916,-534 916,-528 922,-522 928,-522 928,-522 1077,-522 1077,-522 1083,-522 1089,-528 1089,-534 1089,-534 1089,-546 1089,-546 1089,-552 1083,-558 1077,-558"/>
<text text-anchor="middle" x="1002.5" y="-537.5" font-family="Times New Roman,serif" font-size="10.00" fill="#000033">Desarrolla2\Cache\Adapter\MemCache</text>
</g>
<!-- Sunspikes\\Ratelimit\\Cache\\Factory\\DesarrollaCacheFactory&#45;&gt;Desarrolla2\\Cache\\Adapter\\MemCache -->
<g id="edge22" class="edge"><title>Sunspikes\\Ratelimit\\Cache\\Factory\\DesarrollaCacheFactory&#45;&gt;Desarrolla2\\Cache\\Adapter\\MemCache</title>
<path fill="none" stroke="#999999" d="M699.354,-1121.84C729.106,-1103.31 771.855,-1071.68 794,-1032 896.988,-847.468 717.24,-712.097 866,-562 877.804,-550.09 893.355,-543.065 909.701,-539.139"/>
<polygon fill="#999999" stroke="#999999" points="910.334,-541.151 915.754,-537.83 909.446,-537.046 910.334,-541.151"/>
</g>
<!-- Sunspikes\\RateLimiter -->
<g id="node23" class="node"><title>Sunspikes\\RateLimiter</title>
<path fill="#9999cc" stroke="black" d="M112,-417C112,-417 30,-417 30,-417 24,-417 18,-411 18,-405 18,-405 18,-393 18,-393 18,-387 24,-381 30,-381 30,-381 112,-381 112,-381 118,-381 124,-387 124,-393 124,-393 124,-405 124,-405 124,-411 118,-417 112,-417"/>
<text text-anchor="middle" x="71" y="-396.5" font-family="Times New Roman,serif" font-size="10.00" fill="#000033">Sunspikes\RateLimiter</text>
</g>
<!-- Sunspikes\\RateLimiter&#45;&gt;Sunspikes\\Ratelimit\\Cache\\Adapter\\DesarrollaCacheAdapter -->
<g id="edge24" class="edge"><title>Sunspikes\\RateLimiter&#45;&gt;Sunspikes\\Ratelimit\\Cache\\Adapter\\DesarrollaCacheAdapter</title>
<path fill="none" stroke="#999999" d="M76.0618,-417.382C89.1485,-474.931 133.165,-656.073 198,-795 232.867,-869.712 289.22,-949.668 317.554,-987.963"/>
<polygon fill="#999999" stroke="#999999" points="315.932,-989.302 321.196,-992.865 319.303,-986.797 315.932,-989.302"/>
</g>
<!-- Sunspikes\\RateLimiter&#45;&gt;Sunspikes\\Ratelimit\\Cache\\Factory\\DesarrollaCacheFactory -->
<g id="edge23" class="edge"><title>Sunspikes\\RateLimiter&#45;&gt;Sunspikes\\Ratelimit\\Cache\\Factory\\DesarrollaCacheFactory</title>
<path fill="none" stroke="#999999" d="M83.6224,-417.139C105.419,-450.973 154.193,-525.824 198,-587 342.911,-789.365 366.663,-851.461 538,-1032 568.948,-1064.61 609.097,-1097.41 635.887,-1118.16"/>
<polygon fill="#999999" stroke="#999999" points="634.694,-1119.89 640.728,-1121.89 637.258,-1116.57 634.694,-1119.89"/>
</g>
<!-- InvalidArgumentException -->
<g id="node24" class="node"><title>InvalidArgumentException</title>
<path fill="#9999cc" stroke="black" d="M386,-555C386,-555 286,-555 286,-555 280,-555 274,-549 274,-543 274,-543 274,-531 274,-531 274,-525 280,-519 286,-519 286,-519 386,-519 386,-519 392,-519 398,-525 398,-531 398,-531 398,-543 398,-543 398,-549 392,-555 386,-555"/>
<text text-anchor="middle" x="336" y="-534.5" font-family="Times New Roman,serif" font-size="10.00" fill="#000033">InvalidArgumentException</text>
</g>
<!-- Sunspikes\\RateLimiter&#45;&gt;InvalidArgumentException -->
<g id="edge25" class="edge"><title>Sunspikes\\RateLimiter&#45;&gt;InvalidArgumentException</title>
<path fill="none" stroke="#999999" d="M88.4869,-417.165C110.943,-440.777 153.472,-481.63 198,-504 219.573,-514.838 244.871,-522.224 267.817,-527.209"/>
<polygon fill="#999999" stroke="#999999" points="267.604,-529.31 273.908,-528.488 268.468,-525.2 267.604,-529.31"/>
</g>
<!-- is_array -->
<g id="node25" class="node"><title>is_array</title>
<path fill="#9999cc" stroke="black" d="M351,-472C351,-472 321,-472 321,-472 315,-472 309,-466 309,-460 309,-460 309,-448 309,-448 309,-442 315,-436 321,-436 321,-436 351,-436 351,-436 357,-436 363,-442 363,-448 363,-448 363,-460 363,-460 363,-466 357,-472 351,-472"/>
<text text-anchor="middle" x="336" y="-451.5" font-family="Times New Roman,serif" font-size="10.00" fill="#000033">is_array</text>
</g>
<!-- Sunspikes\\RateLimiter&#45;&gt;is_array -->
<g id="edge26" class="edge"><title>Sunspikes\\RateLimiter&#45;&gt;is_array</title>
<path fill="none" stroke="#999999" d="M124.275,-409.932C177.498,-421.062 258.326,-437.966 302.819,-447.27"/>
<polygon fill="#999999" stroke="#999999" points="302.547,-449.359 308.849,-448.531 303.406,-445.247 302.547,-449.359"/>
</g>
<!-- Sunspikes\\Ratelimit\\Throttle\\Hydrator\\ArrayHydrator -->
<g id="node26" class="node"><title>Sunspikes\\Ratelimit\\Throttle\\Hydrator\\ArrayHydrator</title>
<path fill="#9999cc" stroke="black" d="M770,-294C770,-294 562,-294 562,-294 556,-294 550,-288 550,-282 550,-282 550,-270 550,-270 550,-264 556,-258 562,-258 562,-258 770,-258 770,-258 776,-258 782,-264 782,-270 782,-270 782,-282 782,-282 782,-288 776,-294 770,-294"/>
<text text-anchor="middle" x="666" y="-273.5" font-family="Times New Roman,serif" font-size="10.00" fill="#000033">Sunspikes\Ratelimit\Throttle\Hydrator\ArrayHydrator</text>
</g>
<!-- Sunspikes\\RateLimiter&#45;&gt;Sunspikes\\Ratelimit\\Throttle\\Hydrator\\ArrayHydrator -->
<g id="edge27" class="edge"><title>Sunspikes\\RateLimiter&#45;&gt;Sunspikes\\Ratelimit\\Throttle\\Hydrator\\ArrayHydrator</title>
<path fill="none" stroke="#999999" d="M87.2856,-380.904C109.022,-356.67 151.426,-314.676 198,-297 309.482,-254.69 446.823,-254.028 543.621,-261.145"/>
<polygon fill="#999999" stroke="#999999" points="543.505,-263.242 549.647,-261.602 543.823,-259.054 543.505,-263.242"/>
</g>
<!-- Sunspikes\\Ratelimit\\Throttle\\Hydrator\\StringHydrator -->
<g id="node27" class="node"><title>Sunspikes\\Ratelimit\\Throttle\\Hydrator\\StringHydrator</title>
<path fill="#9999cc" stroke="black" d="M770.5,-337C770.5,-337 561.5,-337 561.5,-337 555.5,-337 549.5,-331 549.5,-325 549.5,-325 549.5,-313 549.5,-313 549.5,-307 555.5,-301 561.5,-301 561.5,-301 770.5,-301 770.5,-301 776.5,-301 782.5,-307 782.5,-313 782.5,-313 782.5,-325 782.5,-325 782.5,-331 776.5,-337 770.5,-337"/>
<text text-anchor="middle" x="666" y="-316.5" font-family="Times New Roman,serif" font-size="10.00" fill="#000033">Sunspikes\Ratelimit\Throttle\Hydrator\StringHydrator</text>
</g>
<!-- Sunspikes\\RateLimiter&#45;&gt;Sunspikes\\Ratelimit\\Throttle\\Hydrator\\StringHydrator -->
<g id="edge29" class="edge"><title>Sunspikes\\RateLimiter&#45;&gt;Sunspikes\\Ratelimit\\Throttle\\Hydrator\\StringHydrator</title>
<path fill="none" stroke="#999999" d="M93.9875,-380.94C117.893,-362.558 158.051,-335.22 198,-324 311.811,-292.035 447.462,-294.858 543.16,-303.212"/>
<polygon fill="#999999" stroke="#999999" points="543.242,-305.327 549.405,-303.77 543.616,-301.144 543.242,-305.327"/>
</g>
<!-- Sunspikes\\Ratelimit\\Throttle\\Factory\\ThrottlerFactory -->
<g id="node28" class="node"><title>Sunspikes\\Ratelimit\\Throttle\\Factory\\ThrottlerFactory</title>
<path fill="#9999cc" stroke="black" d="M440.5,-363C440.5,-363 231.5,-363 231.5,-363 225.5,-363 219.5,-357 219.5,-351 219.5,-351 219.5,-339 219.5,-339 219.5,-333 225.5,-327 231.5,-327 231.5,-327 440.5,-327 440.5,-327 446.5,-327 452.5,-333 452.5,-339 452.5,-339 452.5,-351 452.5,-351 452.5,-357 446.5,-363 440.5,-363"/>
<text text-anchor="middle" x="336" y="-342.5" font-family="Times New Roman,serif" font-size="10.00" fill="#000033">Sunspikes\Ratelimit\Throttle\Factory\ThrottlerFactory</text>
</g>
<!-- Sunspikes\\RateLimiter&#45;&gt;Sunspikes\\Ratelimit\\Throttle\\Factory\\ThrottlerFactory -->
<g id="edge30" class="edge"><title>Sunspikes\\RateLimiter&#45;&gt;Sunspikes\\Ratelimit\\Throttle\\Factory\\ThrottlerFactory</title>
<path fill="none" stroke="#999999" d="M124.275,-388.267C157.548,-381.435 201.611,-372.388 240.84,-364.333"/>
<polygon fill="#999999" stroke="#999999" points="241.637,-366.313 247.092,-363.05 240.792,-362.199 241.637,-366.313"/>
</g>
<!-- is_string -->
<g id="node34" class="node"><title>is_string</title>
<path fill="#9999cc" stroke="black" d="M351,-168C351,-168 321,-168 321,-168 315,-168 309,-162 309,-156 309,-156 309,-144 309,-144 309,-138 315,-132 321,-132 321,-132 351,-132 351,-132 357,-132 363,-138 363,-144 363,-144 363,-156 363,-156 363,-162 357,-168 351,-168"/>
<text text-anchor="middle" x="336" y="-147.5" font-family="Times New Roman,serif" font-size="10.00" fill="#000033">is_string</text>
</g>
<!-- Sunspikes\\RateLimiter&#45;&gt;is_string -->
<g id="edge28" class="edge"><title>Sunspikes\\RateLimiter&#45;&gt;is_string</title>
<path fill="none" stroke="#999999" d="M79.3068,-380.969C95.3669,-343.426 137.214,-256.192 198,-206 228.891,-180.493 272.97,-165.283 302.716,-157.29"/>
<polygon fill="#999999" stroke="#999999" points="303.56,-159.24 308.836,-155.692 302.5,-155.176 303.56,-159.24"/>
</g>
<!-- Sunspikes\\Ratelimit\\Throttle\\Entity\\Data -->
<g id="node29" class="node"><title>Sunspikes\\Ratelimit\\Throttle\\Entity\\Data</title>
<path fill="#9999cc" stroke="black" d="M1080,-356C1080,-356 925,-356 925,-356 919,-356 913,-350 913,-344 913,-344 913,-332 913,-332 913,-326 919,-320 925,-320 925,-320 1080,-320 1080,-320 1086,-320 1092,-326 1092,-332 1092,-332 1092,-344 1092,-344 1092,-350 1086,-356 1080,-356"/>
<text text-anchor="middle" x="1002.5" y="-335.5" font-family="Times New Roman,serif" font-size="10.00" fill="#000033">Sunspikes\Ratelimit\Throttle\Entity\Data</text>
</g>
<!-- Sunspikes\\Ratelimit\\Throttle\\Hydrator\\ArrayHydrator&#45;&gt;Sunspikes\\Ratelimit\\Throttle\\Entity\\Data -->
<g id="edge41" class="edge"><title>Sunspikes\\Ratelimit\\Throttle\\Hydrator\\ArrayHydrator&#45;&gt;Sunspikes\\Ratelimit\\Throttle\\Entity\\Data</title>
<path fill="none" stroke="#999999" d="M772.021,-294.033C779.462,-295.36 786.846,-296.691 794,-298 830.929,-304.757 871.49,-312.504 906.878,-319.369"/>
<polygon fill="#999999" stroke="#999999" points="906.676,-321.469 912.966,-320.551 907.477,-317.346 906.676,-321.469"/>
</g>
<!-- Sunspikes\\Ratelimit\\Throttle\\Hydrator\\DataHydratorInterface -->
<g id="node32" class="node"><title>Sunspikes\\Ratelimit\\Throttle\\Hydrator\\DataHydratorInterface</title>
<path fill="#9999cc" stroke="black" d="M1122,-300C1122,-300 883,-300 883,-300 877,-300 871,-294 871,-288 871,-288 871,-276 871,-276 871,-270 877,-264 883,-264 883,-264 1122,-264 1122,-264 1128,-264 1134,-270 1134,-276 1134,-276 1134,-288 1134,-288 1134,-294 1128,-300 1122,-300"/>
<text text-anchor="middle" x="1002.5" y="-279.5" font-family="Times New Roman,serif" font-size="10.00" fill="#000033">Sunspikes\Ratelimit\Throttle\Hydrator\DataHydratorInterface</text>
</g>
<!-- Sunspikes\\Ratelimit\\Throttle\\Hydrator\\ArrayHydrator&#45;&gt;Sunspikes\\Ratelimit\\Throttle\\Hydrator\\DataHydratorInterface -->
<g id="edge39" class="edge"><title>Sunspikes\\Ratelimit\\Throttle\\Hydrator\\ArrayHydrator&#45;&gt;Sunspikes\\Ratelimit\\Throttle\\Hydrator\\DataHydratorInterface</title>
<path fill="none" stroke="#999999" stroke-dasharray="5,2" d="M782.116,-278.065C808.734,-278.542 837.309,-279.055 864.75,-279.547"/>
<polygon fill="#999999" stroke="#999999" points="864.919,-281.65 870.956,-279.658 864.994,-277.451 864.919,-281.65"/>
</g>
<!-- implode -->
<g id="node36" class="node"><title>implode</title>
<path fill="#9999cc" stroke="black" d="M1017.5,-168C1017.5,-168 987.5,-168 987.5,-168 981.5,-168 975.5,-162 975.5,-156 975.5,-156 975.5,-144 975.5,-144 975.5,-138 981.5,-132 987.5,-132 987.5,-132 1017.5,-132 1017.5,-132 1023.5,-132 1029.5,-138 1029.5,-144 1029.5,-144 1029.5,-156 1029.5,-156 1029.5,-162 1023.5,-168 1017.5,-168"/>
<text text-anchor="middle" x="1002.5" y="-147.5" font-family="Times New Roman,serif" font-size="10.00" fill="#000033">implode</text>
</g>
<!-- Sunspikes\\Ratelimit\\Throttle\\Hydrator\\ArrayHydrator&#45;&gt;implode -->
<g id="edge40" class="edge"><title>Sunspikes\\Ratelimit\\Throttle\\Hydrator\\ArrayHydrator&#45;&gt;implode</title>
<path fill="none" stroke="#999999" d="M782.179,-258.291C786.203,-256.962 790.155,-255.535 794,-254 829.719,-239.743 832.065,-224.098 866,-206 900.178,-187.772 941.602,-171.427 969.581,-161.167"/>
<polygon fill="#999999" stroke="#999999" points="970.42,-163.097 975.34,-159.072 968.983,-159.15 970.42,-163.097"/>
</g>
<!-- Sunspikes\\Ratelimit\\Throttle\\Hydrator\\StringHydrator&#45;&gt;Sunspikes\\Ratelimit\\Throttle\\Entity\\Data -->
<g id="edge43" class="edge"><title>Sunspikes\\Ratelimit\\Throttle\\Hydrator\\StringHydrator&#45;&gt;Sunspikes\\Ratelimit\\Throttle\\Entity\\Data</title>
<path fill="none" stroke="#999999" d="M782.584,-325.565C823.095,-327.866 868.09,-330.422 906.699,-332.615"/>
<polygon fill="#999999" stroke="#999999" points="906.73,-334.72 912.839,-332.964 906.968,-330.527 906.73,-334.72"/>
</g>
<!-- Sunspikes\\Ratelimit\\Throttle\\Hydrator\\StringHydrator&#45;&gt;Sunspikes\\Ratelimit\\Throttle\\Hydrator\\DataHydratorInterface -->
<g id="edge42" class="edge"><title>Sunspikes\\Ratelimit\\Throttle\\Hydrator\\StringHydrator&#45;&gt;Sunspikes\\Ratelimit\\Throttle\\Hydrator\\DataHydratorInterface</title>
<path fill="none" stroke="#999999" stroke-dasharray="5,2" d="M782.584,-306.215C809.006,-303.292 837.336,-300.159 864.557,-297.148"/>
<polygon fill="#999999" stroke="#999999" points="864.981,-299.214 870.713,-296.467 864.519,-295.039 864.981,-299.214"/>
</g>
<!-- Sunspikes\\Ratelimit\\Throttle\\Factory\\ThrottlerFactory&#45;&gt;Sunspikes\\Ratelimit\\Cache\\Adapter\\CacheAdapterInterface -->
<g id="edge37" class="edge"><title>Sunspikes\\Ratelimit\\Throttle\\Factory\\ThrottlerFactory&#45;&gt;Sunspikes\\Ratelimit\\Cache\\Adapter\\CacheAdapterInterface</title>
<path fill="none" stroke="#999999" d="M372.868,-363.063C400.233,-377.911 437.884,-400.729 466,-427 685.274,-631.891 620.351,-798.611 866,-971 877.595,-979.137 890.854,-985.638 904.436,-990.828"/>
<polygon fill="#999999" stroke="#999999" points="903.917,-992.874 910.273,-992.972 905.365,-988.932 903.917,-992.874"/>
</g>
<!-- Sunspikes\\Ratelimit\\Throttle\\Factory\\ThrottlerFactory&#45;&gt;Sunspikes\\Ratelimit\\Throttle\\Entity\\Data -->
<g id="edge36" class="edge"><title>Sunspikes\\Ratelimit\\Throttle\\Factory\\ThrottlerFactory&#45;&gt;Sunspikes\\Ratelimit\\Throttle\\Entity\\Data</title>
<path fill="none" stroke="#999999" d="M452.747,-343.781C581.426,-342.425 786.847,-340.261 906.486,-339.001"/>
<polygon fill="#999999" stroke="#999999" points="906.847,-341.097 912.825,-338.934 906.803,-336.898 906.847,-341.097"/>
</g>
<!-- Sunspikes\\Ratelimit\\Throttle\\Factory\\FactoryInterface -->
<g id="node30" class="node"><title>Sunspikes\\Ratelimit\\Throttle\\Factory\\FactoryInterface</title>
<path fill="#9999cc" stroke="black" d="M770.5,-389C770.5,-389 561.5,-389 561.5,-389 555.5,-389 549.5,-383 549.5,-377 549.5,-377 549.5,-365 549.5,-365 549.5,-359 555.5,-353 561.5,-353 561.5,-353 770.5,-353 770.5,-353 776.5,-353 782.5,-359 782.5,-365 782.5,-365 782.5,-377 782.5,-377 782.5,-383 776.5,-389 770.5,-389"/>
<text text-anchor="middle" x="666" y="-368.5" font-family="Times New Roman,serif" font-size="10.00" fill="#000033">Sunspikes\Ratelimit\Throttle\Factory\FactoryInterface</text>
</g>
<!-- Sunspikes\\Ratelimit\\Throttle\\Factory\\ThrottlerFactory&#45;&gt;Sunspikes\\Ratelimit\\Throttle\\Factory\\FactoryInterface -->
<g id="edge35" class="edge"><title>Sunspikes\\Ratelimit\\Throttle\\Factory\\ThrottlerFactory&#45;&gt;Sunspikes\\Ratelimit\\Throttle\\Factory\\FactoryInterface</title>
<path fill="none" stroke="#999999" stroke-dasharray="5,2" d="M452.641,-354.167C481.913,-356.487 513.443,-358.986 543.018,-361.331"/>
<polygon fill="#999999" stroke="#999999" points="543.151,-363.448 549.298,-361.829 543.483,-359.261 543.151,-363.448"/>
</g>
<!-- Sunspikes\\Ratelimit\\Throttle\\Throttler\\CacheThrottler -->
<g id="node31" class="node"><title>Sunspikes\\Ratelimit\\Throttle\\Throttler\\CacheThrottler</title>
<path fill="#9999cc" stroke="black" d="M770,-251C770,-251 562,-251 562,-251 556,-251 550,-245 550,-239 550,-239 550,-227 550,-227 550,-221 556,-215 562,-215 562,-215 770,-215 770,-215 776,-215 782,-221 782,-227 782,-227 782,-239 782,-239 782,-245 776,-251 770,-251"/>
<text text-anchor="middle" x="666" y="-230.5" font-family="Times New Roman,serif" font-size="10.00" fill="#000033">Sunspikes\Ratelimit\Throttle\Throttler\CacheThrottler</text>
</g>
<!-- Sunspikes\\Ratelimit\\Throttle\\Factory\\ThrottlerFactory&#45;&gt;Sunspikes\\Ratelimit\\Throttle\\Throttler\\CacheThrottler -->
<g id="edge38" class="edge"><title>Sunspikes\\Ratelimit\\Throttle\\Factory\\ThrottlerFactory&#45;&gt;Sunspikes\\Ratelimit\\Throttle\\Throttler\\CacheThrottler</title>
<path fill="none" stroke="#999999" d="M370.495,-326.872C409.601,-306.456 476.748,-273.697 538,-255 540.732,-254.166 543.508,-253.361 546.315,-252.583"/>
<polygon fill="#999999" stroke="#999999" points="546.869,-254.608 552.12,-251.025 545.781,-250.552 546.869,-254.608"/>
</g>
<!-- Sunspikes\\Ratelimit\\Throttle\\Entity\\Data&#45;&gt;is_null -->
<g id="edge31" class="edge"><title>Sunspikes\\Ratelimit\\Throttle\\Entity\\Data&#45;&gt;is_null</title>
<path fill="none" stroke="#999999" d="M1092.05,-326.468C1158.97,-317.752 1247.02,-306.285 1293.7,-300.206"/>
<polygon fill="#999999" stroke="#999999" points="1294.05,-302.278 1299.73,-299.421 1293.51,-298.113 1294.05,-302.278"/>
</g>
<!-- sha1 -->
<g id="node35" class="node"><title>sha1</title>
<path fill="#9999cc" stroke="black" d="M1342,-397C1342,-397 1312,-397 1312,-397 1306,-397 1300,-391 1300,-385 1300,-385 1300,-373 1300,-373 1300,-367 1306,-361 1312,-361 1312,-361 1342,-361 1342,-361 1348,-361 1354,-367 1354,-373 1354,-373 1354,-385 1354,-385 1354,-391 1348,-397 1342,-397"/>
<text text-anchor="middle" x="1327" y="-376.5" font-family="Times New Roman,serif" font-size="10.00" fill="#000033">sha1</text>
</g>
<!-- Sunspikes\\Ratelimit\\Throttle\\Entity\\Data&#45;&gt;sha1 -->
<g id="edge32" class="edge"><title>Sunspikes\\Ratelimit\\Throttle\\Entity\\Data&#45;&gt;sha1</title>
<path fill="none" stroke="#999999" d="M1092.05,-349.258C1158.97,-357.766 1247.02,-368.96 1293.7,-374.894"/>
<polygon fill="#999999" stroke="#999999" points="1293.52,-376.987 1299.73,-375.661 1294.05,-372.821 1293.52,-376.987"/>
</g>
<!-- Sunspikes\\Ratelimit\\Throttle\\Factory\\FactoryInterface&#45;&gt;Sunspikes\\Ratelimit\\Cache\\Adapter\\CacheAdapterInterface -->
<g id="edge34" class="edge"><title>Sunspikes\\Ratelimit\\Throttle\\Factory\\FactoryInterface&#45;&gt;Sunspikes\\Ratelimit\\Cache\\Adapter\\CacheAdapterInterface</title>
<path fill="none" stroke="#999999" d="M675.33,-389.14C697.049,-436.922 756.327,-570.522 794,-686 834.519,-810.204 775.466,-876.808 866,-971 873.529,-978.833 882.51,-985.153 892.214,-990.25"/>
<polygon fill="#999999" stroke="#999999" points="891.367,-992.173 897.675,-992.957 893.232,-988.41 891.367,-992.173"/>
</g>
<!-- Sunspikes\\Ratelimit\\Throttle\\Factory\\FactoryInterface&#45;&gt;Sunspikes\\Ratelimit\\Throttle\\Entity\\Data -->
<g id="edge33" class="edge"><title>Sunspikes\\Ratelimit\\Throttle\\Factory\\FactoryInterface&#45;&gt;Sunspikes\\Ratelimit\\Throttle\\Entity\\Data</title>
<path fill="none" stroke="#999999" d="M782.584,-359.597C823.095,-355.601 868.09,-351.162 906.699,-347.353"/>
<polygon fill="#999999" stroke="#999999" points="907.075,-349.426 912.839,-346.747 906.662,-345.246 907.075,-349.426"/>
</g>
<!-- Sunspikes\\Ratelimit\\Throttle\\Throttler\\CacheThrottler&#45;&gt;Sunspikes\\Ratelimit\\Cache\\Exception\\ItemNotFoundException -->
<g id="edge47" class="edge"><title>Sunspikes\\Ratelimit\\Throttle\\Throttler\\CacheThrottler&#45;&gt;Sunspikes\\Ratelimit\\Cache\\Exception\\ItemNotFoundException</title>
<path fill="none" stroke="#999999" d="M782.156,-244.92C786.448,-247.799 790.432,-251.137 794,-255 910.292,-380.878 751.463,-893.052 865.866,-1031.23"/>
<polygon fill="#999999" stroke="#999999" points="864.512,-1032.87 870.052,-1035.99 867.665,-1030.1 864.512,-1032.87"/>
</g>
<!-- Sunspikes\\Ratelimit\\Throttle\\Throttler\\CacheThrottler&#45;&gt;is_null -->
<g id="edge46" class="edge"><title>Sunspikes\\Ratelimit\\Throttle\\Throttler\\CacheThrottler&#45;&gt;is_null</title>
<path fill="none" stroke="#999999" d="M690.418,-214.804C725.983,-188.447 796.815,-140.849 866,-123 925.389,-107.678 1084.98,-100.404 1142,-123 1218.85,-153.455 1282.3,-232.884 1310.41,-272.633"/>
<polygon fill="#999999" stroke="#999999" points="1308.82,-274.025 1313.98,-277.739 1312.26,-271.619 1308.82,-274.025"/>
</g>
<!-- Sunspikes\\Ratelimit\\Throttle\\Throttler\\ThrottlerInterface -->
<g id="node33" class="node"><title>Sunspikes\\Ratelimit\\Throttle\\Throttler\\ThrottlerInterface</title>
<path fill="#9999cc" stroke="black" d="M1111.5,-251C1111.5,-251 893.5,-251 893.5,-251 887.5,-251 881.5,-245 881.5,-239 881.5,-239 881.5,-227 881.5,-227 881.5,-221 887.5,-215 893.5,-215 893.5,-215 1111.5,-215 1111.5,-215 1117.5,-215 1123.5,-221 1123.5,-227 1123.5,-227 1123.5,-239 1123.5,-239 1123.5,-245 1117.5,-251 1111.5,-251"/>
<text text-anchor="middle" x="1002.5" y="-230.5" font-family="Times New Roman,serif" font-size="10.00" fill="#000033">Sunspikes\Ratelimit\Throttle\Throttler\ThrottlerInterface</text>
</g>
<!-- Sunspikes\\Ratelimit\\Throttle\\Throttler\\CacheThrottler&#45;&gt;Sunspikes\\Ratelimit\\Throttle\\Throttler\\ThrottlerInterface -->
<g id="edge44" class="edge"><title>Sunspikes\\Ratelimit\\Throttle\\Throttler\\CacheThrottler&#45;&gt;Sunspikes\\Ratelimit\\Throttle\\Throttler\\ThrottlerInterface</title>
<path fill="none" stroke="#999999" stroke-dasharray="5,2" d="M782.116,-233C812.146,-233 844.668,-233 875.243,-233"/>
<polygon fill="#999999" stroke="#999999" points="875.33,-235.1 881.33,-233 875.33,-230.9 875.33,-235.1"/>
</g>
<!-- Countable -->
<g id="node37" class="node"><title>Countable</title>
<path fill="#9999cc" stroke="black" d="M1019.5,-69C1019.5,-69 985.5,-69 985.5,-69 979.5,-69 973.5,-63 973.5,-57 973.5,-57 973.5,-45 973.5,-45 973.5,-39 979.5,-33 985.5,-33 985.5,-33 1019.5,-33 1019.5,-33 1025.5,-33 1031.5,-39 1031.5,-45 1031.5,-45 1031.5,-57 1031.5,-57 1031.5,-63 1025.5,-69 1019.5,-69"/>
<text text-anchor="middle" x="1002.5" y="-48.5" font-family="Times New Roman,serif" font-size="10.00" fill="#000033">Countable</text>
</g>
<!-- Sunspikes\\Ratelimit\\Throttle\\Throttler\\CacheThrottler&#45;&gt;Countable -->
<g id="edge45" class="edge"><title>Sunspikes\\Ratelimit\\Throttle\\Throttler\\CacheThrottler&#45;&gt;Countable</title>
<path fill="none" stroke="#999999" stroke-dasharray="5,2" d="M692.542,-214.801C729.614,-188.864 801.014,-140.682 866,-107 899.546,-89.613 939.748,-73.5611 967.607,-63.1419"/>
<polygon fill="#999999" stroke="#999999" points="968.464,-65.0636 973.358,-61.0056 967.002,-61.1265 968.464,-65.0636"/>
</g>
</g>
</svg>
