<?xml version="1.0" encoding="UTF-8" standalone="no"?>
<!DOCTYPE svg PUBLIC "-//W3C//DTD SVG 1.1//EN"
 "http://www.w3.org/Graphics/SVG/1.1/DTD/svg11.dtd">
<!-- Generated by graphviz version 2.38.0 (20140413.2041)
 -->
<!-- Title: G Pages: 1 -->
<svg width="943pt" height="491pt"
 viewBox="0.00 0.00 943.00 491.00" xmlns="http://www.w3.org/2000/svg" xmlns:xlink="http://www.w3.org/1999/xlink">
<g id="graph0" class="graph" transform="scale(1 1) rotate(0) translate(4 487)">
<title>G</title>
<polygon fill="white" stroke="none" points="-4,4 -4,-487 939,-487 939,4 -4,4"/>
<text text-anchor="middle" x="467.5" y="-6.6" font-family="Times New Roman,serif" font-size="8.00">PhpDependencyAnalysis by Marco Muths (v0.5.3)</text>
<!-- Sunspikes\\Ratelimit\\Cache\\Adapter\\AbstractCacheAdapter -->
<g id="node1" class="node"><title>Sunspikes\\Ratelimit\\Cache\\Adapter\\AbstractCacheAdapter</title>
<path fill="#9999cc" stroke="black" d="M592,-53C592,-53 361,-53 361,-53 355,-53 349,-47 349,-41 349,-41 349,-29 349,-29 349,-23 355,-17 361,-17 361,-17 592,-17 592,-17 598,-17 604,-23 604,-29 604,-29 604,-41 604,-41 604,-47 598,-53 592,-53"/>
<text text-anchor="middle" x="476.5" y="-32.5" font-family="Times New Roman,serif" font-size="10.00" fill="#000033">Sunspikes\Ratelimit\Cache\Adapter\AbstractCacheAdapter</text>
</g>
<!-- Sunspikes\\Ratelimit\\Cache\\Adapter\\CacheAdapterInterface -->
<g id="node2" class="node"><title>Sunspikes\\Ratelimit\\Cache\\Adapter\\CacheAdapterInterface</title>
<path fill="#9999cc" stroke="black" d="M923,-53C923,-53 692,-53 692,-53 686,-53 680,-47 680,-41 680,-41 680,-29 680,-29 680,-23 686,-17 692,-17 692,-17 923,-17 923,-17 929,-17 935,-23 935,-29 935,-29 935,-41 935,-41 935,-47 929,-53 923,-53"/>
<text text-anchor="middle" x="807.5" y="-32.5" font-family="Times New Roman,serif" font-size="10.00" fill="#000033">Sunspikes\Ratelimit\Cache\Adapter\CacheAdapterInterface</text>
</g>
<!-- Sunspikes\\Ratelimit\\Cache\\Adapter\\AbstractCacheAdapter&#45;&gt;Sunspikes\\Ratelimit\\Cache\\Adapter\\CacheAdapterInterface -->
<g id="edge1" class="edge"><title>Sunspikes\\Ratelimit\\Cache\\Adapter\\AbstractCacheAdapter&#45;&gt;Sunspikes\\Ratelimit\\Cache\\Adapter\\CacheAdapterInterface</title>
<path fill="none" stroke="#999999" stroke-dasharray="5,2" d="M604.229,-35C626.994,-35 650.78,-35 673.71,-35"/>
<polygon fill="#999999" stroke="#999999" points="673.836,-37.1001 679.836,-35 673.836,-32.9001 673.836,-37.1001"/>
</g>
<!-- Sunspikes\\Ratelimit\\Cache\\Adapter\\DesarrollaCacheAdapter -->
<g id="node3" class="node"><title>Sunspikes\\Ratelimit\\Cache\\Adapter\\DesarrollaCacheAdapter</title>
<path fill="#9999cc" stroke="black" d="M254.5,-53C254.5,-53 18.5,-53 18.5,-53 12.5,-53 6.5,-47 6.5,-41 6.5,-41 6.5,-29 6.5,-29 6.5,-23 12.5,-17 18.5,-17 18.5,-17 254.5,-17 254.5,-17 260.5,-17 266.5,-23 266.5,-29 266.5,-29 266.5,-41 266.5,-41 266.5,-47 260.5,-53 254.5,-53"/>
<text text-anchor="middle" x="136.5" y="-32.5" font-family="Times New Roman,serif" font-size="10.00" fill="#000033">Sunspikes\Ratelimit\Cache\Adapter\DesarrollaCacheAdapter</text>
</g>
<!-- Sunspikes\\Ratelimit\\Cache\\Adapter\\DesarrollaCacheAdapter&#45;&gt;Sunspikes\\Ratelimit\\Cache\\Adapter\\AbstractCacheAdapter -->
<g id="edge2" class="edge"><title>Sunspikes\\Ratelimit\\Cache\\Adapter\\DesarrollaCacheAdapter&#45;&gt;Sunspikes\\Ratelimit\\Cache\\Adapter\\AbstractCacheAdapter</title>
<path fill="none" stroke="#999999" stroke-dasharray="5,2" d="M266.73,-35C291.556,-35 317.596,-35 342.537,-35"/>
<polygon fill="#999999" stroke="#999999" points="342.853,-37.1001 348.853,-35 342.853,-32.9001 342.853,-37.1001"/>
</g>
<!-- Sunspikes\\Ratelimit\\Cache\\Exception\\CacheException -->
<g id="node4" class="node"><title>Sunspikes\\Ratelimit\\Cache\\Exception\\CacheException</title>
<path fill="#9999cc" stroke="black" d="M580.5,-139C580.5,-139 372.5,-139 372.5,-139 366.5,-139 360.5,-133 360.5,-127 360.5,-127 360.5,-115 360.5,-115 360.5,-109 366.5,-103 372.5,-103 372.5,-103 580.5,-103 580.5,-103 586.5,-103 592.5,-109 592.5,-115 592.5,-115 592.5,-127 592.5,-127 592.5,-133 586.5,-139 580.5,-139"/>
<text text-anchor="middle" x="476.5" y="-118.5" font-family="Times New Roman,serif" font-size="10.00" fill="#000033">Sunspikes\Ratelimit\Cache\Exception\CacheException</text>
</g>
<!-- Sunspikes\\Ratelimit\\Cache\\Exception\\DriverNotFoundException -->
<g id="node5" class="node"><title>Sunspikes\\Ratelimit\\Cache\\Exception\\DriverNotFoundException</title>
<path fill="#9999cc" stroke="black" d="M261,-182C261,-182 12,-182 12,-182 6,-182 0,-176 0,-170 0,-170 0,-158 0,-158 0,-152 6,-146 12,-146 12,-146 261,-146 261,-146 267,-146 273,-152 273,-158 273,-158 273,-170 273,-170 273,-176 267,-182 261,-182"/>
<text text-anchor="middle" x="136.5" y="-161.5" font-family="Times New Roman,serif" font-size="10.00" fill="#000033">Sunspikes\Ratelimit\Cache\Exception\DriverNotFoundException</text>
</g>
<!-- Sunspikes\\Ratelimit\\Cache\\Exception\\DriverNotFoundException&#45;&gt;Sunspikes\\Ratelimit\\Cache\\Exception\\CacheException -->
<g id="edge3" class="edge"><title>Sunspikes\\Ratelimit\\Cache\\Exception\\DriverNotFoundException&#45;&gt;Sunspikes\\Ratelimit\\Cache\\Exception\\CacheException</title>
<path fill="none" stroke="#999999" stroke-dasharray="5,2" d="M273.03,-146.758C299.923,-143.337 327.993,-139.766 354.368,-136.41"/>
<polygon fill="#999999" stroke="#999999" points="354.635,-138.493 360.322,-135.653 354.105,-134.327 354.635,-138.493"/>
</g>
<!-- Sunspikes\\Ratelimit\\Cache\\Exception\\InvalidConfigException -->
<g id="node6" class="node"><title>Sunspikes\\Ratelimit\\Cache\\Exception\\InvalidConfigException</title>
<path fill="#9999cc" stroke="black" d="M255.5,-139C255.5,-139 17.5,-139 17.5,-139 11.5,-139 5.5,-133 5.5,-127 5.5,-127 5.5,-115 5.5,-115 5.5,-109 11.5,-103 17.5,-103 17.5,-103 255.5,-103 255.5,-103 261.5,-103 267.5,-109 267.5,-115 267.5,-115 267.5,-127 267.5,-127 267.5,-133 261.5,-139 255.5,-139"/>
<text text-anchor="middle" x="136.5" y="-118.5" font-family="Times New Roman,serif" font-size="10.00" fill="#000033">Sunspikes\Ratelimit\Cache\Exception\InvalidConfigException</text>
</g>
<!-- Sunspikes\\Ratelimit\\Cache\\Exception\\InvalidConfigException&#45;&gt;Sunspikes\\Ratelimit\\Cache\\Exception\\CacheException -->
<g id="edge4" class="edge"><title>Sunspikes\\Ratelimit\\Cache\\Exception\\InvalidConfigException&#45;&gt;Sunspikes\\Ratelimit\\Cache\\Exception\\CacheException</title>
<path fill="none" stroke="#999999" stroke-dasharray="5,2" d="M267.696,-121C296.051,-121 325.945,-121 353.949,-121"/>
<polygon fill="#999999" stroke="#999999" points="354.269,-123.1 360.269,-121 354.269,-118.9 354.269,-123.1"/>
</g>
<!-- Sunspikes\\Ratelimit\\Cache\\Exception\\ItemNotFoundException -->
<g id="node7" class="node"><title>Sunspikes\\Ratelimit\\Cache\\Exception\\ItemNotFoundException</title>
<path fill="#9999cc" stroke="black" d="M257.5,-96C257.5,-96 15.5,-96 15.5,-96 9.5,-96 3.5,-90 3.5,-84 3.5,-84 3.5,-72 3.5,-72 3.5,-66 9.5,-60 15.5,-60 15.5,-60 257.5,-60 257.5,-60 263.5,-60 269.5,-66 269.5,-72 269.5,-72 269.5,-84 269.5,-84 269.5,-90 263.5,-96 257.5,-96"/>
<text text-anchor="middle" x="136.5" y="-75.5" font-family="Times New Roman,serif" font-size="10.00" fill="#000033">Sunspikes\Ratelimit\Cache\Exception\ItemNotFoundException</text>
</g>
<!-- Sunspikes\\Ratelimit\\Cache\\Exception\\ItemNotFoundException&#45;&gt;Sunspikes\\Ratelimit\\Cache\\Exception\\CacheException -->
<g id="edge5" class="edge"><title>Sunspikes\\Ratelimit\\Cache\\Exception\\ItemNotFoundException&#45;&gt;Sunspikes\\Ratelimit\\Cache\\Exception\\CacheException</title>
<path fill="none" stroke="#999999" stroke-dasharray="5,2" d="M269.632,-94.8097C297.518,-98.3573 326.812,-102.084 354.272,-105.578"/>
<polygon fill="#999999" stroke="#999999" points="354.253,-107.692 360.47,-106.366 354.783,-103.525 354.253,-107.692"/>
</g>
<!-- Sunspikes\\Ratelimit\\Cache\\Factory\\DesarrollaCacheFactory -->
<g id="node8" class="node"><title>Sunspikes\\Ratelimit\\Cache\\Factory\\DesarrollaCacheFactory</title>
<path fill="#9999cc" stroke="black" d="M252.5,-225C252.5,-225 20.5,-225 20.5,-225 14.5,-225 8.5,-219 8.5,-213 8.5,-213 8.5,-201 8.5,-201 8.5,-195 14.5,-189 20.5,-189 20.5,-189 252.5,-189 252.5,-189 258.5,-189 264.5,-195 264.5,-201 264.5,-201 264.5,-213 264.5,-213 264.5,-219 258.5,-225 252.5,-225"/>
<text text-anchor="middle" x="136.5" y="-204.5" font-family="Times New Roman,serif" font-size="10.00" fill="#000033">Sunspikes\Ratelimit\Cache\Factory\DesarrollaCacheFactory</text>
</g>
<!-- Sunspikes\\Ratelimit\\Cache\\Factory\\FactoryInterface -->
<g id="node9" class="node"><title>Sunspikes\\Ratelimit\\Cache\\Factory\\FactoryInterface</title>
<path fill="#9999cc" stroke="black" d="M577.5,-225C577.5,-225 375.5,-225 375.5,-225 369.5,-225 363.5,-219 363.5,-213 363.5,-213 363.5,-201 363.5,-201 363.5,-195 369.5,-189 375.5,-189 375.5,-189 577.5,-189 577.5,-189 583.5,-189 589.5,-195 589.5,-201 589.5,-201 589.5,-213 589.5,-213 589.5,-219 583.5,-225 577.5,-225"/>
<text text-anchor="middle" x="476.5" y="-204.5" font-family="Times New Roman,serif" font-size="10.00" fill="#000033">Sunspikes\Ratelimit\Cache\Factory\FactoryInterface</text>
</g>
<!-- Sunspikes\\Ratelimit\\Cache\\Factory\\DesarrollaCacheFactory&#45;&gt;Sunspikes\\Ratelimit\\Cache\\Factory\\FactoryInterface -->
<g id="edge6" class="edge"><title>Sunspikes\\Ratelimit\\Cache\\Factory\\DesarrollaCacheFactory&#45;&gt;Sunspikes\\Ratelimit\\Cache\\Factory\\FactoryInterface</title>
<path fill="none" stroke="#999999" stroke-dasharray="5,2" d="M264.802,-207C295.026,-207 327.148,-207 356.964,-207"/>
<polygon fill="#999999" stroke="#999999" points="357.289,-209.1 363.289,-207 357.289,-204.9 357.289,-209.1"/>
</g>
<!-- Sunspikes\\RateLimiter -->
<g id="node10" class="node"><title>Sunspikes\\RateLimiter</title>
<path fill="#9999cc" stroke="black" d="M177.5,-268C177.5,-268 95.5,-268 95.5,-268 89.5,-268 83.5,-262 83.5,-256 83.5,-256 83.5,-244 83.5,-244 83.5,-238 89.5,-232 95.5,-232 95.5,-232 177.5,-232 177.5,-232 183.5,-232 189.5,-238 189.5,-244 189.5,-244 189.5,-256 189.5,-256 189.5,-262 183.5,-268 177.5,-268"/>
<text text-anchor="middle" x="136.5" y="-247.5" font-family="Times New Roman,serif" font-size="10.00" fill="#000033">Sunspikes\RateLimiter</text>
</g>
<!-- Sunspikes\\Ratelimit\\Throttle\\Entity\\Data -->
<g id="node11" class="node"><title>Sunspikes\\Ratelimit\\Throttle\\Entity\\Data</title>
<path fill="#9999cc" stroke="black" d="M214,-311C214,-311 59,-311 59,-311 53,-311 47,-305 47,-299 47,-299 47,-287 47,-287 47,-281 53,-275 59,-275 59,-275 214,-275 214,-275 220,-275 226,-281 226,-287 226,-287 226,-299 226,-299 226,-305 220,-311 214,-311"/>
<text text-anchor="middle" x="136.5" y="-290.5" font-family="Times New Roman,serif" font-size="10.00" fill="#000033">Sunspikes\Ratelimit\Throttle\Entity\Data</text>
</g>
<!-- Sunspikes\\Ratelimit\\Throttle\\Factory\\FactoryInterface -->
<g id="node12" class="node"><title>Sunspikes\\Ratelimit\\Throttle\\Factory\\FactoryInterface</title>
<path fill="#9999cc" stroke="black" d="M581,-354C581,-354 372,-354 372,-354 366,-354 360,-348 360,-342 360,-342 360,-330 360,-330 360,-324 366,-318 372,-318 372,-318 581,-318 581,-318 587,-318 593,-324 593,-330 593,-330 593,-342 593,-342 593,-348 587,-354 581,-354"/>
<text text-anchor="middle" x="476.5" y="-333.5" font-family="Times New Roman,serif" font-size="10.00" fill="#000033">Sunspikes\Ratelimit\Throttle\Factory\FactoryInterface</text>
</g>
<!-- Sunspikes\\Ratelimit\\Throttle\\Factory\\ThrottlerFactory -->
<g id="node13" class="node"><title>Sunspikes\\Ratelimit\\Throttle\\Factory\\ThrottlerFactory</title>
<path fill="#9999cc" stroke="black" d="M241,-354C241,-354 32,-354 32,-354 26,-354 20,-348 20,-342 20,-342 20,-330 20,-330 20,-324 26,-318 32,-318 32,-318 241,-318 241,-318 247,-318 253,-324 253,-330 253,-330 253,-342 253,-342 253,-348 247,-354 241,-354"/>
<text text-anchor="middle" x="136.5" y="-333.5" font-family="Times New Roman,serif" font-size="10.00" fill="#000033">Sunspikes\Ratelimit\Throttle\Factory\ThrottlerFactory</text>
</g>
<!-- Sunspikes\\Ratelimit\\Throttle\\Factory\\ThrottlerFactory&#45;&gt;Sunspikes\\Ratelimit\\Throttle\\Factory\\FactoryInterface -->
<g id="edge7" class="edge"><title>Sunspikes\\Ratelimit\\Throttle\\Factory\\ThrottlerFactory&#45;&gt;Sunspikes\\Ratelimit\\Throttle\\Factory\\FactoryInterface</title>
<path fill="none" stroke="#999999" stroke-dasharray="5,2" d="M253.348,-336C285.73,-336 321.012,-336 353.726,-336"/>
<polygon fill="#999999" stroke="#999999" points="353.804,-338.1 359.804,-336 353.804,-333.9 353.804,-338.1"/>
</g>
<!-- Sunspikes\\Ratelimit\\Throttle\\Hydrator\\ArrayHydrator -->
<g id="node14" class="node"><title>Sunspikes\\Ratelimit\\Throttle\\Hydrator\\ArrayHydrator</title>
<path fill="#9999cc" stroke="black" d="M240.5,-440C240.5,-440 32.5,-440 32.5,-440 26.5,-440 20.5,-434 20.5,-428 20.5,-428 20.5,-416 20.5,-416 20.5,-410 26.5,-404 32.5,-404 32.5,-404 240.5,-404 240.5,-404 246.5,-404 252.5,-410 252.5,-416 252.5,-416 252.5,-428 252.5,-428 252.5,-434 246.5,-440 240.5,-440"/>
<text text-anchor="middle" x="136.5" y="-419.5" font-family="Times New Roman,serif" font-size="10.00" fill="#000033">Sunspikes\Ratelimit\Throttle\Hydrator\ArrayHydrator</text>
</g>
<!-- Sunspikes\\Ratelimit\\Throttle\\Hydrator\\DataHydratorInterface -->
<g id="node15" class="node"><title>Sunspikes\\Ratelimit\\Throttle\\Hydrator\\DataHydratorInterface</title>
<path fill="#9999cc" stroke="black" d="M596,-418C596,-418 357,-418 357,-418 351,-418 345,-412 345,-406 345,-406 345,-394 345,-394 345,-388 351,-382 357,-382 357,-382 596,-382 596,-382 602,-382 608,-388 608,-394 608,-394 608,-406 608,-406 608,-412 602,-418 596,-418"/>
<text text-anchor="middle" x="476.5" y="-397.5" font-family="Times New Roman,serif" font-size="10.00" fill="#000033">Sunspikes\Ratelimit\Throttle\Hydrator\DataHydratorInterface</text>
</g>
<!-- Sunspikes\\Ratelimit\\Throttle\\Hydrator\\ArrayHydrator&#45;&gt;Sunspikes\\Ratelimit\\Throttle\\Hydrator\\DataHydratorInterface -->
<g id="edge8" class="edge"><title>Sunspikes\\Ratelimit\\Throttle\\Hydrator\\ArrayHydrator&#45;&gt;Sunspikes\\Ratelimit\\Throttle\\Hydrator\\DataHydratorInterface</title>
<path fill="none" stroke="#999999" stroke-dasharray="5,2" d="M252.875,-414.49C280.549,-412.689 310.363,-410.749 338.898,-408.891"/>
<polygon fill="#999999" stroke="#999999" points="339.115,-410.982 344.966,-408.496 338.842,-406.791 339.115,-410.982"/>
</g>
<!-- Sunspikes\\Ratelimit\\Throttle\\Hydrator\\StringHydrator -->
<g id="node16" class="node"><title>Sunspikes\\Ratelimit\\Throttle\\Hydrator\\StringHydrator</title>
<path fill="#9999cc" stroke="black" d="M241,-397C241,-397 32,-397 32,-397 26,-397 20,-391 20,-385 20,-385 20,-373 20,-373 20,-367 26,-361 32,-361 32,-361 241,-361 241,-361 247,-361 253,-367 253,-373 253,-373 253,-385 253,-385 253,-391 247,-397 241,-397"/>
<text text-anchor="middle" x="136.5" y="-376.5" font-family="Times New Roman,serif" font-size="10.00" fill="#000033">Sunspikes\Ratelimit\Throttle\Hydrator\StringHydrator</text>
</g>
<!-- Sunspikes\\Ratelimit\\Throttle\\Hydrator\\StringHydrator&#45;&gt;Sunspikes\\Ratelimit\\Throttle\\Hydrator\\DataHydratorInterface -->
<g id="edge9" class="edge"><title>Sunspikes\\Ratelimit\\Throttle\\Hydrator\\StringHydrator&#45;&gt;Sunspikes\\Ratelimit\\Throttle\\Hydrator\\DataHydratorInterface</title>
<path fill="none" stroke="#999999" stroke-dasharray="5,2" d="M253.348,-386.198C280.823,-387.905 310.385,-389.741 338.696,-391.5"/>
<polygon fill="#999999" stroke="#999999" points="338.598,-393.598 344.716,-391.874 338.858,-389.406 338.598,-393.598"/>
</g>
<!-- Sunspikes\\Ratelimit\\Throttle\\Throttler\\CacheThrottler -->
<g id="node17" class="node"><title>Sunspikes\\Ratelimit\\Throttle\\Throttler\\CacheThrottler</title>
<path fill="#9999cc" stroke="black" d="M240.5,-483C240.5,-483 32.5,-483 32.5,-483 26.5,-483 20.5,-477 20.5,-471 20.5,-471 20.5,-459 20.5,-459 20.5,-453 26.5,-447 32.5,-447 32.5,-447 240.5,-447 240.5,-447 246.5,-447 252.5,-453 252.5,-459 252.5,-459 252.5,-471 252.5,-471 252.5,-477 246.5,-483 240.5,-483"/>
<text text-anchor="middle" x="136.5" y="-462.5" font-family="Times New Roman,serif" font-size="10.00" fill="#000033">Sunspikes\Ratelimit\Throttle\Throttler\CacheThrottler</text>
</g>
<!-- Sunspikes\\Ratelimit\\Throttle\\Throttler\\ThrottlerInterface -->
<g id="node18" class="node"><title>Sunspikes\\Ratelimit\\Throttle\\Throttler\\ThrottlerInterface</title>
<path fill="#9999cc" stroke="black" d="M585.5,-483C585.5,-483 367.5,-483 367.5,-483 361.5,-483 355.5,-477 355.5,-471 355.5,-471 355.5,-459 355.5,-459 355.5,-453 361.5,-447 367.5,-447 367.5,-447 585.5,-447 585.5,-447 591.5,-447 597.5,-453 597.5,-459 597.5,-459 597.5,-471 597.5,-471 597.5,-477 591.5,-483 585.5,-483"/>
<text text-anchor="middle" x="476.5" y="-462.5" font-family="Times New Roman,serif" font-size="10.00" fill="#000033">Sunspikes\Ratelimit\Throttle\Throttler\ThrottlerInterface</text>
</g>
<!-- Sunspikes\\Ratelimit\\Throttle\\Throttler\\CacheThrottler&#45;&gt;Sunspikes\\Ratelimit\\Throttle\\Throttler\\ThrottlerInterface -->
<g id="edge10" class="edge"><title>Sunspikes\\Ratelimit\\Throttle\\Throttler\\CacheThrottler&#45;&gt;Sunspikes\\Ratelimit\\Throttle\\Throttler\\ThrottlerInterface</title>
<path fill="none" stroke="#999999" stroke-dasharray="5,2" d="M252.875,-465C283.892,-465 317.598,-465 349.176,-465"/>
<polygon fill="#999999" stroke="#999999" points="349.462,-467.1 355.462,-465 349.462,-462.9 349.462,-467.1"/>
</g>
</g>
</svg>
