<?xml version="1.0" encoding="UTF-8" standalone="no"?>
<!DOCTYPE svg PUBLIC "-//W3C//DTD SVG 1.1//EN"
 "http://www.w3.org/Graphics/SVG/1.1/DTD/svg11.dtd">
<!-- Generated by graphviz version 2.38.0 (20140413.2041)
 -->
<!-- Title: G Pages: 1 -->
<svg width="474pt" height="116pt"
 viewBox="0.00 0.00 474.00 116.00" xmlns="http://www.w3.org/2000/svg" xmlns:xlink="http://www.w3.org/1999/xlink">
<g id="graph0" class="graph" transform="scale(1 1) rotate(0) translate(4 112)">
<title>G</title>
<polygon fill="white" stroke="none" points="-4,4 -4,-112 470,-112 470,4 -4,4"/>
<text text-anchor="middle" x="233" y="-6.6" font-family="Times New Roman,serif" font-size="8.00">PhpDependencyAnalysis by Marco Muths (v0.5.3)</text>
<g id="clust1" class="cluster"><title>cluster_0</title>
<path fill="#ccccff" stroke="#000033" d="M20,-25C20,-25 285,-25 285,-25 291,-25 297,-31 297,-37 297,-37 297,-88 297,-88 297,-94 291,-100 285,-100 285,-100 20,-100 20,-100 14,-100 8,-94 8,-88 8,-88 8,-37 8,-37 8,-31 14,-25 20,-25"/>
<text text-anchor="middle" x="45" y="-84.8" font-family="Times New Roman,serif" font-size="14.00" fill="#000033">Sunspikes</text>
</g>
<g id="clust2" class="cluster"><title>cluster_1</title>
<path fill="#ccccff" stroke="#000033" d="M365,-25C365,-25 446,-25 446,-25 452,-25 458,-31 458,-37 458,-37 458,-88 458,-88 458,-94 452,-100 446,-100 446,-100 365,-100 365,-100 359,-100 353,-94 353,-88 353,-88 353,-37 353,-37 353,-31 359,-25 365,-25"/>
<text text-anchor="middle" x="393" y="-84.8" font-family="Times New Roman,serif" font-size="14.00" fill="#000033">Desarrolla2</text>
</g>
<!-- Sunspikes\\Ratelimit -->
<g id="node1" class="node"><title>Sunspikes\\Ratelimit</title>
<path fill="#9999cc" stroke="black" d="M277,-69C277,-69 206,-69 206,-69 200,-69 194,-63 194,-57 194,-57 194,-45 194,-45 194,-39 200,-33 206,-33 206,-33 277,-33 277,-33 283,-33 289,-39 289,-45 289,-45 289,-57 289,-57 289,-63 283,-69 277,-69"/>
<text text-anchor="middle" x="241.5" y="-48.5" font-family="Times New Roman,serif" font-size="10.00" fill="#000033">Sunspikes\Ratelimit</text>
</g>
<!-- Desarrolla2\\Cache -->
<g id="node3" class="node"><title>Desarrolla2\\Cache</title>
<path fill="#9999cc" stroke="black" d="M438,-69C438,-69 373,-69 373,-69 367,-69 361,-63 361,-57 361,-57 361,-45 361,-45 361,-39 367,-33 373,-33 373,-33 438,-33 438,-33 444,-33 450,-39 450,-45 450,-45 450,-57 450,-57 450,-63 444,-69 438,-69"/>
<text text-anchor="middle" x="405.5" y="-48.5" font-family="Times New Roman,serif" font-size="10.00" fill="#000033">Desarrolla2\Cache</text>
</g>
<!-- Sunspikes\\Ratelimit&#45;&gt;Desarrolla2\\Cache -->
<g id="edge1" class="edge"><title>Sunspikes\\Ratelimit&#45;&gt;Desarrolla2\\Cache</title>
<path fill="none" stroke="#999999" d="M289.357,-51C309.854,-51 333.922,-51 354.739,-51"/>
<polygon fill="#999999" stroke="#999999" points="354.802,-53.1001 360.802,-51 354.802,-48.9001 354.802,-53.1001"/>
</g>
<!-- Sunspikes\\RateLimiter -->
<g id="node2" class="node"><title>Sunspikes\\RateLimiter</title>
<path fill="#9999cc" stroke="black" d="M110,-69C110,-69 28,-69 28,-69 22,-69 16,-63 16,-57 16,-57 16,-45 16,-45 16,-39 22,-33 28,-33 28,-33 110,-33 110,-33 116,-33 122,-39 122,-45 122,-45 122,-57 122,-57 122,-63 116,-69 110,-69"/>
<text text-anchor="middle" x="69" y="-48.5" font-family="Times New Roman,serif" font-size="10.00" fill="#000033">Sunspikes\RateLimiter</text>
</g>
<!-- Sunspikes\\RateLimiter&#45;&gt;Sunspikes\\Ratelimit -->
<g id="edge2" class="edge"><title>Sunspikes\\RateLimiter&#45;&gt;Sunspikes\\Ratelimit</title>
<path fill="none" stroke="#999999" d="M122.082,-51C142.939,-51 166.934,-51 187.848,-51"/>
<polygon fill="#999999" stroke="#999999" points="187.945,-53.1001 193.945,-51 187.945,-48.9001 187.945,-53.1001"/>
</g>
</g>
</svg>
